<?xml version="1.0" encoding="UTF-8" standalone="no"?>
<svg width="90px" height="90px" viewBox="0 0 90 90" version="1.1" xmlns="http://www.w3.org/2000/svg" xmlns:xlink="http://www.w3.org/1999/xlink" xmlns:sketch="http://www.bohemiancoding.com/sketch/ns">
    <!-- Generator: Sketch 3.5.2 (25235) - http://www.bohemiancoding.com/sketch -->
    <title>Untitled</title>
    <desc>Created with Sketch.</desc>
    <defs></defs>
    <g id="Page-1" stroke="none" stroke-width="1" fill="none" fill-rule="evenodd" sketch:type="MSPage">
        <path d="M45.012,0 C20.16,0 0,20.16 0,45.012 C0,69.864 20.16,90 45.012,90 C69.864,90 90,69.864 90,45.012 C90,20.16 69.864,0 45.012,0 L45.012,0 Z M65.785,48.761 C64.913,49.728 63.451,50.176 61.399,50.152 L50.152,50.152 L50.152,61.399 C50.152,63.45 49.68,64.889 48.714,65.761 C47.771,66.633 46.521,67.081 44.989,67.081 C43.456,67.081 42.207,66.633 41.24,65.761 C40.297,64.889 39.849,63.45 39.872,61.399 L39.872,50.152 L28.624,50.152 C26.573,50.152 25.111,49.68 24.238,48.737 C23.366,47.794 22.941,46.568 22.941,45.035 C22.941,43.502 23.365,42.253 24.238,41.286 C25.11,40.343 26.572,39.871 28.624,39.871 L39.871,39.871 L39.871,28.625 C39.871,26.574 40.343,25.112 41.286,24.239 C42.206,23.367 43.455,22.942 44.988,22.942 C46.521,22.942 47.77,23.366 48.713,24.239 C49.68,25.112 50.151,26.573 50.151,28.625 L50.151,39.872 L61.398,39.872 C63.449,39.872 64.911,40.344 65.784,41.287 C66.633,42.254 67.081,43.503 67.081,45.036 C67.081,46.568 66.633,47.818 65.785,48.761 L65.785,48.761 Z" id="Shape" fill="#FA7921" sketch:type="MSShapeGroup"></path>
    </g>
</svg>