<svg id="svg" version="1.1" fill-opacity="0.7" width="450" height="440" xmlns="http://www.w3.org/2000/svg" xmlns:xlink="http://www.w3.org/1999/xlink" style="display: block;"><g id="svgg"><path id="path0" d="M13.170 70.000 C 13.171 91.560,13.274 100.265,13.399 89.344 C 13.525 78.424,13.525 60.784,13.399 50.144 C 13.273 39.505,13.170 48.440,13.170 70.000 M13.168 331.200 C 13.168 351.220,13.272 359.410,13.399 349.400 C 13.526 339.390,13.526 323.010,13.399 313.000 C 13.272 302.990,13.168 311.180,13.168 331.200 " stroke="none" fill="#000000" fill-rule="evenodd"></path><path id="path1" d="M89.800 140.599 C 97.170 140.731,109.230 140.731,116.600 140.599 C 123.970 140.467,117.940 140.359,103.200 140.359 C 88.460 140.359,82.430 140.467,89.800 140.599 " stroke="none" fill="#c6c6c6" fill-rule="evenodd"></path><path id="path2" d="M14.133 30.133 C 13.393 30.874,13.459 109.600,14.200 109.600 C 14.530 109.600,14.800 91.600,14.800 69.600 C 14.800 47.600,14.770 29.600,14.733 29.600 C 14.697 29.600,14.427 29.840,14.133 30.133 M272.260 210.126 C 272.549 210.416,272.412 211.104,271.954 211.655 C 271.378 212.350,271.380 212.817,271.961 213.176 C 272.423 213.461,272.800 213.343,272.800 212.913 C 272.800 212.483,273.019 211.561,273.286 210.865 C 273.572 210.120,273.353 209.600,272.752 209.600 C 272.192 209.600,271.970 209.837,272.260 210.126 M14.133 294.133 C 13.393 294.874,13.459 368.800,14.200 368.800 C 14.530 368.800,14.800 351.880,14.800 331.200 C 14.800 310.520,14.770 293.600,14.733 293.600 C 14.697 293.600,14.427 293.840,14.133 294.133 " stroke="none" fill="#d8d8d8" fill-rule="evenodd"></path><path id="path3" d="M35.200 1.575 C 35.200 2.001,35.789 2.124,36.509 1.847 C 37.397 1.507,37.701 1.698,37.453 2.442 C 37.197 3.210,35.965 3.471,33.346 3.310 C 29.667 3.083,27.200 4.301,27.200 6.343 C 27.200 6.814,26.484 7.200,25.609 7.200 C 23.066 7.200,20.776 9.628,21.311 11.757 C 21.650 13.109,21.431 13.600,20.487 13.600 C 19.779 13.600,19.200 13.960,19.200 14.400 C 19.200 14.840,18.660 15.200,18.000 15.200 C 17.253 15.200,16.800 15.956,16.800 17.200 C 16.800 18.300,16.530 19.200,16.200 19.200 C 15.870 19.200,15.600 56.520,15.600 102.133 C 15.600 167.413,15.389 185.136,14.608 185.397 C 13.830 185.657,13.569 177.643,13.400 148.264 C 13.281 127.659,13.103 151.480,13.004 201.200 C 12.901 252.920,13.123 291.128,13.523 290.498 C 15.894 286.754,16.105 290.797,15.853 335.239 C 15.615 377.280,15.683 379.940,17.003 380.285 C 18.563 380.693,18.101 383.247,16.534 382.881 C 16.020 382.760,15.870 382.813,16.200 382.998 C 16.530 383.182,16.800 383.876,16.800 384.538 C 16.800 386.368,27.657 396.800,29.561 396.800 C 30.485 396.800,31.200 397.324,31.200 398.000 C 31.200 398.921,32.222 399.200,35.600 399.200 C 38.020 399.200,40.000 398.930,40.000 398.600 C 39.999 398.270,52.149 398.089,67.000 398.198 C 112.249 398.529,315.253 398.817,314.446 398.548 C 312.467 397.890,314.716 395.942,316.901 396.422 C 318.325 396.735,319.200 396.598,319.200 396.064 C 319.200 395.561,320.870 395.200,323.200 395.200 C 325.400 395.200,327.200 395.560,327.200 396.000 C 327.200 396.440,327.701 396.800,328.314 396.800 C 328.927 396.800,329.636 397.340,329.889 398.000 C 330.191 398.786,331.439 399.200,333.508 399.200 C 335.286 399.200,336.843 399.637,337.070 400.200 C 337.302 400.773,337.501 400.574,337.537 399.733 C 337.572 398.914,338.041 398.428,338.600 398.633 C 339.150 398.835,339.510 399.405,339.400 399.900 C 339.263 400.517,341.579 400.800,346.775 400.800 C 353.170 400.800,354.278 400.614,353.891 399.603 C 353.502 398.589,354.177 398.485,358.316 398.917 C 362.519 399.357,363.200 399.245,363.200 398.114 C 363.200 397.246,363.878 396.800,365.200 396.800 C 366.300 396.800,367.200 396.440,367.200 396.000 C 367.200 395.560,367.870 395.200,368.688 395.200 C 369.506 395.200,370.852 394.300,371.678 393.200 C 372.504 392.100,373.634 391.200,374.190 391.200 C 374.745 391.200,375.200 390.814,375.200 390.343 C 375.200 389.871,375.714 388.971,376.343 388.343 C 376.971 387.714,377.871 387.200,378.343 387.200 C 378.814 387.200,379.200 386.300,379.200 385.200 C 379.200 384.100,379.605 383.200,380.100 383.200 C 380.673 383.200,380.826 382.329,380.520 380.800 C 379.989 378.146,381.973 377.214,382.649 379.800 C 382.850 380.570,383.056 379.850,383.107 378.200 C 383.158 376.550,383.608 375.200,384.107 375.200 C 384.734 375.200,384.894 373.505,384.624 369.729 C 384.244 364.426,385.553 359.806,386.656 362.558 C 386.886 363.131,387.102 362.239,387.137 360.575 C 387.179 358.580,386.792 357.393,386.000 357.089 C 385.185 356.777,384.800 355.500,384.800 353.114 C 384.800 350.512,384.486 349.600,383.591 349.600 C 382.628 349.600,382.485 348.948,382.893 346.400 C 383.314 343.768,383.173 343.200,382.102 343.200 C 381.020 343.200,380.286 341.437,381.000 340.552 C 381.110 340.416,370.310 329.422,357.000 316.121 L 332.800 291.936 332.800 157.568 C 332.800 68.523,332.530 23.200,332.000 23.200 C 331.560 23.200,331.200 21.929,331.200 20.375 C 331.200 18.602,330.753 17.378,330.000 17.089 C 329.340 16.836,328.800 15.922,328.800 15.057 C 328.800 13.358,327.042 11.200,325.657 11.200 C 325.186 11.200,324.800 10.814,324.800 10.343 C 324.800 9.235,322.765 7.200,321.657 7.200 C 321.186 7.200,320.800 6.660,320.800 6.000 C 320.800 5.253,320.044 4.800,318.800 4.800 C 317.700 4.800,316.800 4.393,316.800 3.895 C 316.800 3.300,315.701 3.137,313.600 3.419 C 310.104 3.887,308.741 2.979,310.983 1.673 C 311.960 1.105,269.377 0.841,173.800 0.824 C 84.911 0.809,35.200 1.078,35.200 1.575 M306.400 27.425 C 308.486 29.119,308.190 265.600,306.102 265.600 C 304.897 265.600,304.789 265.377,305.549 264.462 C 306.315 263.539,306.144 263.274,304.647 263.062 C 303.631 262.918,302.800 262.253,302.800 261.585 C 302.800 260.916,301.946 259.476,300.901 258.385 C 299.112 256.514,299.056 256.503,299.929 258.200 C 300.439 259.190,301.204 260.000,301.628 260.000 C 302.053 260.000,302.400 260.360,302.400 260.800 C 302.400 263.359,298.474 260.025,298.425 257.425 C 298.409 256.562,297.971 256.215,297.249 256.492 C 296.595 256.743,295.647 256.213,295.056 255.267 C 294.484 254.350,293.518 253.600,292.910 253.600 C 292.018 253.600,291.996 253.368,292.800 252.400 C 293.616 251.417,293.561 251.200,292.498 251.200 C 291.647 251.200,291.200 250.512,291.200 249.200 C 291.200 248.100,291.560 247.200,292.000 247.200 C 293.416 247.200,292.850 245.603,291.400 245.507 C 290.067 245.419,290.067 245.397,291.400 245.049 C 292.248 244.827,292.800 243.918,292.800 242.741 C 292.800 241.549,293.263 240.800,294.000 240.800 C 294.838 240.800,295.200 239.956,295.200 238.000 C 295.200 236.460,295.560 235.200,296.000 235.200 C 296.440 235.200,296.800 234.851,296.800 234.425 C 296.800 233.999,296.260 233.857,295.600 234.111 C 294.940 234.364,294.400 234.173,294.400 233.686 C 294.400 233.199,294.993 232.800,295.718 232.800 C 296.879 232.800,296.981 231.945,296.574 225.652 C 296.125 218.719,297.496 213.745,298.640 218.158 C 298.846 218.951,299.056 215.889,299.107 211.353 C 299.173 205.485,298.943 203.264,298.311 203.655 C 296.725 204.635,296.310 202.558,296.545 194.807 C 296.685 190.191,296.466 187.200,295.988 187.200 C 295.555 187.200,295.200 185.940,295.200 184.400 C 295.200 182.180,294.884 181.600,293.676 181.600 C 292.360 181.600,292.211 181.164,292.581 178.400 C 292.863 176.299,292.700 175.200,292.105 175.200 C 291.607 175.200,291.200 174.020,291.200 172.578 C 291.200 170.226,288.417 166.393,287.220 167.097 C 287.011 167.219,286.692 166.876,286.511 166.333 C 286.300 165.700,286.653 165.526,287.491 165.847 C 288.211 166.124,288.800 166.001,288.800 165.575 C 288.800 165.149,288.440 164.800,288.000 164.800 C 287.560 164.800,287.200 164.130,287.200 163.312 C 287.200 162.494,286.300 161.148,285.200 160.322 C 284.098 159.495,283.200 158.007,283.200 157.010 C 283.200 155.934,282.713 155.200,282.000 155.200 C 281.340 155.200,280.800 154.660,280.800 154.000 C 280.800 153.340,280.440 152.800,280.000 152.800 C 279.560 152.800,279.200 152.068,279.200 151.174 C 279.200 150.236,278.439 149.242,277.400 148.825 C 276.410 148.427,275.887 148.079,276.238 148.051 C 277.263 147.969,265.847 136.800,264.738 136.800 C 264.186 136.800,263.944 136.590,264.201 136.332 C 264.966 135.568,262.162 132.800,260.622 132.800 C 259.840 132.800,259.200 132.440,259.200 132.000 C 259.200 131.560,258.660 131.200,258.000 131.200 C 257.340 131.200,256.800 130.660,256.800 130.000 C 256.800 129.253,256.044 128.800,254.800 128.800 C 253.700 128.800,252.800 128.411,252.800 127.936 C 252.800 127.393,251.910 127.268,250.400 127.600 C 247.935 128.142,246.758 126.234,249.000 125.330 C 249.597 125.089,249.436 124.901,248.600 124.863 C 247.830 124.828,247.200 124.440,247.200 124.000 C 247.200 123.560,246.339 123.200,245.286 123.200 C 244.233 123.200,243.164 122.660,242.911 122.000 C 242.622 121.247,241.398 120.800,239.625 120.800 C 238.071 120.800,236.800 120.416,236.800 119.946 C 236.800 119.437,235.459 119.195,233.481 119.346 C 230.100 119.605,228.165 118.083,230.956 117.360 C 231.750 117.154,230.489 116.944,228.153 116.893 C 225.278 116.830,224.082 116.515,224.451 115.917 C 224.838 115.291,222.821 115.112,217.498 115.302 C 209.922 115.573,206.112 114.748,209.253 113.518 C 210.104 113.185,206.660 112.912,201.600 112.912 C 196.540 112.912,193.017 113.157,193.771 113.456 C 195.738 114.237,194.270 116.206,191.972 115.870 C 189.681 115.535,189.005 113.866,190.956 113.360 C 192.320 113.006,192.321 112.980,190.975 112.893 C 190.191 112.842,189.343 113.340,189.089 114.000 C 188.759 114.861,187.411 115.200,184.314 115.200 C 181.013 115.200,180.000 115.482,180.000 116.400 C 180.000 117.060,179.421 117.600,178.714 117.600 C 177.900 117.600,177.598 117.160,177.889 116.400 C 178.143 115.740,178.001 115.200,177.575 115.200 C 177.149 115.200,176.800 115.560,176.800 116.000 C 176.800 116.440,175.540 116.800,174.000 116.800 C 172.044 116.800,171.200 117.162,171.200 118.000 C 171.200 118.667,170.489 119.200,169.600 119.200 C 168.711 119.200,168.000 119.733,168.000 120.400 C 168.000 121.060,167.421 121.600,166.714 121.600 C 165.900 121.600,165.598 121.160,165.889 120.400 C 166.143 119.740,166.001 119.200,165.575 119.200 C 165.149 119.200,164.800 119.560,164.800 120.000 C 164.800 120.440,164.069 120.800,163.175 120.800 C 162.281 120.800,161.343 121.340,161.089 122.000 C 160.836 122.660,159.767 123.200,158.714 123.200 C 157.661 123.200,156.800 123.560,156.800 124.000 C 156.800 124.440,156.069 124.800,155.175 124.800 C 154.281 124.800,153.343 125.340,153.089 126.000 C 152.688 127.045,147.272 127.200,111.057 127.200 C 75.171 127.200,69.322 127.364,68.286 128.400 C 67.219 129.467,67.220 129.600,68.296 129.600 C 70.256 129.600,70.710 131.269,68.880 131.747 C 67.620 132.077,67.203 132.814,67.212 134.693 C 67.222 136.606,67.408 136.916,68.000 136.000 C 68.625 135.032,68.778 135.153,68.788 136.625 C 68.795 137.657,69.408 138.638,70.200 138.884 C 70.970 139.122,72.320 139.708,73.200 140.187 C 74.633 140.966,74.685 140.918,73.702 139.729 C 72.682 138.495,74.747 138.400,102.702 138.400 C 128.922 138.400,132.800 138.555,132.800 139.600 C 132.800 140.260,132.380 140.800,131.867 140.800 C 131.353 140.800,131.203 141.069,131.532 141.399 C 131.861 141.728,132.643 141.297,133.268 140.442 C 134.092 139.315,134.647 139.127,135.282 139.762 C 135.916 140.396,135.548 141.321,133.946 143.119 C 131.635 145.712,129.075 146.521,129.889 144.400 C 130.143 143.740,130.001 143.200,129.575 143.200 C 129.149 143.200,128.800 143.940,128.800 144.845 C 128.800 145.775,127.060 148.159,124.800 150.325 C 122.600 152.435,120.800 154.754,120.800 155.480 C 120.800 156.206,120.417 156.800,119.949 156.800 C 119.470 156.800,119.208 157.938,119.349 159.400 C 119.531 161.289,119.272 162.000,118.400 162.000 C 116.669 162.000,115.200 163.626,115.200 165.543 C 115.200 166.540,114.682 167.200,113.898 167.200 C 112.827 167.200,112.686 167.768,113.107 170.400 C 113.515 172.948,113.372 173.600,112.409 173.600 C 111.733 173.600,111.200 174.306,111.200 175.200 C 111.200 176.757,110.667 176.800,91.200 176.800 C 73.956 176.800,71.200 176.965,71.200 178.000 C 71.200 178.660,70.814 179.200,70.343 179.200 C 67.468 179.200,66.059 185.374,68.400 187.714 C 69.060 188.374,70.559 188.799,71.730 188.657 C 73.030 188.500,74.007 188.837,74.237 189.521 C 74.509 190.330,74.138 190.518,72.907 190.196 C 71.968 189.951,71.200 190.076,71.200 190.475 C 71.200 190.885,78.490 191.200,88.000 191.200 C 100.873 191.200,104.815 191.434,104.863 192.200 C 104.914 193.000,105.007 193.000,105.330 192.200 C 105.960 190.639,108.160 190.992,107.828 192.600 C 107.669 193.370,106.900 193.946,106.119 193.881 C 104.794 193.769,104.711 194.962,104.863 211.881 L 105.027 230.000 89.694 230.217 C 74.404 230.434,74.359 230.430,73.631 228.617 C 73.230 227.618,72.879 227.250,72.851 227.800 C 72.823 228.350,72.160 228.800,71.378 228.800 C 70.596 228.800,69.336 229.524,68.578 230.409 C 67.099 232.136,66.677 236.800,68.000 236.800 C 68.440 236.800,68.842 237.790,68.893 239.000 C 68.950 240.354,69.126 240.661,69.351 239.800 C 69.798 238.092,72.000 237.926,72.000 239.600 C 72.000 240.632,74.578 240.800,90.400 240.800 L 108.800 240.800 108.800 242.800 C 108.800 243.973,109.213 244.717,109.800 244.600 C 110.362 244.488,110.911 245.363,111.053 246.600 C 111.192 247.810,111.642 248.800,112.053 248.800 C 112.464 248.800,112.811 250.150,112.824 251.800 C 112.844 254.226,113.005 254.532,113.664 253.400 C 114.872 251.326,116.255 251.673,115.694 253.909 C 115.327 255.374,115.586 255.914,116.811 256.235 C 117.842 256.504,118.241 257.085,117.937 257.875 C 117.649 258.626,116.952 258.904,116.134 258.594 C 114.897 258.126,114.897 258.188,116.143 259.445 C 116.881 260.190,117.871 260.800,118.343 260.800 C 118.814 260.800,119.206 261.790,119.212 263.000 C 119.222 264.714,119.396 264.935,120.000 264.000 C 120.622 263.037,120.778 263.169,120.788 264.669 C 120.797 266.006,121.484 266.797,123.200 267.445 C 124.520 267.943,125.600 268.850,125.600 269.461 C 125.600 270.119,125.111 270.384,124.400 270.111 C 123.740 269.857,123.200 269.845,123.200 270.082 C 123.200 270.847,125.458 272.800,126.343 272.800 C 126.814 272.800,127.200 273.186,127.200 273.657 C 127.200 274.765,129.235 276.800,130.343 276.800 C 130.814 276.800,131.200 277.340,131.200 278.000 C 131.200 279.046,127.238 279.200,100.343 279.200 C 74.667 279.200,69.294 279.392,68.343 280.343 C 66.863 281.823,66.887 282.470,68.400 281.889 C 69.160 281.598,69.600 281.900,69.600 282.714 C 69.600 283.421,69.060 284.000,68.400 284.000 C 67.740 284.000,67.200 284.540,67.200 285.200 C 67.200 285.860,67.754 286.400,68.430 286.400 C 69.295 286.400,69.592 287.054,69.430 288.600 L 69.200 290.800 108.200 291.008 C 133.277 291.141,147.200 291.498,147.200 292.008 C 147.200 292.443,148.100 292.800,149.200 292.800 C 150.300 292.800,151.200 293.186,151.200 293.657 C 151.200 294.129,151.740 295.054,152.400 295.714 C 153.467 296.781,153.600 296.767,153.600 295.590 C 153.600 294.217,155.247 294.244,155.415 295.620 C 155.671 297.715,158.379 299.404,160.729 298.934 C 163.285 298.423,165.004 299.622,162.610 300.247 C 161.834 300.449,162.550 300.656,164.200 300.707 C 166.292 300.772,167.200 301.163,167.200 302.000 C 167.200 302.833,168.037 303.200,169.933 303.200 C 171.437 303.200,172.848 303.650,173.070 304.200 C 173.311 304.797,173.499 304.636,173.537 303.800 C 173.614 302.098,176.000 301.905,176.000 303.600 C 176.000 304.390,176.790 304.800,178.314 304.800 C 179.587 304.800,180.826 305.314,181.067 305.942 C 181.391 306.785,183.382 307.151,188.679 307.342 C 192.624 307.484,195.684 307.330,195.479 307.000 C 195.124 306.430,197.127 306.040,198.764 306.360 C 204.731 307.526,220.801 307.165,220.812 305.865 C 220.823 304.626,220.944 304.585,221.600 305.600 C 222.117 306.400,222.380 306.467,222.388 305.800 C 222.395 305.169,223.580 304.800,225.600 304.800 C 227.360 304.800,228.800 304.440,228.800 304.000 C 228.800 303.560,229.700 303.200,230.800 303.200 C 231.900 303.200,232.800 303.560,232.800 304.000 C 232.800 304.440,233.340 304.800,234.000 304.800 C 234.660 304.800,235.200 305.186,235.200 305.657 C 235.200 306.765,237.235 308.800,238.343 308.800 C 238.814 308.800,239.200 309.186,239.200 309.657 C 239.200 310.765,241.235 312.800,242.343 312.800 C 242.814 312.800,243.200 313.186,243.200 313.657 C 243.200 314.765,245.235 316.800,246.343 316.800 C 246.814 316.800,247.200 317.186,247.200 317.657 C 247.200 318.765,249.235 320.800,250.343 320.800 C 250.814 320.800,251.200 321.186,251.200 321.657 C 251.200 322.765,253.235 324.800,254.343 324.800 C 254.814 324.800,255.200 325.340,255.200 326.000 C 255.200 326.660,255.560 327.200,256.000 327.200 C 256.440 327.200,256.800 327.560,256.800 328.000 C 256.800 328.529,225.333 328.800,164.000 328.800 C 82.044 328.800,71.200 328.940,71.200 330.000 C 71.200 330.660,70.814 331.200,70.343 331.200 C 68.706 331.200,67.200 333.500,67.200 336.000 C 67.200 338.500,68.706 340.800,70.343 340.800 C 70.814 340.800,71.200 341.340,71.200 342.000 C 71.200 343.060,82.933 343.200,172.000 343.200 C 238.667 343.200,272.800 343.471,272.800 344.000 C 272.800 344.440,273.340 344.800,274.000 344.800 C 274.660 344.800,275.200 345.186,275.200 345.657 C 275.200 346.765,277.235 348.800,278.343 348.800 C 278.814 348.800,279.200 349.186,279.200 349.657 C 279.200 350.765,281.235 352.800,282.343 352.800 C 282.814 352.800,283.200 353.186,283.200 353.657 C 283.200 354.765,285.235 356.800,286.343 356.800 C 286.814 356.800,287.200 357.186,287.200 357.657 C 287.200 358.765,289.235 360.800,290.343 360.800 C 290.814 360.800,291.200 361.186,291.200 361.657 C 291.200 362.765,293.235 364.800,294.343 364.800 C 294.814 364.800,295.200 365.186,295.200 365.657 C 295.200 366.765,297.235 368.800,298.343 368.800 C 298.814 368.800,299.200 369.340,299.200 370.000 C 299.200 370.660,299.560 371.200,300.000 371.200 C 300.440 371.200,300.800 371.560,300.800 372.000 C 300.800 372.530,256.933 372.800,170.800 372.800 L 40.800 372.800 40.800 331.200 C 40.800 294.756,40.651 289.600,39.600 289.600 C 38.563 289.600,38.411 286.858,38.480 269.400 C 38.551 251.398,39.248 241.762,40.116 246.800 C 40.268 247.680,40.573 198.900,40.796 138.400 C 41.117 50.999,41.405 28.441,42.200 28.600 C 42.750 28.710,43.200 28.438,43.200 27.995 C 43.200 27.458,86.524 27.259,173.524 27.395 C 245.202 27.508,303.680 27.330,303.476 27.000 C 302.882 26.038,305.086 26.359,306.400 27.425 M262.400 134.800 C 262.400 135.460,261.860 136.000,261.200 136.000 C 260.540 136.000,260.000 135.460,260.000 134.800 C 260.000 134.140,260.540 133.600,261.200 133.600 C 261.860 133.600,262.400 134.140,262.400 134.800 M206.458 138.836 C 206.881 139.097,207.019 139.646,206.766 140.055 C 206.499 140.488,208.638 140.800,211.867 140.800 C 216.073 140.800,217.541 141.093,217.889 142.000 C 218.193 142.792,219.446 143.200,221.575 143.200 C 223.349 143.200,224.800 143.560,224.800 144.000 C 224.800 144.440,225.661 144.800,226.714 144.800 C 227.767 144.800,228.836 145.340,229.089 146.000 C 229.343 146.660,230.251 147.200,231.108 147.200 C 231.965 147.200,232.848 147.650,233.070 148.200 C 233.302 148.773,233.501 148.574,233.537 147.733 C 233.600 146.259,235.217 146.163,235.439 147.620 C 235.742 149.607,237.982 151.135,239.889 150.656 C 241.516 150.248,241.771 150.400,241.341 151.522 C 241.029 152.333,241.140 152.684,241.615 152.391 C 242.053 152.120,242.659 152.551,242.961 153.349 C 243.843 155.677,245.108 156.573,247.086 156.272 C 249.626 155.884,256.289 162.629,255.579 164.867 C 255.139 166.253,256.689 168.800,257.971 168.800 C 259.838 168.800,262.350 171.496,261.471 172.555 C 260.695 173.491,261.031 174.155,263.257 176.083 C 264.766 177.389,265.370 178.226,264.600 177.943 C 263.800 177.649,263.200 177.808,263.200 178.314 C 263.200 178.801,263.560 179.200,264.000 179.200 C 264.440 179.200,264.800 179.931,264.800 180.825 C 264.800 181.719,265.340 182.657,266.000 182.911 C 266.660 183.164,267.200 184.233,267.200 185.286 C 267.200 186.339,267.560 187.200,268.000 187.200 C 268.440 187.200,268.806 188.730,268.812 190.600 C 268.821 193.010,269.041 193.657,269.569 192.823 C 270.895 190.726,271.450 192.653,271.273 198.735 C 271.125 203.802,271.318 204.807,272.568 205.476 C 274.609 206.568,274.492 214.969,272.415 216.488 C 271.249 217.340,271.071 218.501,271.326 223.554 C 271.566 228.301,271.395 229.600,270.530 229.600 C 269.880 229.600,269.617 229.108,269.889 228.400 C 270.143 227.740,270.001 227.200,269.575 227.200 C 269.149 227.200,268.800 228.460,268.800 230.000 C 268.800 231.540,268.440 232.800,268.000 232.800 C 267.560 232.800,267.200 233.149,267.200 233.575 C 267.200 234.001,267.704 234.157,268.319 233.920 C 268.935 233.684,269.691 233.900,270.000 234.399 C 270.332 234.936,269.874 235.487,268.880 235.747 C 267.924 235.997,267.200 236.835,267.200 237.693 C 267.200 238.522,266.660 239.200,266.000 239.200 C 265.253 239.200,264.800 239.956,264.800 241.200 C 264.800 242.300,264.440 243.200,264.000 243.200 C 263.560 243.200,263.200 244.100,263.200 245.200 C 263.200 246.300,262.814 247.200,262.343 247.200 C 261.083 247.200,259.200 249.300,259.200 250.705 C 259.200 252.410,242.677 268.800,240.958 268.800 C 240.117 268.800,239.172 269.805,238.609 271.295 C 237.799 273.441,237.380 273.718,235.616 273.276 C 234.167 272.912,233.427 273.119,233.097 273.980 C 232.839 274.651,232.127 275.200,231.514 275.200 C 230.901 275.200,230.400 275.772,230.400 276.470 C 230.400 277.502,229.818 277.642,227.307 277.218 C 224.622 276.764,224.157 276.913,223.782 278.348 C 223.377 279.897,221.600 280.736,221.600 279.379 C 221.600 279.037,220.160 278.895,218.400 279.063 C 216.640 279.231,215.200 279.690,215.200 280.084 C 215.200 280.478,208.905 280.800,201.200 280.800 C 192.400 280.800,187.200 280.503,187.200 280.000 C 187.200 279.560,185.421 279.200,183.247 279.200 C 181.073 279.200,179.074 278.844,178.806 278.409 C 178.525 277.956,178.847 277.822,179.558 278.095 C 180.241 278.357,180.800 278.173,180.800 277.686 C 180.800 277.199,179.540 276.800,178.000 276.800 C 176.460 276.800,175.200 276.440,175.200 276.000 C 175.200 275.560,174.339 275.200,173.286 275.200 C 172.233 275.200,171.164 274.660,170.911 274.000 C 170.657 273.340,169.719 272.800,168.825 272.800 C 167.931 272.800,167.200 272.440,167.200 272.000 C 167.200 271.560,166.466 271.200,165.568 271.200 C 164.670 271.200,162.566 269.760,160.892 268.000 C 159.218 266.240,157.252 264.800,156.524 264.800 C 155.796 264.800,155.200 264.440,155.200 264.000 C 155.200 263.560,154.660 263.200,154.000 263.200 C 153.340 263.200,152.800 262.814,152.800 262.343 C 152.800 261.235,150.765 259.200,149.657 259.200 C 149.186 259.200,148.800 258.660,148.800 258.000 C 148.800 257.340,148.440 256.800,148.000 256.800 C 147.560 256.800,147.200 256.130,147.200 255.312 C 147.200 254.494,146.300 253.148,145.200 252.322 C 140.618 248.881,141.330 248.800,176.000 248.800 C 197.333 248.800,208.800 248.520,208.800 248.000 C 208.800 247.560,209.700 247.200,210.800 247.200 C 212.044 247.200,212.800 246.747,212.800 246.000 C 212.800 245.340,213.386 244.800,214.102 244.800 C 215.175 244.800,215.314 244.232,214.890 241.580 C 214.493 239.102,214.654 238.252,215.587 237.894 C 216.974 237.362,217.270 233.496,215.900 233.800 C 215.405 233.910,214.835 233.550,214.633 233.000 C 214.428 232.441,214.914 231.972,215.733 231.937 C 216.574 231.901,216.773 231.702,216.200 231.470 C 215.650 231.248,215.200 230.197,215.200 229.133 C 215.200 227.948,214.736 227.200,214.000 227.200 C 213.340 227.200,212.800 226.660,212.800 226.000 C 212.800 225.253,212.044 224.800,210.800 224.800 C 209.700 224.800,208.800 224.440,208.800 224.000 C 208.800 223.478,195.333 223.200,170.000 223.200 L 131.200 223.200 131.200 217.200 L 131.200 211.200 181.200 211.200 C 225.111 211.200,231.200 211.054,231.200 210.000 C 231.200 209.320,231.917 208.800,232.857 208.800 C 234.979 208.800,236.800 206.979,236.800 204.857 C 236.800 203.917,237.320 203.200,238.000 203.200 C 238.934 203.200,239.200 202.131,239.200 198.375 C 239.200 194.824,238.883 193.428,238.000 193.089 C 237.340 192.836,236.800 191.922,236.800 191.057 C 236.800 189.043,234.957 187.200,232.943 187.200 C 232.078 187.200,231.160 186.649,230.901 185.976 C 230.486 184.892,224.915 184.777,182.416 184.976 C 137.134 185.187,134.400 185.120,134.400 183.800 C 134.400 183.030,134.954 182.400,135.630 182.400 C 136.485 182.400,136.790 181.755,136.630 180.284 C 136.344 177.657,138.145 176.819,138.629 179.354 C 138.943 180.994,138.994 180.954,139.091 179.000 C 139.151 177.790,139.560 176.800,140.000 176.800 C 140.440 176.800,140.800 175.900,140.800 174.800 C 140.800 173.700,141.186 172.800,141.657 172.800 C 142.542 172.800,144.800 170.847,144.800 170.082 C 144.800 169.845,144.211 169.876,143.491 170.153 C 142.583 170.501,142.307 170.309,142.591 169.527 C 142.816 168.907,143.405 168.490,143.900 168.600 C 144.395 168.710,144.800 168.440,144.800 168.000 C 144.800 167.560,145.340 167.200,146.000 167.200 C 146.660 167.200,147.200 166.814,147.200 166.343 C 147.200 165.235,149.235 163.200,150.343 163.200 C 150.814 163.200,151.200 162.814,151.200 162.343 C 151.200 161.235,153.235 159.200,154.343 159.200 C 154.814 159.200,155.200 158.814,155.200 158.343 C 155.200 157.271,157.221 155.200,158.268 155.200 C 158.698 155.200,158.857 154.461,158.621 153.559 C 158.247 152.130,158.462 151.985,160.272 152.439 C 162.371 152.966,164.800 151.474,164.800 149.657 C 164.800 149.186,165.700 148.800,166.800 148.800 C 167.900 148.800,168.800 148.440,168.800 148.000 C 168.800 147.560,169.700 147.200,170.800 147.200 C 172.044 147.200,172.800 146.747,172.800 146.000 C 172.800 144.958,175.866 144.274,178.600 144.705 C 178.930 144.757,179.200 144.440,179.200 144.000 C 179.200 143.560,180.460 143.200,182.000 143.200 C 183.540 143.200,184.800 142.851,184.800 142.425 C 184.800 141.999,184.260 141.857,183.600 142.111 C 182.940 142.364,182.400 142.173,182.400 141.686 C 182.400 141.103,184.905 140.800,189.733 140.800 C 193.767 140.800,196.832 140.566,196.546 140.279 C 194.763 138.497,203.785 137.184,206.458 138.836 M278.400 150.867 C 278.400 152.279,276.678 152.033,276.183 150.550 C 276.009 150.028,276.437 149.600,277.133 149.600 C 277.830 149.600,278.400 150.170,278.400 150.867 M123.320 154.800 C 123.320 155.218,122.933 155.689,122.460 155.847 C 121.987 156.004,121.600 155.533,121.600 154.800 C 121.600 154.067,121.987 153.596,122.460 153.753 C 122.933 153.911,123.320 154.382,123.320 154.800 M286.400 162.800 C 286.400 163.460,285.860 164.000,285.200 164.000 C 284.540 164.000,284.000 163.460,284.000 162.800 C 284.000 162.140,284.540 161.600,285.200 161.600 C 285.860 161.600,286.400 162.140,286.400 162.800 M238.400 194.800 C 238.400 195.460,238.061 196.000,237.647 196.000 C 236.638 196.000,235.916 194.751,236.555 194.112 C 237.456 193.211,238.400 193.563,238.400 194.800 M238.400 201.200 C 238.400 201.860,238.061 202.400,237.647 202.400 C 236.638 202.400,235.916 201.151,236.555 200.512 C 237.456 199.611,238.400 199.963,238.400 201.200 M158.400 266.867 C 158.400 268.279,156.678 268.033,156.183 266.550 C 156.009 266.028,156.437 265.600,157.133 265.600 C 157.830 265.600,158.400 266.170,158.400 266.867 M316.563 313.400 C 338.914 335.730,357.740 354.000,358.400 354.000 C 359.060 354.000,359.570 354.630,359.533 355.400 C 359.497 356.170,359.407 359.140,359.333 362.000 C 359.254 365.081,358.851 367.200,358.343 367.200 C 357.395 367.200,355.200 369.175,355.200 370.028 C 355.200 370.327,355.740 370.364,356.400 370.111 C 357.060 369.857,357.600 369.999,357.600 370.425 C 357.600 370.851,356.520 371.200,355.200 371.200 C 353.880 371.200,352.800 371.560,352.800 372.000 C 352.800 372.440,352.098 372.800,351.240 372.800 C 350.382 372.800,349.392 373.289,349.040 373.887 C 348.059 375.555,342.693 376.318,342.137 374.869 C 341.845 374.106,342.299 373.581,343.444 373.359 C 344.479 373.158,343.967 372.973,342.200 372.909 C 340.550 372.849,339.200 372.440,339.200 372.000 C 339.200 371.560,338.660 371.200,338.000 371.200 C 337.340 371.200,336.800 370.814,336.800 370.343 C 336.800 369.235,334.765 367.200,333.657 367.200 C 333.186 367.200,332.800 366.814,332.800 366.343 C 332.800 365.235,330.765 363.200,329.657 363.200 C 329.186 363.200,328.800 362.814,328.800 362.343 C 328.800 361.235,326.765 359.200,325.657 359.200 C 325.186 359.200,324.800 358.814,324.800 358.343 C 324.800 357.235,322.765 355.200,321.657 355.200 C 321.186 355.200,320.800 354.814,320.800 354.343 C 320.800 353.235,318.765 351.200,317.657 351.200 C 317.186 351.200,316.800 350.814,316.800 350.343 C 316.800 349.235,314.765 347.200,313.657 347.200 C 313.186 347.200,312.800 346.814,312.800 346.343 C 312.800 345.235,310.765 343.200,309.657 343.200 C 309.186 343.200,308.800 342.814,308.800 342.343 C 308.800 341.235,306.765 339.200,305.657 339.200 C 305.186 339.200,304.800 338.814,304.800 338.343 C 304.800 337.235,302.765 335.200,301.657 335.200 C 301.186 335.200,300.800 334.814,300.800 334.343 C 300.800 333.235,298.765 331.200,297.657 331.200 C 297.186 331.200,296.800 330.814,296.800 330.343 C 296.800 329.235,294.765 327.200,293.657 327.200 C 293.186 327.200,292.800 326.814,292.800 326.343 C 292.800 325.235,290.765 323.200,289.657 323.200 C 289.186 323.200,288.800 322.814,288.800 322.343 C 288.800 321.235,286.765 319.200,285.657 319.200 C 285.186 319.200,284.800 318.814,284.800 318.343 C 284.800 317.235,282.765 315.200,281.657 315.200 C 281.186 315.200,280.800 314.814,280.800 314.343 C 280.800 313.235,278.765 311.200,277.657 311.200 C 277.186 311.200,276.800 310.814,276.800 310.343 C 276.800 309.235,274.765 307.200,273.657 307.200 C 273.186 307.200,272.800 306.814,272.800 306.343 C 272.800 305.235,270.765 303.200,269.657 303.200 C 269.186 303.200,268.800 302.814,268.800 302.343 C 268.800 301.235,266.765 299.200,265.657 299.200 C 265.186 299.200,264.800 298.814,264.800 298.343 C 264.800 297.235,262.765 295.200,261.657 295.200 C 261.186 295.200,260.800 294.660,260.800 294.000 C 260.800 293.340,260.440 292.800,260.000 292.800 C 259.560 292.800,259.200 292.054,259.200 291.143 C 259.200 289.406,260.923 287.200,262.279 287.200 C 262.716 287.200,263.315 286.097,263.611 284.749 C 263.960 283.163,264.900 281.966,266.275 281.359 C 267.444 280.842,268.855 279.875,269.412 279.210 C 269.968 278.544,270.375 278.360,270.317 278.800 C 270.077 280.607,270.468 280.846,271.681 279.633 C 272.492 278.822,272.787 277.659,272.486 276.460 C 272.173 275.212,272.401 274.417,273.156 274.128 C 273.890 273.846,274.423 274.318,274.641 275.444 C 274.923 276.896,275.001 276.819,275.091 275.000 C 275.245 271.895,272.189 269.065,316.563 313.400 M160.000 297.200 C 160.000 297.860,159.460 298.400,158.800 298.400 C 157.551 298.400,157.213 297.454,158.133 296.533 C 159.054 295.613,160.000 295.951,160.000 297.200 M386.400 359.200 C 386.400 360.080,386.079 360.800,385.686 360.800 C 384.786 360.800,383.948 358.719,384.588 358.078 C 385.551 357.115,386.400 357.641,386.400 359.200 M301.891 374.795 C 301.639 375.453,301.110 375.792,300.716 375.548 C 299.587 374.850,299.881 373.600,301.175 373.600 C 301.889 373.600,302.170 374.069,301.891 374.795 M378.400 385.200 C 378.400 385.860,378.040 386.400,377.600 386.400 C 377.160 386.400,376.800 385.860,376.800 385.200 C 376.800 384.540,377.160 384.000,377.600 384.000 C 378.040 384.000,378.400 384.540,378.400 385.200 M322.400 393.647 C 322.400 394.061,321.860 394.400,321.200 394.400 C 319.963 394.400,319.611 393.456,320.512 392.555 C 321.151 391.916,322.400 392.638,322.400 393.647 M370.400 393.647 C 370.400 394.061,369.860 394.400,369.200 394.400 C 367.963 394.400,367.611 393.456,368.512 392.555 C 369.151 391.916,370.400 392.638,370.400 393.647 " stroke="none" fill="#ffffff" fill-rule="evenodd"></path><path id="path4" d="M35.634 2.345 C 35.088 3.229,36.350 4.184,37.088 3.445 C 37.849 2.684,37.707 1.600,36.847 1.600 C 36.433 1.600,35.887 1.935,35.634 2.345 M310.155 2.112 C 309.557 2.709,310.213 4.000,311.114 4.000 C 311.455 4.000,311.733 3.460,311.733 2.800 C 311.733 1.546,311.028 1.238,310.155 2.112 M19.733 11.733 C 18.813 12.654,19.151 13.600,20.400 13.600 C 21.060 13.600,21.600 13.060,21.600 12.400 C 21.600 11.151,20.654 10.813,19.733 11.733 M304.200 27.264 C 304.970 27.713,305.600 28.602,305.600 29.240 C 305.600 29.878,306.140 30.400,306.800 30.400 C 307.460 30.400,308.000 29.990,308.000 29.488 C 308.000 28.313,305.549 26.451,304.000 26.450 C 303.064 26.449,303.109 26.628,304.200 27.264 M14.985 31.217 C 14.646 31.886,14.466 49.796,14.585 71.017 C 14.703 92.238,14.530 109.600,14.200 109.600 C 13.870 109.600,13.600 126.700,13.600 147.600 C 13.600 182.958,13.935 189.052,15.631 184.600 C 16.282 182.893,15.637 29.927,14.985 31.217 M190.911 114.800 C 190.581 115.658,190.989 116.000,192.340 116.000 C 193.379 116.000,194.436 115.460,194.689 114.800 C 195.019 113.942,194.611 113.600,193.260 113.600 C 192.221 113.600,191.164 114.140,190.911 114.800 M208.967 114.909 C 209.687 115.630,210.844 116.001,211.538 115.735 C 213.713 114.900,212.915 113.600,210.229 113.600 C 207.847 113.600,207.754 113.697,208.967 114.909 M178.133 115.733 C 177.213 116.654,177.551 117.600,178.800 117.600 C 179.460 117.600,180.000 117.060,180.000 116.400 C 180.000 115.151,179.054 114.813,178.133 115.733 M229.800 118.600 C 229.983 119.150,230.731 119.716,231.463 119.858 C 232.392 120.038,232.648 119.735,232.312 118.858 C 231.744 117.379,229.310 117.129,229.800 118.600 M166.133 119.733 C 165.213 120.654,165.551 121.600,166.800 121.600 C 167.460 121.600,168.000 121.060,168.000 120.400 C 168.000 119.151,167.054 118.813,166.133 119.733 M248.000 126.800 C 248.000 127.624,248.524 128.016,249.400 127.848 C 251.086 127.523,250.980 126.103,249.242 125.741 C 248.517 125.590,248.000 126.031,248.000 126.800 M67.200 130.800 C 67.200 131.624,67.724 132.016,68.600 131.848 C 70.286 131.523,70.180 130.103,68.442 129.741 C 67.717 129.590,67.200 130.031,67.200 130.800 M260.000 134.800 C 260.000 135.460,260.540 136.000,261.200 136.000 C 261.860 136.000,262.400 135.460,262.400 134.800 C 262.400 134.140,261.860 133.600,261.200 133.600 C 260.540 133.600,260.000 134.140,260.000 134.800 M197.205 138.895 C 196.061 139.731,195.992 140.031,196.877 140.311 C 198.745 140.901,200.800 140.585,200.800 139.707 C 200.800 139.212,201.185 139.265,201.760 139.840 C 202.897 140.977,206.111 141.116,206.766 140.055 C 207.911 138.203,199.540 137.188,197.205 138.895 M73.156 139.129 C 73.740 140.074,126.689 140.203,130.400 139.269 C 132.177 138.821,122.150 138.534,102.953 138.482 C 84.942 138.433,72.888 138.695,73.156 139.129 M132.000 141.669 C 129.490 144.683,129.164 145.600,130.601 145.600 C 132.095 145.600,136.197 140.966,135.583 139.973 C 134.835 138.763,134.150 139.087,132.000 141.669 M233.600 147.600 C 233.600 148.333,233.987 148.804,234.460 148.647 C 234.933 148.489,235.320 148.018,235.320 147.600 C 235.320 147.182,234.933 146.711,234.460 146.553 C 233.987 146.396,233.600 146.867,233.600 147.600 M276.183 150.550 C 276.678 152.033,278.400 152.279,278.400 150.867 C 278.400 150.170,277.830 149.600,277.133 149.600 C 276.437 149.600,276.009 150.028,276.183 150.550 M239.200 150.772 C 239.200 150.976,239.912 151.525,240.782 151.990 C 242.073 152.681,242.278 152.613,241.896 151.619 C 241.482 150.539,239.200 149.822,239.200 150.772 M158.400 153.175 C 158.400 153.889,158.869 154.170,159.595 153.891 C 160.253 153.639,160.592 153.110,160.348 152.716 C 159.650 151.587,158.400 151.881,158.400 153.175 M121.600 154.800 C 121.600 155.533,121.987 156.004,122.460 155.847 C 122.933 155.689,123.320 155.218,123.320 154.800 C 123.320 154.382,122.933 153.911,122.460 153.753 C 121.987 153.596,121.600 154.067,121.600 154.800 M247.227 156.600 C 247.283 157.868,250.319 160.800,251.575 160.800 C 252.301 160.800,252.672 161.160,252.400 161.600 C 252.128 162.040,252.287 162.400,252.753 162.400 C 253.219 162.400,253.600 162.940,253.600 163.600 C 253.600 164.260,254.140 164.800,254.800 164.800 C 256.790 164.800,256.180 163.447,252.471 159.631 C 249.232 156.298,247.160 155.100,247.227 156.600 M117.927 160.301 C 117.250 162.067,118.151 162.969,119.373 161.747 C 120.095 161.025,120.098 160.578,119.386 159.866 C 118.675 159.155,118.328 159.258,117.927 160.301 M284.000 162.800 C 284.000 163.460,284.540 164.000,285.200 164.000 C 285.860 164.000,286.400 163.460,286.400 162.800 C 286.400 162.140,285.860 161.600,285.200 161.600 C 284.540 161.600,284.000 162.140,284.000 162.800 M286.520 166.360 C 286.864 167.391,287.961 167.577,288.060 166.620 C 288.093 166.301,287.688 165.896,287.160 165.720 C 286.632 165.544,286.344 165.832,286.520 166.360 M142.775 168.840 C 142.015 170.070,143.056 170.864,144.083 169.837 C 144.658 169.262,144.671 168.815,144.125 168.477 C 143.677 168.200,143.070 168.364,142.775 168.840 M259.200 170.029 C 259.200 171.088,261.520 172.777,261.971 172.046 C 262.232 171.625,261.715 170.890,260.822 170.412 C 259.930 169.934,259.200 169.762,259.200 170.029 M111.733 171.733 C 110.813 172.654,111.151 173.600,112.400 173.600 C 113.060 173.600,113.600 173.060,113.600 172.400 C 113.600 171.151,112.654 170.813,111.733 171.733 M136.400 178.400 C 135.817 179.344,136.573 180.800,137.647 180.800 C 138.061 180.800,138.400 180.080,138.400 179.200 C 138.400 177.513,137.236 177.047,136.400 178.400 M292.512 179.755 C 291.611 180.656,291.963 181.600,293.200 181.600 C 293.860 181.600,294.400 181.261,294.400 180.847 C 294.400 179.838,293.151 179.116,292.512 179.755 M134.400 184.000 C 134.400 184.889,134.933 185.600,135.600 185.600 C 136.267 185.600,136.800 184.889,136.800 184.000 C 136.800 183.111,136.267 182.400,135.600 182.400 C 134.933 182.400,134.400 183.111,134.400 184.000 M72.016 188.790 C 71.023 189.404,71.059 189.596,72.257 190.056 C 73.926 190.696,75.016 189.896,73.940 188.820 C 73.486 188.366,72.722 188.354,72.016 188.790 M105.600 192.867 C 105.600 194.816,107.469 194.541,107.859 192.534 C 108.012 191.744,107.604 191.200,106.859 191.200 C 106.117 191.200,105.600 191.884,105.600 192.867 M269.720 192.760 C 269.896 193.288,270.301 193.693,270.620 193.660 C 271.577 193.561,271.391 192.464,270.360 192.120 C 269.832 191.944,269.544 192.232,269.720 192.760 M236.555 194.112 C 235.916 194.751,236.638 196.000,237.647 196.000 C 238.061 196.000,238.400 195.460,238.400 194.800 C 238.400 193.563,237.456 193.211,236.555 194.112 M296.012 200.600 C 296.019 201.370,296.364 202.537,296.779 203.193 C 297.849 204.886,299.269 203.237,298.680 200.986 C 298.130 198.880,295.994 198.571,296.012 200.600 M236.555 200.512 C 235.916 201.151,236.638 202.400,237.647 202.400 C 238.061 202.400,238.400 201.860,238.400 201.200 C 238.400 199.963,237.456 199.611,236.555 200.512 M271.200 206.029 C 271.200 208.094,273.323 209.876,273.922 208.314 C 274.591 206.572,274.584 206.555,272.800 205.600 C 271.509 204.909,271.200 204.992,271.200 206.029 M272.824 212.247 C 272.811 213.043,272.440 213.472,272.000 213.200 C 271.546 212.920,271.200 213.592,271.200 214.753 C 271.200 217.203,272.410 217.423,273.606 215.189 C 274.194 214.090,274.211 213.138,273.658 212.189 C 272.898 210.885,272.847 210.889,272.824 212.247 M296.982 217.738 C 295.571 219.149,295.695 222.467,297.138 221.913 C 298.612 221.347,299.107 219.960,298.471 218.178 C 298.070 217.055,297.758 216.962,296.982 217.738 M73.764 228.661 C 74.172 230.780,105.045 230.694,105.453 228.572 C 105.710 227.238,104.676 227.150,89.617 227.233 C 75.012 227.314,73.530 227.447,73.764 228.661 M270.112 227.755 C 269.211 228.656,269.563 229.600,270.800 229.600 C 271.460 229.600,272.000 229.261,272.000 228.847 C 272.000 227.838,270.751 227.116,270.112 227.755 M214.553 232.860 C 214.711 233.333,215.182 233.720,215.600 233.720 C 216.018 233.720,216.489 233.333,216.647 232.860 C 216.804 232.387,216.333 232.000,215.600 232.000 C 214.867 232.000,214.396 232.387,214.553 232.860 M267.567 234.453 C 266.831 235.645,267.684 236.292,269.216 235.704 C 269.923 235.433,270.277 234.849,270.003 234.406 C 269.355 233.356,268.231 233.378,267.567 234.453 M214.933 238.133 C 213.959 239.108,214.382 240.800,215.600 240.800 C 216.267 240.800,216.800 240.089,216.800 239.200 C 216.800 237.606,215.948 237.119,214.933 238.133 M69.600 239.600 C 69.600 240.260,70.140 240.800,70.800 240.800 C 71.460 240.800,72.000 240.260,72.000 239.600 C 72.000 238.940,71.460 238.400,70.800 238.400 C 70.140 238.400,69.600 238.940,69.600 239.600 M38.933 247.937 C 37.744 253.878,38.317 289.600,39.600 289.600 C 40.637 289.600,40.792 286.803,40.744 269.000 C 40.689 248.883,40.104 242.080,38.933 247.937 M114.133 252.533 C 113.213 253.454,113.551 254.400,114.800 254.400 C 115.460 254.400,116.000 253.860,116.000 253.200 C 116.000 251.951,115.054 251.613,114.133 252.533 M292.772 253.387 C 293.417 253.641,294.608 254.602,295.420 255.524 C 296.868 257.169,296.870 257.160,295.555 255.000 C 294.819 253.790,293.627 252.828,292.908 252.863 C 291.844 252.915,291.819 253.012,292.772 253.387 M115.467 257.166 C 115.467 258.714,117.356 259.389,117.879 258.028 C 118.348 256.805,117.761 256.000,116.400 256.000 C 115.887 256.000,115.467 256.525,115.467 257.166 M298.425 258.200 C 298.471 259.270,300.374 261.194,301.603 261.412 C 302.368 261.547,302.163 261.078,301.034 260.111 C 300.063 259.279,299.493 258.374,299.767 258.099 C 300.042 257.825,299.847 257.600,299.333 257.600 C 298.820 257.600,298.411 257.870,298.425 258.200 M305.593 264.409 C 304.770 265.400,304.889 265.600,306.302 265.600 C 307.236 265.600,308.000 265.261,308.000 264.847 C 308.000 263.461,306.592 263.205,305.593 264.409 M156.183 266.550 C 156.678 268.033,158.400 268.279,158.400 266.867 C 158.400 266.170,157.830 265.600,157.133 265.600 C 156.437 265.600,156.009 266.028,156.183 266.550 M123.383 268.950 C 123.878 270.433,125.600 270.679,125.600 269.267 C 125.600 268.570,125.030 268.000,124.333 268.000 C 123.637 268.000,123.209 268.428,123.383 268.950 M235.567 272.053 C 235.277 272.522,235.240 273.107,235.485 273.352 C 236.144 274.010,238.400 272.983,238.400 272.025 C 238.400 270.939,236.242 270.961,235.567 272.053 M272.807 274.388 C 271.865 274.976,271.820 275.340,272.593 276.113 C 273.759 277.279,274.650 276.625,274.271 274.884 C 274.078 273.999,273.657 273.857,272.807 274.388 M228.000 276.400 C 227.168 277.403,227.283 277.600,228.702 277.600 C 229.678 277.600,230.400 277.090,230.400 276.400 C 230.400 275.740,230.084 275.200,229.698 275.200 C 229.312 275.200,228.548 275.740,228.000 276.400 M221.867 278.822 C 221.867 280.205,223.333 280.000,223.817 278.550 C 223.991 278.028,223.623 277.600,223.000 277.600 C 222.377 277.600,221.867 278.150,221.867 278.822 M269.040 279.417 C 268.688 279.976,267.410 280.868,266.200 281.400 C 264.154 282.298,263.078 284.800,264.738 284.800 C 265.655 284.800,269.928 280.484,270.200 279.282 C 270.470 278.091,269.827 278.166,269.040 279.417 M67.733 282.133 C 66.813 283.054,67.151 284.000,68.400 284.000 C 69.060 284.000,69.600 283.460,69.600 282.800 C 69.600 281.551,68.654 281.213,67.733 282.133 M67.711 287.600 C 67.964 288.260,68.493 288.800,68.886 288.800 C 69.279 288.800,69.600 288.260,69.600 287.600 C 69.600 286.940,69.071 286.400,68.425 286.400 C 67.709 286.400,67.430 286.869,67.711 287.600 M13.600 291.133 C 13.600 292.116,14.117 292.800,14.859 292.800 C 15.604 292.800,16.012 292.256,15.859 291.466 C 15.469 289.459,13.600 289.184,13.600 291.133 M14.886 294.865 C 14.023 297.113,14.328 367.200,15.200 367.200 C 15.722 367.200,16.000 354.400,16.000 330.400 C 16.000 310.160,15.859 293.600,15.686 293.600 C 15.513 293.600,15.153 294.169,14.886 294.865 M153.600 295.600 C 153.600 296.333,153.987 296.804,154.460 296.647 C 154.933 296.489,155.320 296.018,155.320 295.600 C 155.320 295.182,154.933 294.711,154.460 294.553 C 153.987 294.396,153.600 294.867,153.600 295.600 M158.133 296.533 C 157.213 297.454,157.551 298.400,158.800 298.400 C 159.460 298.400,160.000 297.860,160.000 297.200 C 160.000 295.951,159.054 295.613,158.133 296.533 M173.600 303.600 C 173.600 304.260,174.140 304.800,174.800 304.800 C 175.460 304.800,176.000 304.260,176.000 303.600 C 176.000 302.940,175.460 302.400,174.800 302.400 C 174.140 302.400,173.600 302.940,173.600 303.600 M196.400 306.444 C 194.979 307.016,194.962 307.094,196.247 307.144 C 197.043 307.175,197.488 307.534,197.235 307.943 C 196.467 309.186,205.722 308.806,207.546 307.519 C 209.063 306.449,208.802 306.368,204.384 306.538 C 201.736 306.639,199.216 306.515,198.784 306.261 C 198.353 306.008,197.280 306.090,196.400 306.444 M382.400 348.425 C 382.400 349.719,383.650 350.013,384.348 348.884 C 384.592 348.490,384.253 347.961,383.595 347.709 C 382.869 347.430,382.400 347.711,382.400 348.425 M357.600 355.000 C 357.600 355.848,358.151 356.533,358.833 356.533 C 360.268 356.533,360.077 354.291,358.600 353.800 C 358.032 353.611,357.600 354.129,357.600 355.000 M384.588 358.078 C 383.948 358.719,384.786 360.800,385.686 360.800 C 386.079 360.800,386.400 360.080,386.400 359.200 C 386.400 357.641,385.551 357.115,384.588 358.078 M384.831 363.542 C 384.069 364.966,383.973 365.893,384.530 366.450 C 385.862 367.782,387.585 365.114,386.689 363.106 C 385.970 361.495,385.920 361.507,384.831 363.542 M300.000 374.353 C 300.000 375.694,301.419 376.026,301.891 374.795 C 302.170 374.069,301.889 373.600,301.175 373.600 C 300.529 373.600,300.000 373.939,300.000 374.353 M342.111 374.800 C 342.364 375.460,343.073 376.000,343.686 376.000 C 344.299 376.000,344.800 375.460,344.800 374.800 C 344.800 374.140,344.092 373.600,343.225 373.600 C 342.154 373.600,341.797 373.984,342.111 374.800 M380.153 379.260 C 380.311 379.733,380.782 380.120,381.200 380.120 C 381.618 380.120,382.089 379.733,382.247 379.260 C 382.404 378.787,381.933 378.400,381.200 378.400 C 380.467 378.400,379.996 378.787,380.153 379.260 M15.467 381.166 C 15.467 382.714,17.356 383.389,17.879 382.028 C 18.348 380.805,17.761 380.000,16.400 380.000 C 15.887 380.000,15.467 380.525,15.467 381.166 M376.800 385.200 C 376.800 385.860,377.160 386.400,377.600 386.400 C 378.040 386.400,378.400 385.860,378.400 385.200 C 378.400 384.540,378.040 384.000,377.600 384.000 C 377.160 384.000,376.800 384.540,376.800 385.200 M320.512 392.555 C 319.611 393.456,319.963 394.400,321.200 394.400 C 321.860 394.400,322.400 394.061,322.400 393.647 C 322.400 392.638,321.151 391.916,320.512 392.555 M314.088 397.258 C 313.752 398.135,314.008 398.438,314.937 398.258 C 315.669 398.116,316.417 397.550,316.600 397.000 C 317.090 395.529,314.656 395.779,314.088 397.258 M39.622 399.030 C 39.405 399.597,39.671 400.229,40.213 400.436 C 42.759 401.404,308.272 400.384,308.598 399.405 C 309.096 397.911,40.196 397.536,39.622 399.030 M337.600 399.600 C 337.600 400.333,337.987 400.804,338.460 400.647 C 338.933 400.489,339.320 400.018,339.320 399.600 C 339.320 399.182,338.933 398.711,338.460 398.553 C 337.987 398.396,337.600 398.867,337.600 399.600 M353.600 399.153 C 353.600 400.539,355.008 400.795,356.007 399.591 C 356.830 398.600,356.711 398.400,355.298 398.400 C 354.364 398.400,353.600 398.739,353.600 399.153 " stroke="none" fill="#cfcfcf" fill-opacity="0.5" fill-rule="evenodd"></path></g></svg>