<svg id="svg" version="1.1" width="400" height="450" xmlns="http://www.w3.org/2000/svg" xmlns:xlink="http://www.w3.org/1999/xlink" style="display: block;"><g id="svgg"><path id="path0" d="M302.200 78.999 C 311.110 79.128,325.690 79.128,334.600 78.999 C 343.510 78.870,336.220 78.765,318.400 78.765 C 300.580 78.765,293.290 78.870,302.200 78.999 M282.594 221.800 C 282.701 299.350,282.880 339.940,282.993 312.000 C 283.540 176.987,283.542 80.800,283.000 80.800 C 282.670 80.800,282.487 144.250,282.594 221.800 M193.453 166.999 C 201.952 167.129,215.632 167.129,223.853 166.999 C 232.074 166.869,225.120 166.763,208.400 166.763 C 191.680 166.763,184.954 166.869,193.453 166.999 M174.592 267.800 C 174.697 322.250,174.877 350.780,174.991 331.200 C 175.539 237.213,175.543 168.800,175.000 168.800 C 174.670 168.800,174.486 213.350,174.592 267.800 M89.453 230.999 C 97.952 231.129,111.632 231.129,119.853 230.999 C 128.074 230.869,121.120 230.763,104.400 230.763 C 87.680 230.763,80.954 230.869,89.453 230.999 M70.588 301.800 C 70.692 339.750,70.871 359.640,70.987 346.000 C 71.538 281.089,71.544 232.800,71.000 232.800 C 70.670 232.800,70.485 263.850,70.588 301.800 " stroke="none" fill="#a3a3a3" fill-rule="evenodd"></path><path id="path1" d="M282.893 79.049 C 282.365 79.904,284.767 82.234,285.523 81.600 C 285.785 81.380,286.091 144.470,286.202 221.800 C 286.420 373.393,286.655 363.072,283.000 362.495 C 282.670 362.443,282.400 362.745,282.400 363.167 C 282.400 364.556,349.452 364.262,350.846 362.868 C 352.272 361.442,352.616 78.400,351.191 78.400 C 350.756 78.400,350.443 78.670,350.495 79.000 C 350.901 81.575,350.600 81.600,318.652 81.600 C 287.621 81.600,286.863 81.562,285.136 79.940 C 284.154 79.017,283.158 78.621,282.893 79.049 M174.893 167.049 C 174.411 167.829,176.646 170.168,177.523 169.800 C 177.785 169.690,178.091 213.880,178.203 268.000 C 178.422 373.965,178.646 367.070,175.000 366.495 C 174.670 366.443,174.400 366.745,174.400 367.166 C 174.400 368.553,237.453 368.261,238.847 366.867 C 240.271 365.443,240.609 166.400,239.188 166.400 C 238.755 166.400,238.443 166.670,238.495 167.000 C 238.901 169.571,238.564 169.600,208.652 169.600 C 179.645 169.600,178.859 169.559,177.136 167.940 C 176.154 167.017,175.158 166.621,174.893 167.049 M70.893 231.049 C 70.365 231.904,72.767 234.234,73.523 233.600 C 73.785 233.380,74.092 264.070,74.204 301.800 C 74.424 375.546,74.633 371.068,71.000 370.495 C 70.670 370.443,70.400 370.745,70.400 371.166 C 70.400 372.555,133.453 372.261,134.849 370.865 C 136.269 369.445,136.599 230.400,135.183 230.400 C 134.752 230.400,134.443 230.670,134.495 231.000 C 134.901 233.571,134.564 233.600,104.652 233.600 C 75.645 233.600,74.859 233.559,73.136 231.940 C 72.154 231.017,71.158 230.621,70.893 231.049 M351.604 363.995 C 350.806 364.878,350.414 365.600,350.733 365.600 C 351.577 365.600,353.857 363.190,353.424 362.757 C 353.222 362.555,352.403 363.112,351.604 363.995 M239.604 367.995 C 238.806 368.878,238.414 369.600,238.733 369.600 C 239.577 369.600,241.857 367.190,241.424 366.757 C 241.222 366.555,240.403 367.112,239.604 367.995 M135.604 371.995 C 134.806 372.878,134.414 373.600,134.733 373.600 C 135.577 373.600,137.857 371.190,137.424 370.757 C 137.222 370.555,136.403 371.112,135.604 371.995 " stroke="none" fill="#a7a7a7" fill-rule="evenodd"></path><path id="path2" d="M353.191 222.000 C 353.191 299.440,353.285 331.001,353.400 292.137 C 353.515 253.272,353.515 189.912,353.400 151.337 C 353.285 112.761,353.191 144.560,353.191 222.000 M241.188 268.000 C 241.188 322.340,241.283 344.570,241.400 317.400 C 241.517 290.230,241.517 245.770,241.400 218.600 C 241.283 191.430,241.188 213.660,241.188 268.000 M137.182 302.000 C 137.183 339.840,137.280 355.203,137.400 336.140 C 137.519 317.077,137.519 286.117,137.400 267.340 C 137.280 248.563,137.182 264.160,137.182 302.000 M302.200 365.399 C 311.110 365.528,325.690 365.528,334.600 365.399 C 343.510 365.270,336.220 365.165,318.400 365.165 C 300.580 365.165,293.290 365.270,302.200 365.399 M193.453 369.399 C 201.952 369.529,215.632 369.529,223.853 369.399 C 232.074 369.269,225.120 369.163,208.400 369.163 C 191.680 369.163,184.954 369.269,193.453 369.399 M89.453 373.399 C 97.952 373.529,111.632 373.529,119.853 373.399 C 128.074 373.269,121.120 373.163,104.400 373.163 C 87.680 373.163,80.954 373.269,89.453 373.399 " stroke="none" fill="#a5a5a5" fill-rule="evenodd"></path><path id="path3" d="M285.790 80.000 C 286.139 81.810,350.400 82.235,350.400 80.427 C 350.400 79.395,346.063 79.206,317.980 79.018 C 289.514 78.827,285.587 78.946,285.790 80.000 M351.996 79.800 C 351.993 80.130,351.995 143.694,352.000 221.053 C 352.008 343.085,351.855 361.860,350.845 362.870 C 349.862 363.852,344.550 364.026,316.742 363.982 C 298.625 363.954,283.622 364.112,283.401 364.332 C 282.487 365.247,350.600 364.830,351.703 363.914 C 352.788 363.014,353.474 79.200,352.391 79.200 C 352.176 79.200,351.998 79.470,351.996 79.800 M284.200 81.375 C 282.201 82.092,282.799 362.400,284.800 362.400 C 286.458 362.400,287.455 82.291,285.800 81.355 C 285.470 81.169,284.750 81.177,284.200 81.375 M177.790 168.000 C 178.139 169.809,238.400 170.235,238.400 168.428 C 238.400 167.398,234.286 167.208,207.980 167.019 C 181.292 166.827,177.587 166.947,177.790 168.000 M239.994 167.800 C 239.990 168.130,239.993 212.793,240.000 267.051 C 240.011 352.433,239.855 365.859,238.846 366.869 C 237.862 367.853,232.834 368.027,206.743 367.981 C 189.728 367.951,175.626 368.108,175.405 368.328 C 174.489 369.244,238.599 368.831,239.704 367.914 C 240.789 367.014,241.469 167.200,240.388 167.200 C 240.175 167.200,239.997 167.470,239.994 167.800 M176.200 169.375 C 174.203 170.091,174.800 366.400,176.800 366.400 C 178.458 366.400,179.453 170.290,177.800 169.355 C 177.470 169.169,176.750 169.177,176.200 169.375 M73.790 232.000 C 74.139 233.809,134.400 234.235,134.400 232.428 C 134.400 231.398,130.286 231.208,103.980 231.019 C 77.292 230.827,73.587 230.947,73.790 232.000 M135.991 231.800 C 135.987 232.130,135.990 263.292,136.000 301.049 C 136.015 360.214,135.856 369.859,134.848 370.866 C 133.861 371.853,128.863 372.027,102.743 371.981 C 85.728 371.951,71.626 372.108,71.405 372.328 C 70.487 373.246,134.599 372.831,135.706 371.912 C 136.789 371.013,137.461 231.200,136.383 231.200 C 136.172 231.200,135.996 231.470,135.991 231.800 M72.200 233.375 C 70.205 234.090,70.802 370.400,72.800 370.400 C 74.458 370.400,75.451 234.289,73.800 233.355 C 73.470 233.169,72.750 233.177,72.200 233.375 " stroke="none" fill="#a6a6a6" fill-rule="evenodd"></path><path id="path4" d="M353.991 221.600 C 353.991 299.260,354.085 331.030,354.200 292.200 C 354.315 253.370,354.315 189.830,354.200 151.000 C 354.085 112.170,353.991 143.940,353.991 221.600 M241.988 267.600 C 241.988 322.160,242.083 344.362,242.200 316.938 C 242.317 289.514,242.317 244.874,242.200 217.738 C 242.083 190.602,241.988 213.040,241.988 267.600 M137.983 301.600 C 137.983 339.660,138.080 355.230,138.200 336.200 C 138.319 317.170,138.319 286.030,138.200 267.000 C 138.080 247.970,137.983 263.540,137.983 301.600 " stroke="none" fill="#aaaaaa" fill-rule="evenodd"></path></g></svg>