<svg xmlns="http://www.w3.org/2000/svg" xmlns:xlink="http://www.w3.org/1999/xlink" version="1.1" baseProfile="tiny" x="0px" y="0px" viewBox="0 0 100 100" xml:space="preserve"><g><path fill-rule="evenodd" fill="#000000" d="M69.162,26.365l-0.259,0.24L26.6,68.907c-0.497,0.498-0.855,0.955-1.095,1.375   c-4.079-5.275-6.466-12-6.466-19.4c0-17.594,13.252-30.964,30.842-30.964C57.263,19.918,63.909,22.287,69.162,26.365z    M31.874,76.406c0.378-0.234,0.776-0.574,1.213-1.014l42.303-42.302l0.08-0.08c3.482,5.035,5.492,11.203,5.492,17.988   C80.961,68.569,67.57,82.08,50,82.08C43.135,82.08,36.908,80.01,31.874,76.406z M11,50.999c0,21.55,17.469,38.999,39,38.999   c21.53,0,39-17.449,39-38.999S71.53,12,50,12C28.469,12,11,29.449,11,50.999z"></path></g></svg>