<?xml version="1.0" encoding="UTF-8" standalone="no"?>
<svg width="29px" height="28px" viewBox="0 0 29 28" version="1.1" xmlns="http://www.w3.org/2000/svg" xmlns:xlink="http://www.w3.org/1999/xlink" xmlns:sketch="http://www.bohemiancoding.com/sketch/ns">
    <!-- Generator: Sketch 3.5.2 (25235) - http://www.bohemiancoding.com/sketch -->
    <title>noun_251438</title>
    <desc>Created with Sketch.</desc>
    <defs></defs>
    <g id="Page-1" stroke="none" stroke-width="1" fill="none" fill-rule="evenodd" sketch:type="MSPage">
        <g id="noun_251438" sketch:type="MSLayerGroup" fill="#FFFFFF">
            <g id="Group" sketch:type="MSShapeGroup">
                <g id="Shape">
                    <path d="M8,9 L8,0 L21,0 L21,8 L29,8 L29,28 L20.5,28 L8.5,28 L0,28 L0,9 L8,9 L8,9 Z M8,10 L8,12 L1,12 L1,10 L8,10 L8,10 Z M8,13 L8,15 L1,15 L1,13 L8,13 L8,13 Z M8,16 L8,18 L1,18 L1,16 L8,16 L8,16 Z M8,19 L8,21 L1,21 L1,19 L8,19 L8,19 Z M8,22 L8,24 L1,24 L1,22 L8,22 L8,22 Z M8,25 L8,27 L1,27 L1,25 L8,25 L8,25 Z M17,1 L15,1 L15,27 L17,27 L17,1 L17,1 Z M18,1 L20,1 L20,27 L18,27 L18,1 L18,1 Z M14,1 L12,1 L12,27 L14,27 L14,1 L14,1 Z M11,1 L9,1 L9,27 L11,27 L11,1 L11,1 Z M21,9 L28,9 L28,27 L21,27 L21,9 L21,9 Z M23,11 L24,11 L24,13 L23,13 L23,11 L23,11 Z M25,11 L26,11 L26,13 L25,13 L25,11 L25,11 Z M23,19 L24,19 L24,21 L23,21 L23,19 L23,19 Z M25,19 L26,19 L26,21 L25,21 L25,19 L25,19 Z M23,15 L24,15 L24,17 L23,17 L23,15 L23,15 Z M25,15 L26,15 L26,17 L25,17 L25,15 L25,15 Z M23,23 L24,23 L24,25 L23,25 L23,23 L23,23 Z M25,23 L26,23 L26,25 L25,25 L25,23 L25,23 Z"></path>
                </g>
            </g>
        </g>
    </g>
</svg>