<svg xmlns="http://www.w3.org/2000/svg" xmlns:xlink="http://www.w3.org/1999/xlink" version="1.0" x="0px" y="0px" viewBox="0 0 100 100" enable-background="new 0 0 100 100" xml:space="preserve"><g><g display="none"><path display="inline" d="M84.4,25H15.6c-1.7,0-3.1-1.4-3.1-3.1v0c0-1.7,1.4-3.1,3.1-3.1h68.8c1.7,0,3.1,1.4,3.1,3.1v0    C87.5,23.6,86.1,25,84.4,25z"></path><path display="inline" d="M84.4,53.1H71.9c-1.7,0-3.1-1.4-3.1-3.1v0c0-1.7,1.4-3.1,3.1-3.1h12.5c1.7,0,3.1,1.4,3.1,3.1v0    C87.5,51.7,86.1,53.1,84.4,53.1z"></path><path display="inline" d="M15.6,81.2h68.8c1.7,0,3.1-1.4,3.1-3.1l0,0c0-1.7-1.4-3.1-3.1-3.1H15.6c-1.7,0-3.1,1.4-3.1,3.1l0,0    C12.5,79.9,13.9,81.2,15.6,81.2z"></path><path display="inline" d="M15.6,53.1h40.6c1.7,0,3.1-1.4,3.1-3.1v0c0-1.7-1.4-3.1-3.1-3.1H15.6c-1.7,0-3.1,1.4-3.1,3.1v0    C12.5,51.7,13.9,53.1,15.6,53.1z"></path></g><g display="none"><path display="inline" d="M49.5,85.8c-0.7,0-1.4-0.3-1.9-0.8c-1.4-1.4-33.9-34-33.9-52.1c0-11.9,7.7-19.9,19.1-19.9    c6.2,0,11.4,2.3,15,6.1c1.2,1.3,3.2,1.3,4.3,0c3.6-3.8,8.8-6.1,15-6.1c11.7,0,19.9,8.5,19.9,20.7c0,7.5-6.1,18.4-18.1,32.6    C60.3,76.5,51.5,84.9,51.4,85C50.9,85.5,50.2,85.8,49.5,85.8z M32.8,18.4c-8.4,0-13.7,5.5-13.7,14.5c0,11.5,17.9,33,28.4,44.2    c1.1,1.2,3.1,1.2,4.2,0.1c11-11.1,29.9-32.5,29.9-43.4c0-9.3-5.7-15.2-14.5-15.2c-8.5,0-14.4,5.5-14.5,13.5c0,1.5-1.1,2.8-2.6,2.9    c-1.6,0.1-2.9-1.2-2.9-2.7C47.3,24,41.3,18.4,32.8,18.4z"></path></g><g display="none"><g display="inline"><path d="M43,90.4c-0.5,0-1-0.1-1.4-0.4c-1.1-0.6-1.8-1.9-1.7-3.1l1.6-20c0.1-1.7,1.6-3,3.4-2.9c1.7,0.1,3,1.6,2.9,3.4l-0.4,4.7     c-0.1,0.8,1,1.2,1.4,0.5l15.9-24.6c0.3-0.5,0-1.2-0.7-1.2H53.2c-0.5,0-1.1-0.1-1.5-0.4c-1.2-0.6-1.8-1.9-1.6-3.2l1.8-14.5     c0.1-0.8-1-1.2-1.4-0.5L35.6,50.3c-0.3,0.5,0,1.2,0.6,1.2h8.9c1.6,0,3.1,1.2,3.2,2.8c0.2,1.9-1.3,3.4-3.1,3.4H29     c-0.8,0-1.6-0.3-2.2-0.8c-1.2-1.1-1.3-2.8-0.5-4l28.1-41.7c0.7-1,1.9-1.6,3.1-1.4c1.7,0.3,2.9,1.8,2.7,3.5l-3.5,27.3H71     c0.8,0,1.6,0.3,2.2,0.8c1.2,1.1,1.3,2.8,0.5,4L45.6,89C45,89.9,44,90.4,43,90.4z"></path></g></g><g display="none"><path display="inline" d="M89.8,85.5L67.4,61.8c-1.3,1.6-2.8,3.1-4.4,4.5l22.4,23.4c1.3,1.3,3.4,1.2,4.5-0.2    C90.9,88.3,90.8,86.6,89.8,85.5z"></path><path display="inline" d="M62.6,59.1c-5.2,6.3-13.3,10.1-22.1,9.6C26.9,67.8,16,56.5,15.6,42.9c-0.4-15.5,12.5-28.1,28.1-27.2    c12.8,0.7,23.4,10.8,24.8,23.5c0.4,3.9,0,7.7-1.1,11.1c-0.4,1.1-0.1,2.3,0.7,3.1l0,0c1.6,1.7,4.5,1.1,5.2-1.1    c1.3-3.9,1.8-8.1,1.5-12.5C73.7,23.4,60.3,10.2,43.8,9.4c-18.6-0.9-34,13.7-34.4,32C9,59.2,23.2,74.3,41,75    c11,0.4,20.9-4.6,27.1-12.6L64.9,59C64.3,58.4,63.2,58.4,62.6,59.1z"></path></g><g display="none"><g display="inline"><g><path d="M56.6,81.2c-0.7,0-1.3,0.4-1.8,0.9c-1.1,1.4-2.9,2.3-4.8,2.3s-3.7-0.9-4.8-2.3c-0.4-0.5-1.1-0.9-1.8-0.9      c-0.7,0-1.4,0-2.1,0c-1.8,0-2.9,1.9-2,3.4c2.2,3.6,6.1,6,10.7,6s8.5-2.4,10.7-6c0.9-1.5-0.2-3.5-2-3.4      C58,81.2,57.3,81.2,56.6,81.2z"></path></g><path d="M74.9,60.5L74.9,60.5l-0.2-0.1c-0.7-0.5-5.2-4.3-5.2-20.6c0-5.6-0.9-10.1-2.8-13.4c-1-1.8-3.6-2.2-5-0.6c0,0,0,0,0,0.1     c-0.9,1-1,2.5-0.4,3.7c1.3,2.2,1.9,5.5,1.9,10.3c0,20.7,6.9,25.3,8.8,26.2c2.2,1.2,2.2,2.2,2.2,2.7c0,0.4-0.4,1.3-0.7,1.6     c0,0-3.7,1.5-23.5,1.5c-20.2,0-23.5-1.5-23.5-1.5c-0.3-0.3-0.7-1.2-0.7-1.6c0-0.5,0-1.5,2.2-2.7c1.6-0.8,7.9-5.4,7.9-26.2     C35.9,30.4,38.2,25,50,25c3.6,0,6.8-2.1,8.3-5.1c-2.4-0.7-5.2-1.1-8.3-1.1c-13.9,0-20.3,6.7-20.3,21.1c0,16.8-4.3,20.4-4.6,20.7     c-3.7,2-5.5,4.8-5.5,8.2c0,2.5,1.5,6.2,4.5,7.4c1.7,1.2,6.5,2,26,2s24.4-0.8,26-2c2.9-1.2,4.5-4.9,4.5-7.4     C80.5,65.3,78.6,62.5,74.9,60.5z"></path><path d="M50,12.5c1.7,0,3.1,1.4,3.1,3.1s-1.4,3.1-3.1,3.1s-3.1-1.4-3.1-3.1S48.3,12.5,50,12.5 M50,6.2c-5.2,0-9.4,4.2-9.4,9.4     S44.8,25,50,25s9.4-4.2,9.4-9.4S55.2,6.2,50,6.2L50,6.2z"></path></g></g><g display="none"><g display="inline"><path d="M71.9,85.9c-0.7,0-1.5-0.3-2.1-0.8L55.9,72.7c-0.6-0.5-1.3-0.8-2.1-0.8h-32c-5.2,0-9.4-4.2-9.4-9.4V25     c0-5.2,4.2-9.4,9.4-9.4h56.2c5.2,0,9.4,4.2,9.4,9.4v37.5c0,5.2-4.2,9.4-9.4,9.4h-6.2c-1.7,0-3.1-1.4-3.1-3.1s1.4-3.1,3.1-3.1h6.2     c1.7,0,3.1-1.4,3.1-3.1V25c0-1.7-1.4-3.1-3.1-3.1H21.9c-1.7,0-3.1,1.4-3.1,3.1v37.5c0,1.7,1.4,3.1,3.1,3.1h32     c2.3,0,4.5,0.9,6.3,2.4L74,80.5c1.3,1.2,1.4,3.1,0.2,4.4C73.6,85.6,72.7,85.9,71.9,85.9z"></path></g></g><path display="none" d="M76.6,35.9L76.6,35.9C76.5,21,64.6,9.4,50,9.4S23.5,21,23.4,35.9h0c0,0,0,0,0,0c0,0,0,0,0,0h0   C23.5,56.1,47,76.5,48,77.4c0.6,0.5,1.3,0.8,2,0.8c0.7,0,1.4-0.3,2-0.8C53,76.5,76.5,56.2,76.6,35.9L76.6,35.9   C76.6,36,76.6,36,76.6,35.9C76.6,36,76.6,35.9,76.6,35.9z M52.2,68.6c-1.2,1.2-3.2,1.2-4.4,0C41.3,62,29.7,48.5,29.7,36   c0-11,9.1-20.3,20.3-20.3c11.2,0,20.3,9.3,20.3,20.3C70.3,48.5,58.7,62,52.2,68.6z M76.6,78.1c0,8.2-13.4,12.5-26.6,12.5   c-13.2,0-26.6-4.3-26.6-12.5c0-3.8,2.9-6.7,7.3-8.8c1.2-0.6,2.7-0.2,3.6,0.8c0,0,0,0,0,0.1c1.3,1.6,0.8,3.9-1.1,4.8   c-2.4,1.2-3.6,2.4-3.6,3.2c0,1.9,6.9,6.2,20.3,6.2s20.3-4.4,20.3-6.2c0-0.8-1.2-2-3.6-3.2c-1.8-0.9-2.4-3.2-1.1-4.8c0,0,0,0,0-0.1   c0.9-1,2.4-1.4,3.6-0.8C73.7,71.4,76.6,74.3,76.6,78.1z M50,25c-6,0-10.9,4.9-10.9,10.9S44,46.9,50,46.9c6,0,10.9-4.9,10.9-10.9   S56,25,50,25z M50,40.6c-2.6,0-4.7-2.1-4.7-4.7s2.1-4.7,4.7-4.7s4.7,2.1,4.7,4.7S52.6,40.6,50,40.6z"></path><g display="none"><path display="inline" d="M50,66.4c-9,0-16.4-7.4-16.4-16.4S41,33.6,50,33.6S66.4,41,66.4,50c0,1.3-0.2,2.6-0.5,3.9    c-0.4,1.7-2.1,2.7-3.8,2.3c-1.7-0.4-2.7-2.1-2.3-3.8c0.2-0.8,0.3-1.6,0.3-2.4c0-5.6-4.6-10.2-10.2-10.2S39.8,44.4,39.8,50    S44.4,60.2,50,60.2c1.2,0,2.4-0.2,3.6-0.6c1.6-0.6,3.4,0.2,4,1.8c0.6,1.6-0.2,3.4-1.8,4C53.9,66.1,52,66.4,50,66.4z M62,81.2v-3    l1.9,2.1c1.8,1.8,4.1,2.7,6.6,2.7c2.5,0,4.8-1,6.6-2.7l3.3-3.3c1.8-1.8,2.7-4.1,2.7-6.6c0-2.5-1-4.7-2.8-6.5l-2.1-2h3    c5.2,0,9.8-4.5,9.8-9.7v-4.7c0-5.2-4.6-9.7-9.8-9.7h-3l2.1-1.9c3.7-3.7,3.7-9.5,0-13.2l-3.3-3.3c-1.8-1.8-4.1-2.7-6.6-2.7    c-2.5,0-4.7,1-6.5,2.8L62,21.7v-2.9c0-5.2-4.5-9.8-9.7-9.8h-4.7c-5.2,0-9.7,4.6-9.7,9.8v3l-1.9-2.1c-1.8-1.8-4.1-2.7-6.6-2.7    c-2.5,0-4.8,1-6.6,2.7l-3.3,3.3c-3.7,3.7-3.6,9.5,0,13.1l2.1,1.9h-3C13.6,38,9,42.5,9,47.7v4.7c0,5.2,4.6,9.7,9.8,9.7h3l-2.1,1.9    c-3.7,3.7-3.7,9.5,0,13.2l3.3,3.3c1.8,1.8,4.1,2.7,6.6,2.7c2.5,0,4.7-1,6.5-2.8l1.9-2.1v3c0,5.2,4.5,9.8,9.7,9.8h4.7    C57.5,91,62,86.4,62,81.2z M34.9,72.9L31.8,76c-0.6,0.6-1.4,0.9-2.2,0.9c-0.8,0-1.6-0.3-2.2-0.9L24,72.6c-1.2-1.2-1.2-3.2,0-4.4    l3.1-3.1c1.6-1.6,2.1-4.3,1.2-6.4c-0.9-2.1-2.9-3.7-5.2-3.7h-4.4C17,55,16,54.1,16,52.3v-4.7c0-1.7,1-2.7,2.8-2.7h4.4    c2.3,0,4.3-1.6,5.2-3.8c0,0,0-0.1,0-0.1c0.9-2.1,0.4-4.6-1.2-6.2L24,31.8c-1.2-1.2-1.2-3.2,0-4.4l3.3-3.3c0.6-0.6,1.4-0.9,2.2-0.9    c0.8,0,1.6,0.3,2.2,0.9l2.8,2.8c1.2,1.2,2.7,1.8,4.4,1.8c0.8,0,1.6-0.2,2.3-0.4c0,0,0,0,0,0c0,0,0.2,0,0.2,0    c1.9-0.8,3.4-2.6,3.4-4.7v-4.8c0-1.7,0.9-2.8,2.7-2.8h4.7c1.7,0,2.7,1,2.7,2.8v4.4c0,2.3,1.6,4.3,3.8,5.2c0.7,0.3,1.5,0.4,2.3,0.4    c1.5,0,3-0.6,4-1.6l3.1-3.1c0.6-0.6,1.4-0.9,2.2-0.9c0.8,0,1.6,0.3,2.2,0.9l3.3,3.3c1.2,1.2,1.2,3.2,0,4.4l-3.1,3.1    c-1.6,1.6-2.1,4.3-1.2,6.4c0.9,2.1,2.9,3.7,5.2,3.7h4.4c1.7,0,2.8,0.9,2.8,2.7v4.7c0,1.7-1,2.7-2.8,2.7h-4.4    c-2.3,0-4.3,1.6-5.2,3.7c0,0,0,0.1,0,0.1c0,0,0,0.1,0,0.1c-0.9,2.1-0.4,4.5,1.2,6.2l3.1,3.1c1.2,1.2,1.2,3.2,0,4.4L72.6,76    c-0.6,0.6-1.4,0.9-2.2,0.9c-0.8,0-1.6-0.3-2.2-0.9l-3.1-3.1c-1.1-1.1-2.5-1.6-4-1.6c-0.7,0-1.4,0.1-2.1,0.4c0,0-0.3,0-0.3,0    c-2.1,0.9-3.7,2.9-3.7,5.2v4.4c0,1.7-0.9,2.8-2.7,2.8h-4.7c-1.7,0-2.7-1-2.7-2.8v-4.4c0-2.3-1.6-4.3-3.8-5.2    c-0.7-0.3-1.5-0.4-2.3-0.4C37.5,71.2,35.9,71.8,34.9,72.9z"></path></g><g display="none"><path display="inline" d="M78.1,75c-0.8,0-1.6-0.3-2.2-0.9L64.3,62.5H37.5c-5.2,0-9.4-4.2-9.4-9.4V25c0-5.2,4.2-9.4,9.4-9.4h43.8    c5.2,0,9.4,4.2,9.4,9.4v28.1c0,5.2-4.2,9.4-9.4,9.4h-0.8c-1.7,0-3.1-1.4-3.1-3.1s1.4-3.1,3.1-3.1h0.8c1.7,0,3.1-1.4,3.1-3.1V25    c0-1.7-1.4-3.1-3.1-3.1H37.5c-1.7,0-3.1,1.4-3.1,3.1v28.1c0,1.7,1.4,3.1,3.1,3.1h28.1c0.8,0,1.6,0.3,2.2,0.9l12.5,12.5    c1.2,1.2,1.2,3.2,0,4.4C79.7,74.7,78.9,75,78.1,75z M25,71.9c0-1.7-1.4-3.1-3.1-3.1h-3.1c-1.7,0-3.1-1.4-3.1-3.1V38.3    c0-1.7,1.4-3.1,3.1-3.1h3.1c1.7,0,3.1-1.4,3.1-3.1s-1.4-3.1-3.1-3.1h-3.1c-5.2,0-9.4,4.2-9.4,9.4v27.3c0,5.2,4.2,9.4,9.4,9.4h3.1    C23.6,75,25,73.6,25,71.9z M27.2,86.6L38.8,75h23.7c1.7,0,3.1-1.4,3.1-3.1s-1.4-3.1-3.1-3.1h-25c-0.8,0-1.6,0.3-2.2,0.9L22.8,82.2    c-1.2,1.2-1.2,3.2,0,4.4c0.6,0.6,1.4,0.9,2.2,0.9S26.6,87.2,27.2,86.6z"></path></g><g display="none"><path display="inline" d="M53.1,90.6c-1,0-2-0.5-2.9-1.7c-0.2-0.3-0.2-0.6-0.2-0.9l0-23.3c0-0.4,0.2-0.8,0.5-1.1    c2.7-2.4,5.8-0.6,5.8,2l0,3.9c0,0.8,1.1,1.1,1.5,0.3C64.6,54.8,74.6,33,80.3,20.6c0.3-0.7-0.4-1.3-1-1L28.9,42.3    c-0.8,0.3-0.5,1.5,0.3,1.5H50c3.5,0,6.2,2.8,6.2,6.4l0,3.9c0,0.4-0.2,0.8-0.5,1.1c-2.7,2.4-5.8,0.6-5.8-2v-1.6    c0-0.9-0.7-1.6-1.6-1.6l-38.2,0c-0.3,0-0.6-0.1-0.8-0.2C6.9,48,7.6,45,9.7,44L86.2,9.6c1.9-0.9,4.3,0.3,4.5,3c0,0.2,0,0.4-0.1,0.6    C79,38.5,56.5,87.5,56,88.7C55.5,89.9,54.3,90.6,53.1,90.6z"></path></g><g display="none"><path display="inline" d="M84.2,56.8c-5.9,5.9-18.3,15.9-35,15.9c-17.1,0-29.7-10.4-35.7-16.6c-1.2-1.2-1.2-3.2,0.1-4.4    c1.2-1.2,3.2-1.2,4.4,0.1c5.3,5.5,16.4,14.7,31.2,14.7c14.5,0,25.4-8.8,30.6-14c1.2-1.2,3.2-1.2,4.4,0    C85.5,53.6,85.5,55.6,84.2,56.8z M82.6,45.8c-1.2,0.6-2.6,0.4-3.6-0.6c-3.2-3.1-7.5-6.5-12.7-9.1c-0.5-0.3-1.1,0.3-0.9,0.8    c0.7,1.9,1.1,3.9,1.1,6c0,10.7-9.8,19.1-20.9,16.8c-6.5-1.4-11.7-6.5-13.1-13c-0.7-3.5-0.4-6.8,0.7-9.8c0.2-0.6-0.4-1.1-0.9-0.8    c-5.3,2.6-9.6,6.1-12.8,9.2c-0.6,0.6-1.4,0.9-2.2,0.9c-1.2,0-2.4-0.7-3-2.1c-0.5-1.2-0.1-2.5,0.8-3.3c7.1-6.9,18.8-15.1,34.2-15.1    c15.3,0,27,8.1,34.1,14.9C84.8,42.1,84.6,44.7,82.6,45.8z M59.9,45c1-2.7-1.5-5.1-4.1-4.1c-0.8,0.3-1.4,0.9-1.7,1.7    c-1,2.7,1.5,5.1,4.1,4.1C59,46.3,59.6,45.7,59.9,45z"></path></g><g display="none"><path display="inline" d="M75,65.6c-3.5,0-6.6,1.4-8.9,3.7L37.2,52.7c0.2-0.9,0.3-1.8,0.3-2.7c0-1.3-0.2-2.6-0.6-3.7l29-15.8    c2.3,2.4,5.5,4,9.1,4c6.9,0,12.5-5.6,12.5-12.5S81.9,9.4,75,9.4S62.5,15,62.5,21.9c0,1.1,0.1,2.1,0.4,3.1L33.6,41    c-2.2-2.1-5.3-3.5-8.6-3.5c-6.9,0-12.5,5.6-12.5,12.5S18.1,62.5,25,62.5c3.7,0,7.1-1.7,9.4-4.3L63,74.8c-0.3,1.1-0.5,2.2-0.5,3.3    c0,6.9,5.6,12.5,12.5,12.5S87.5,85,87.5,78.1S81.9,65.6,75,65.6z M75,15.6c3.4,0,6.2,2.8,6.2,6.2s-2.8,6.2-6.2,6.2    c-2.4,0-4.4-1.3-5.5-3.3l0,0c-0.5-0.9-0.8-1.9-0.8-3C68.8,18.4,71.6,15.6,75,15.6z M25,56.2c-3.4,0-6.2-2.8-6.2-6.2    s2.8-6.2,6.2-6.2s6.2,2.8,6.2,6.2S28.4,56.2,25,56.2z M75,84.4c-3.4,0-6.2-2.8-6.2-6.2s2.8-6.2,6.2-6.2s6.2,2.8,6.2,6.2    S78.4,84.4,75,84.4z"></path></g><g display="none"><path display="inline" d="M36.9,25.9c-1.3-1.2-1.3-3.4,0-4.6l10.9-10.9c1.2-1.2,3.2-1.2,4.4,0l10.9,10.9c1.3,1.3,1.3,3.4,0,4.6    c-0.6,0.5-1.3,0.8-2.1,0.8c-0.8,0-1.7-0.3-2.3-0.9L53,20v39.3c0,1.7-1.3,3.1-3,3.1s-3-1.4-3-3.1V20l-5.8,5.7    c-0.6,0.6-1.4,0.9-2.2,0.9C38.2,26.7,37.4,26.4,36.9,25.9z M75,30H65c-1.6,0-3.1,1.1-3.2,2.7C61.6,34.6,63,36,64.8,36h8.6    c0.9,0,1.6,0.6,1.6,1.5v45.3c0,0.9-0.7,1.2-1.6,1.2H26.6c-0.9,0-1.6-0.3-1.6-1.2V37.5c0-0.9,0.7-1.5,1.6-1.5H35    c1.6,0,3.1-1.1,3.2-2.7c0.2-1.9-1.3-3.3-3.1-3.3H25c-3.5,0-6,2.5-6,5.9v48.4c0,3.5,2.5,6.6,6,6.6h50c3.5,0,6-3.2,6-6.6V35.9    C81,32.5,78.5,30,75,30z"></path></g><g display="none"><path display="inline" d="M50,40.6c-1.7,0-3-1.4-3-3.1v-25c0-1.7,1.3-3.1,3-3.1s3,1.4,3,3.1v25C53,39.2,51.7,40.6,50,40.6z     M85.9,54.7c0-14.8-8.7-27.9-22.3-33.4c-1.6-0.6-3.4,0.1-4.1,1.7c-0.6,1.6,0.1,3.4,1.7,4.1c11.1,4.5,18.4,15.3,18.4,27.6    c0,16.4-13.3,29.7-29.7,29.7S20.3,71.1,20.3,54.7c0-12.1,7.2-22.9,18.5-27.5c1.6-0.7,2.4-2.5,1.7-4.1c-0.7-1.6-2.5-2.4-4.1-1.7    C22.8,27,14.1,40,14.1,54.7c0,19.8,16.1,35.9,35.9,35.9S85.9,74.5,85.9,54.7z"></path></g><g display="none"><path display="inline" d="M77.9,26.3l9.9-9.9c1.2-1.2,1.3-3,0.3-4.3c-1.2-1.4-3.3-1.5-4.6-0.2l-10,10l-21.4-1.9    c-1.8-0.2-3.7,0.5-5,1.8L12.8,56c-2.4,2.4-2.4,6.4,0,8.8L34.9,87c2.4,2.4,6.4,2.4,8.8,0L78,52.7c1.3-1.3,2-3.1,1.8-5L77.9,26.3z     M59.2,40.6c1.2,1.2,1.2,3.2,0,4.4c-1.2,1.2-3.2,1.2-4.4,0c-1.2-1.2-1.2-3.2,0-4.4S58,39.4,59.2,40.6z M38.2,81.5L18.3,61.6    c-0.6-0.6-0.6-1.6,0-2.2L51,26.7c0.3-0.3,0.8-0.5,1.2-0.5l12.2,1.1c1.3,0.1,1.9,1.7,1,2.7L61,34.3c-3.6-1.7-8.2-1-11,2.2    c-3.2,3.5-3.1,9.1,0.1,12.6c3.6,3.9,9.8,4,13.5,0.3c2.9-2.9,3.5-7.2,1.8-10.7l4.4-4.4c0.9-0.9,2.5-0.4,2.7,1l1.1,12.2    c0,0.5-0.1,0.9-0.5,1.2L40.4,81.5C39.8,82.1,38.8,82.1,38.2,81.5z M39.3,69.3c-1.2,1.2-3.2,1.2-4.4,0l-4.4-4.4    c-1.2-1.2-1.2-3.2,0-4.4c1.2-1.2,3.2-1.2,4.4,0l4.4,4.4C40.5,66.1,40.5,68.1,39.3,69.3z M52.5,60.5c1.2,1.2,1.2,3.2,0,4.4    c-1.2,1.2-3.2,1.2-4.4,0L34.9,51.6c-1.2-1.2-1.2-3.2,0-4.4s3.2-1.2,4.4,0L52.5,60.5z"></path></g><g display="none"><path display="inline" d="M50,84.1c-18.9,0-34.3-15.4-34.3-34.2S31.1,15.7,50,15.7s34.3,15.4,34.3,34.2c0,6.8-2,13.3-5.8,19    c-0.9,1.4-2.8,1.8-4.2,0.8c-1.4-0.9-1.8-2.8-0.8-4.2c3.1-4.6,4.7-10,4.7-15.6c0-15.5-12.7-28.1-28.2-28.1S21.8,34.4,21.8,49.9    S34.4,78.1,50,78.1c5.5,0,10.9-1.6,15.5-4.6c1.4-0.9,3.3-0.5,4.2,0.9c0.9,1.4,0.5,3.3-0.9,4.2C63.2,82.2,56.7,84.1,50,84.1z     M65.7,48.2L52.5,35c-0.7-0.7-1.7-1-2.6-0.9C49,34,48,34.3,47.3,35L34.1,48.2c-1.1,1.1-1.3,2.8-0.5,4c1.1,1.7,3.4,1.8,4.8,0.5    l7.2-7.1c0.5-0.5,1.4-0.1,1.4,0.6V64c0,1.4,0.7,2.7,2,3.1c2.1,0.7,4-0.9,4-3V46.4c0-0.7,0.9-1,1.4-0.6l6.9,6.9    c1.4,1.4,3.7,1.2,4.8-0.5C67,51,66.7,49.3,65.7,48.2z"></path></g><g display="none"><g display="inline"><path d="M78.1,34.4H21.9c-3.5,0-6.2,2.8-6.2,6.2v43.8c0,3.5,2.8,6.2,6.2,6.2h56.2c3.5,0,6.2-2.8,6.2-6.2V40.6     C84.4,37.2,81.6,34.4,78.1,34.4z M76.6,84.4H23.4c-0.9,0-1.6-0.7-1.6-1.6V42.2c0-0.9,0.7-1.6,1.6-1.6h3.1c0.9,0,1.6,0.7,1.6,1.6     v32.7c0,1.6,1.2,3.1,2.8,3.2c1.9,0.2,3.4-1.3,3.4-3.1V42.2c0-0.9,0.7-1.6,1.6-1.6h40.6c0.9,0,1.6,0.7,1.6,1.6v40.6     C78.1,83.7,77.4,84.4,76.6,84.4z"></path><path d="M34.4,25c0-4.6,3.3-8.4,7.6-9.2c0.7-0.1,1.2,0.6,0.8,1.2c-1.4,2.3-2.2,5.1-2.2,8v3.1c0,1.7,1.4,3.1,3.1,3.1h0     c1.7,0,3.1-1.4,3.1-3.1V25c0-2.1,0.7-4,1.9-5.6c0.6-0.8,1.9-0.8,2.5,0c1.2,1.6,1.9,3.5,1.9,5.6v3.1c0,1.7,1.4,3.1,3.1,3.1h0     c1.7,0,3.1-1.4,3.1-3.1V25c0-2.9-0.8-5.7-2.2-8c0.5-0.8,0.3-0.4,0.8-1.2c4.3,0.8,7.6,4.6,7.6,9.2v3.1c0,1.7,1.4,3.1,3.1,3.1h0     c1.7,0,3.1-1.4,3.1-3.1v-2.7c0-8.2-6.1-15.3-14.2-16c-2.7-0.3-5.4,0.2-7.7,1.2c0,0,0,0,0,0c-2.3-1-4.9-1.5-7.7-1.2     c-8.1,0.7-14.2,7.8-14.2,16v2.7c0,1.7,1.4,3.1,3.1,3.1h0c1.7,0,3.1-1.4,3.1-3.1V25z"></path></g></g><g display="none"><path display="inline" d="M71.9,43.8v40.6c0,3.5-2.8,6.2-6.2,6.2H33.8c-3.1,0-5.7-2.5-5.7-5.7V43.8c0-2.3,2.5-4,5-2.6    c0.8,0.5,1.3,1.4,1.3,2.3v39.4c0,0.9,0.7,1.6,1.6,1.6h28.1c0.9,0,1.6-0.7,1.6-1.6V43.5c0-0.9,0.5-1.8,1.3-2.3    C69.4,39.7,71.9,41.4,71.9,43.8z M56.2,71.9H43.8c-1.7,0-3.1,1.4-3.1,3.1s1.4,3.1,3.1,3.1h12.5c1.7,0,3.1-1.4,3.1-3.1    S58,71.9,56.2,71.9z M56.2,59.4H43.8c-1.7,0-3.1,1.4-3.1,3.1s1.4,3.1,3.1,3.1h12.5c1.7,0,3.1-1.4,3.1-3.1S58,59.4,56.2,59.4z     M56.2,46.9H43.8c-1.7,0-3.1,1.4-3.1,3.1s1.4,3.1,3.1,3.1h12.5c1.7,0,3.1-1.4,3.1-3.1S58,46.9,56.2,46.9z M28.1,34.4    c0-1.7,1.4-3.1,3.1-3.1c0-5.8,4-10.7,9.4-12.1v-3.5c0-5.2,4.2-9.4,9.4-9.4s9.4,4.2,9.4,9.4v3.5c5.4,1.4,9.4,6.3,9.4,12.1    c1.7,0,3.1,1.4,3.1,3.1s-1.4,3.1-3.1,3.1H31.2C29.5,37.5,28.1,36.1,28.1,34.4z M37.5,31.2h25c0-3.4-2.8-6.2-6.2-6.3c0,0,0,0,0,0    c-1.7,0-3.1-1.4-3.1-3.1v-6.2c0-1.8-1.6-3.3-3.4-3.1c-1.6,0.2-2.8,1.6-2.8,3.2v6.1c0,1.7-1.4,3.1-3.1,3.1h0    C40.3,25,37.5,27.8,37.5,31.2z"></path></g><g display="none"><path display="inline" d="M50,84.1c-18.9,0-34.3-15.4-34.3-34.2S31.1,15.7,50,15.7s34.3,15.4,34.3,34.2c0,6.8-2,13.3-5.8,19    c-0.9,1.4-2.8,1.8-4.2,0.8c-1.4-0.9-1.8-2.8-0.8-4.2c3.1-4.6,4.7-10,4.7-15.6c0-15.5-12.7-28.1-28.2-28.1S21.8,34.4,21.8,49.9    S34.4,78.1,50,78.1c5.5,0,10.9-1.6,15.5-4.6c1.4-0.9,3.3-0.5,4.2,0.9c0.9,1.4,0.5,3.3-0.9,4.2C63.2,82.2,56.7,84.1,50,84.1z     M66.1,47.8c-1.1-1.7-3.4-1.8-4.8-0.5l-6.9,6.9c-0.5,0.5-1.4,0.1-1.4-0.6V35.9c0-2-1.8-3.6-4-3c-1.3,0.4-2,1.7-2,3.1v17.8    c0,0.7-0.9,1-1.4,0.6l-7.1-7.1c-1.4-1.4-3.7-1.2-4.8,0.5c-0.9,1.3-0.6,3,0.5,4L47.3,65c0.7,0.7,1.7,1,2.6,0.9    c0.9,0.1,1.9-0.2,2.6-0.9l13.2-13.2C66.7,50.7,67,49,66.1,47.8z"></path></g><g display="none"><path display="inline" d="M40.6,78.1c0,3.5-2.8,6.2-6.2,6.2s-6.2-2.8-6.2-6.2s2.8-6.2,6.2-6.2S40.6,74.7,40.6,78.1z M71.9,71.9    c-3.5,0-6.2,2.8-6.2,6.2s2.8,6.2,6.2,6.2s6.2-2.8,6.2-6.2S75.3,71.9,71.9,71.9z M37.6,28c-1.6,0-3.3,1-3.3,3c0,2.1,1.3,3,3.1,3h44    c1,0,1.8,1.1,1.5,2.1l-4.1,16.4c-0.1,0.6-0.6,1.1-1.2,1.2l-39.7,8c-0.8,0.2-1.6-0.3-1.8-1.1L24.9,21.1c-0.4-1.3-1.6-2.1-3-2.1    h-9.2c-1.6,0-3.1,1.1-3.2,2.7c-0.2,1.9,1.3,3.3,3.1,3.3h5.8c0.7,0,1.3,0.5,1.5,1.1l10.7,37.8c0.9,3.2,4.1,5.1,7.3,4.4l42.1-8.6    c2.4-0.5,4.3-2.3,4.8-4.6L90,33.9c0.7-3-1.5-5.9-4.6-5.9H37.6z"></path></g><g display="none"><path display="inline" d="M56.2,37.5c0,3.5-2.8,6.2-6.2,6.2s-6.2-2.8-6.2-6.2s2.8-6.2,6.2-6.2S56.2,34,56.2,37.5z M52.1,96.1    c0.6-0.5,2.3-2,3.5-2.8l0.4-0.3c2.2-1.5,6.4-4.2,6.4-11.7l0,0c0-1.7-1.4-3.1-3.1-3.1h0c-1.7,0-3.1,1.4-3.1,3.1l0,0    c0,4.1-1.7,5.2-3.6,6.5L52.2,88c-0.7,0.5-1.5,1.1-2.2,1.6c-0.7-0.6-1.5-1.1-2.2-1.6l-0.4-0.2c-2.2-1.4-3.7-2.3-3.7-6.5l0,0    c0-1.7-1.4-3.1-3.1-3.1h0c-1.7,0-3.1,1.4-3.1,3.1l0,0c0,7.6,4,10.1,6.6,11.8l0.3,0.2c1.6,1,3.4,2.7,3.4,2.8l2.1,2L52.1,96.1z     M82,71.9c0,3-0.9,5.9-2.5,8.5c-0.5,0.8-1.4,1.3-2.4,1.4c-0.1,0-0.1,0-0.2,0c-0.9,0-1.8-0.4-2.4-1.1c-3.6-4.2-7.1-5.7-12.8-5.7    c-0.2,0-0.4,0-0.6-0.1l0,0.1h-8v3.1c0,1.7-1.3,3.1-3,3.1s-3-1.4-3-3.1V75h-6.4c-5.7,0-9.2,1.5-12.8,5.7c-0.6,0.7-1.5,1.1-2.4,1.1    c-0.1,0-0.1,0-0.2,0c-1-0.1-1.9-0.6-2.4-1.4c-1.6-2.5-2.5-5.5-2.5-8.5c0-7.3,5-13.4,11.8-15.1c-0.5-3-0.8-6.3-0.8-9.9    c0-15.5,9.7-37.5,18.8-37.5c5.9,0,10.7,8.3,13,13.2c3.6,7.7,5.8,16.8,5.8,24.3c0,3.5-0.3,6.6-0.7,9.5C75.9,57.1,82,63.8,82,71.9z     M35.7,69.2c-0.6-1.3-1.2-2.9-1.8-4.7c-0.3-0.9-1.3-1.4-2.2-0.9c-3.1,1.5-5.2,4.7-5.2,8.4c0,0.4,0,0.9,0.1,1.3    C29.3,71.1,32.3,69.8,35.7,69.2z M57.6,69c1.6-3,4.9-10.9,4.9-22c0-6.6-1.9-14.8-5.2-21.7c-3.4-7.3-6.6-9.7-7.3-9.7    c-2.7,0-12.5,16.5-12.5,31.2c0,4.1,0.5,7.8,1.2,11c0.3,0.5,0.4,1,0.4,1.5c0,0.1,0,0.2,0,0.3c1.1,4.4,2.5,7.3,3.4,9.3H47v-9.6    c0-1.7,1.3-3.1,3-3.1s3,1.4,3,3.1V69H57.6z M75.8,71.9c0-4.6-3.3-8.4-7.7-9.2c-0.8-0.1-1.6,0.3-1.8,1.1c-0.6,2-1.3,3.7-1.9,5.1    c4.4,0.4,8,1.7,11.3,4.3C75.8,72.7,75.8,72.3,75.8,71.9z"></path></g><g display="none"><path display="inline" d="M50,9.4C27.6,9.4,9.4,27.6,9.4,50S27.6,90.6,50,90.6S90.6,72.4,90.6,50S72.4,9.4,50,9.4z M78.8,31.2    c-0.6,0-1.3,0-1.9,0c-0.7,0-1.3,0-1.8,0c-1.6,0-2.6-0.3-3.1-0.5c0.1-3.2,0.6-4.7,1.5-5.9C75.4,26.7,77.2,28.9,78.8,31.2z M41,16.8    l0.4,2c0.4-0.1,0.8,0,1.2,0.3c0.2,0.1,0.4,0.4,0.4,0.6c0,0.1,0,0.1,0,0.2c0,0.8,0,3,2.1,4.5c1.1,0.8,2.4,0.9,3.6,0.9    c0.3,0,0.9,0.1,1.3,0.1c-0.1,1.9-0.6,2.7-1.3,3.7c-0.8,1.1-1.8,2.6-1.8,5.1c-0.9,0.1-2.5,0.1-3.1,0.1c-3.8,0-9.4,3.3-9.4,9.4    c0,6.5,4.7,9.4,9.4,9.4c1.4,0,3.7,0.8,4.9,1.7c0.6,0.5,1.4,1,1.4,4.6c0,1.7,0,2.6-5.2,7c-3.5,3-6.7,7.7-9.1,11.7    c-2.1-3.4-4.5-9.9-4.5-12.5c0-3.1,0.7-4.3,1.6-5.7c0.5-0.8,1-1.6,1.4-2.7c1.4-4.2,0-8.7-3.9-12.6c-0.7-0.7-1.5-1.4-2.2-2    C25.9,40.8,25,40,25,37.5c0,0-0.6-5.8-0.8-8.6c-0.1-1.3,0.8-2.3,0.8-2.3S34,18.7,41,16.8z M15.8,50c0-5.1,1.2-9.9,3.2-14.3v1.8    c0,5.5,2.9,8,5.3,10c0.6,0.5,1.2,1,1.7,1.6c2.2,2.2,3,4.3,2.3,6.2c-0.1,0.4-0.4,0.8-0.8,1.4c-1.1,1.7-2.5,4.1-2.5,9    c0,1.7,1.1,6.2,2.9,10.6C20.5,70,15.8,60.5,15.8,50z M39.8,82.8c2.2-3.7,5.8-8.9,9.1-11.7c5.4-4.6,7.3-7.1,7.3-11.8    c0-4.8-1.1-7.5-3.9-9.6c-2.2-1.7-5.9-2.9-8.6-2.9c-3.1,0-3.1-2.2-3.1-3.1c0-2.2,2.4-3.1,3.1-3.1c3.5,0,6-0.1,7.8-2    c1.1-1.1,1.6-2.5,1.6-4.3c0-0.5,0.1-0.7,0.7-1.6c1-1.4,2.4-3.5,2.4-7.7c0-5.3-5.2-5.7-7.1-5.9c0,0,0-0.1,0-0.1    c-0.2-1.2-0.6-2.3-1.3-3.3c0.7,0,1.4-0.1,2.2-0.1c6.8,0,13.1,2,18.4,5.4c-2.4,3.1-2.8,6.8-2.8,10.2c0,3.8,3.7,6.2,9.4,6.2    c0.5,0,1.2,0,1.9,0c1.5,0,3.1,0,4.2,0c0,0,0.1,0,0.1,0c0.2,0,0.5,0,0.7-0.1c0.4,1,0.8,2.1,1.1,3.2c-6.7,0.1-20.6,0.8-20.6,12.5    c0,7.4,4,9.8,6.4,11.2c0.4,0.3,0.8,0.5,1.2,0.7c0.6,0.4,1.5,2.3,1.8,10.2c0,0.5,0,0.9,0,1.3c-5.9,4.9-13.6,7.9-21.9,7.9    C45.4,84.4,39.8,82.8,39.8,82.8z M77.8,70.2c-0.4-4.4-1.4-8.3-4.1-10.2c-0.5-0.4-1.1-0.7-1.6-1c-2.1-1.2-3.3-2-3.3-5.8    c0-3.2,1.9-6.2,15.5-6.2c0.1,1,0.1,2.1,0.1,3.1C84.4,57.5,81.9,64.5,77.8,70.2z"></path></g><g display="none"><path display="inline" d="M50,9.4C27.6,9.4,9.4,27.6,9.4,50S27.6,90.6,50,90.6S90.6,72.4,90.6,50S72.4,9.4,50,9.4z M84.4,50    c0,1.1-0.1,2.1-0.1,3.1c-1.9,0-2.7-1-4.2-3.5c-1.5-2.5-3.5-5.8-8.2-5.8c-1.8,0-3.2,0.5-4.3,1.6c-1.8,1.8-1.7,4.3-1.7,6.5    c0,1.3,0,2.5-0.2,3.7c-1.6,7-4.5,15.4-6.4,18.6c0,0,0,0,0,0c-0.3-0.9-0.5-1.8-0.7-2.7c-1.3-5-2.9-10.6-7.7-12c-2-0.5-4-1.7-4-6.3    c0-5.1,1.7-6.2,9.4-6.2h1.6c4.3,0,7.8-3.7,7.8-8s-3.5-8-7.8-8h-1.6c-1.6,0-2.6-0.2-3.1-0.4c0-1,0-1.8,0.1-2.3    c0.2-0.1,0.5-0.2,1.1-0.4l0.2-0.1c0.3-0.1,6.5-3.3,7.8-9.9C75.2,22.8,84.4,35.4,84.4,50z M26.8,24.7c0.5,0.3,0.9,0.5,1.2,0.6    c0,0,0.1,0,0.1,0.1c-0.1,2-0.6,2.8-1.3,3.8c-0.8,1.1-1.8,2.6-1.8,5.1c-0.9,0.1-2.5,0.1-3.1,0.1c-0.9,0-1.8,0.2-2.7,0.5    C21,31,23.6,27.6,26.8,24.7z M20.9,68.3c-3.2-5-5.1-11-5.3-17.3c1.7,1.4,4,2.1,6.2,2.1c1.4,0,3.7,0.8,4.9,1.7    c0.6,0.5,1.4,1,1.4,4.6c0,1.7,0,2.6-5.2,7C22.3,66.9,21.6,67.6,20.9,68.3z M50,84.4c-9.9,0-18.9-4.2-25.2-11    c0.8-0.9,1.5-1.6,2.2-2.2c5.4-4.6,7.3-7.1,7.3-11.8c0-4.8-1.1-7.5-3.9-9.6c-2.2-1.7-5.9-2.9-8.6-2.9c-3.1,0-3.1-2.2-3.1-3.1    c0-2.2,2.4-3.1,3.1-3.1c3.5,0,6-0.1,7.8-2c1.1-1.1,1.6-2.5,1.6-4.3c0-0.5,0.1-0.7,0.7-1.6c1-1.4,2.4-3.5,2.4-7.7    c0-2.3-1-3.6-2.1-4.4c5.2-3.1,11.2-4.9,17.7-4.9c2.1,0,4.2,0.2,6.2,0.6c-0.3,3.6-3.8,5.6-4.4,6c-4.6,1.8-4.9,4-4.9,9.3    c0,3.8,3.7,6.5,9.4,6.5h1.6c0.9,0,1.6,0.6,1.6,1.5S58.7,41,57.8,41h-1.6c-5.5,0-15.6-0.2-15.6,12.3c0,3.7,1.1,10.2,8.5,12.3    c1.4,0.4,2.5,4.7,3.3,7.5c0.3,0.9,0.5,1.9,0.8,2.8c1.4,4.8,4.8,5.4,6.1,5.4c3.1,0,5.4-2.9,8.2-10.3c1.8-4.8,3.5-10.5,4.2-14    c0.4-1.9,0.4-3.7,0.4-5.1c0-0.5,0-1.3,0-1.8c0.8,0.1,1.3,0.7,2.5,2.8c1.4,2.4,3.6,6,8.4,6.5C79,73.7,65.7,84.4,50,84.4z"></path></g><g display="none"><path display="inline" d="M90.6,34.4c0-2.4-1.1-3.8-2-4.6c-2-1.8-5.3-2.3-10.9-1.6c-1.7,0.2-2.9,1.8-2.7,3.5    c0.2,1.7,1.8,2.9,3.5,2.7c3.8-0.5,5.6-0.5,5.8,0c-0.4,1.1-3.3,3.6-7.7,6.5c-3.8-11-14.3-19-26.6-19c-14.1,0-25.8,10.4-27.8,24    C22,46,21.9,46,21.7,46.1C11.2,52.3,6.8,57.5,8.5,62c1.1,3.1,4.6,4.6,10.6,4.6c1.9,0,4-0.1,6.3-0.4c0.5-0.1,1-0.1,1.5-0.2    c5.1,7.3,13.5,12.2,23.1,12.2c15.5,0,28.1-12.6,28.1-28.1c0-0.9,0-1.8-0.1-2.6C85.5,42.7,90.6,38,90.6,34.4z M29.6,42.6    c0.5-1.2,1.6-2,2.9-2h23.6c1.6,0,3.1-1.2,3.2-2.8c0.2-1.9-1.3-3.4-3.1-3.4H36.8c-0.7,0-1.1-0.9-0.5-1.4c3.8-3,8.5-4.9,13.7-4.9    c10.1,0,18.5,6.8,21.1,16.1c-1.6,0.9-3.3,1.8-5.1,2.7H34.5c-1.6,0-3.1,1.2-3.2,2.8c-0.2,1.9,1.3,3.4,3.1,3.4h16.8    C43,56.1,35.9,58,30.1,59.1c-1.3-2.8-2-5.8-2-9.1C28.1,47.4,28.7,44.9,29.6,42.6z M14.5,59.8c0.4-1,2.3-3.2,7.5-6.6    c0.3,2.4,0.8,4.7,1.7,6.8C18.9,60.6,15.7,60.4,14.5,59.8z M50,71.9c-2.9,0-5.7-0.6-8.2-1.6c-0.8-0.3-0.6-1.5,0.3-1.5h14.1    c1.6,0,3.1-1.2,3.2-2.8c0.2-1.9-1.3-3.4-3.1-3.4H42.5c3.8-1.1,7.7-2.3,11.6-3.8c4.5-1.6,9-3.5,13.3-5.6h3.3c0.5,0,0.9,0.4,0.8,0.9    C69.6,64.2,60.7,71.9,50,71.9z"></path></g><g display="none"><path display="inline" d="M46.9,68.8V54.7c0-0.9-0.7-1.6-1.6-1.6H31.2c-1.8,0-3.3-1.6-3.1-3.4c0.2-1.6,1.6-2.8,3.2-2.8h13.9    c0.9,0,1.6-0.7,1.6-1.6V31.2c0-1.8,1.6-3.3,3.4-3.1c1.6,0.2,2.8,1.6,2.8,3.2v13.9c0,0.9,0.7,1.6,1.6,1.6h14.1    c1.8,0,3.3,1.6,3.1,3.4c-0.2,1.6-1.6,2.8-3.2,2.8H54.7c-0.9,0-1.6,0.7-1.6,1.6v13.9c0,1.6-1.2,3.1-2.8,3.2    C48.4,72,46.9,70.6,46.9,68.8z M50,9.4C27.6,9.4,9.4,27.6,9.4,50S27.6,90.6,50,90.6c10.2,0,20-3.8,27.6-10.8    c1.3-1.2,1.3-3.1,0.2-4.4c-1.2-1.3-3.1-1.3-4.4-0.2c-6.4,5.9-14.7,9.2-23.3,9.2C31,84.4,15.6,69,15.6,50S31,15.6,50,15.6    S84.4,31,84.4,50c0,5.7-1.4,11.4-4.2,16.4c-0.8,1.5-0.3,3.4,1.2,4.2c1.5,0.8,3.4,0.3,4.2-1.2c3.2-5.9,4.9-12.6,4.9-19.4    C90.6,27.6,72.4,9.4,50,9.4z"></path></g><g display="none"><path display="inline" d="M81.1,46.9h-51c-1.4,0-2.1-1.7-1.1-2.7l7.6-7.6c1.2-1.2,1.2-3.2,0-4.4c-1.2-1.2-3.2-1.2-4.4,0L16.5,47.8    c-1.2,1.2-1.2,3.2,0,4.4L32,67.7c0.6,0.6,1.4,0.9,2.2,0.9s1.6-0.3,2.2-0.9c1.2-1.2,1.2-3.2,0-4.4L29,55.8c-1-1-0.3-2.7,1.1-2.7    h51.2c1.8,0,3.3-1.6,3.1-3.4C84.2,48.1,82.7,46.9,81.1,46.9z"></path></g><g display="none"><g display="inline"><path d="M50,12.5c-20.7,0-37.5,16.8-37.5,37.5S29.3,87.5,50,87.5S87.5,70.7,87.5,50S70.7,12.5,50,12.5z M54.5,19.1     c1,0.1,1.6,1.2,1.2,2.1c-1,2.2-3.2,3.8-5.7,3.8s-4.8-1.6-5.7-3.8c-0.4-0.9,0.2-2,1.2-2.1c1.5-0.2,3-0.3,4.5-0.3     S53,18.9,54.5,19.1z M37.8,78.8c-3.1-1.3-5.9-3.1-8.4-5.3c-0.6-0.5-0.7-1.4-0.2-2c1.5-2.2,4.4-3.3,7.2-2.4c1.5,0.5,2.7,1.6,3.5,3     c1,2,0.9,4.3-0.1,6C39.4,78.8,38.6,79.1,37.8,78.8z M50,81.2c-0.8,0-1.7,0-2.5-0.1c-1-0.1-1.7-1.1-1.3-2.1     c0.5-1.3,0.7-2.7,0.7-4.1c0-6.9-5.6-12.5-12.5-12.5c-3.4,0-6.5,1.4-8.8,3.7c-0.7,0.7-1.9,0.6-2.5-0.3c-2.8-4.7-4.3-10.1-4.3-15.9     c0-12.2,7-22.8,17.3-28c0.8-0.4,1.9,0,2.2,0.9c1.7,4.8,6.4,8.3,11.8,8.3s10.1-3.5,11.8-8.3c0.3-0.9,1.3-1.3,2.2-0.9     c10.2,5.1,17.3,15.7,17.3,28C81.2,67.2,67.2,81.2,50,81.2z"></path><path d="M62.5,40.6c-6.9,0-12.5,5.6-12.5,12.5s5.6,12.5,12.5,12.5S75,60,75,53.1S69.4,40.6,62.5,40.6z M62.5,59.4     c-3.4,0-6.2-2.8-6.2-6.2s2.8-6.2,6.2-6.2s6.2,2.8,6.2,6.2S65.9,59.4,62.5,59.4z"></path><path d="M36,35.6c-1.5-0.9-3.4-0.4-4.3,1.1c-0.9,1.5-0.4,3.4,1.1,4.3c1,0.6,1.6,1.6,1.6,2.7c0,1.7-1.4,3.1-3.1,3.1     c-0.6,0-1.1-0.1-1.6-0.4c-1.5-0.9-3.4-0.3-4.3,1.2c-0.9,1.5-0.3,3.4,1.2,4.3c1.4,0.8,3,1.2,4.7,1.2c5.2,0,9.4-4.2,9.4-9.4     C40.6,40.4,38.8,37.3,36,35.6z"></path></g></g><g display="none"><path display="inline" d="M68.6,53H54.7h-9.4H31.2c-1.8,0-3.3-1.4-3.1-3.3c0.2-1.6,1.6-2.7,3.2-2.7h13.9h9.4h14.1    c1.8,0,3.3,1.4,3.1,3.3C71.7,51.9,70.2,53,68.6,53z M50,9.4C27.6,9.4,9.4,27.6,9.4,50S27.6,90.6,50,90.6c10.2,0,20-3.8,27.6-10.8    c1.3-1.2,1.3-3.1,0.2-4.4c-1.2-1.3-3.1-1.3-4.4-0.2c-6.4,5.9-14.7,9.2-23.3,9.2C31,84.4,15.6,69,15.6,50S31,15.6,50,15.6    S84.4,31,84.4,50c0,5.7-1.4,11.4-4.2,16.4c-0.8,1.5-0.3,3.4,1.2,4.2c1.5,0.8,3.4,0.3,4.2-1.2c3.2-5.9,4.9-12.6,4.9-19.4    C90.6,27.6,72.4,9.4,50,9.4z"></path></g><g display="none"><path display="inline" d="M71,35.3c1.2,1.2,1.2,3.2,0,4.4l-25,25c-0.6,0.6-1.4,0.9-2.2,0.9s-1.6-0.3-2.2-0.9L29,52.2    c-1.2-1.2-1.2-3.2,0-4.4c1.2-1.2,3.2-1.2,4.4,0l10.3,10.3l22.8-22.8C67.8,34.1,69.7,34.1,71,35.3z M50,9.4    C27.6,9.4,9.4,27.6,9.4,50S27.6,90.6,50,90.6c10.2,0,20-3.8,27.6-10.8c1.3-1.2,1.3-3.1,0.2-4.4c-1.2-1.3-3.1-1.3-4.4-0.2    c-6.4,5.9-14.7,9.2-23.3,9.2C31,84.4,15.6,69,15.6,50S31,15.6,50,15.6S84.4,31,84.4,50c0,5.7-1.4,11.4-4.2,16.4    c-0.8,1.5-0.3,3.4,1.2,4.2c1.5,0.8,3.4,0.3,4.2-1.2c3.2-5.9,4.9-12.6,4.9-19.4C90.6,27.6,72.4,9.4,50,9.4z"></path></g><g display="none"><path display="inline" d="M50,72v19 M53,90.6V71.9c0-1.7-1.3-3.1-3-3.1s-3,1.4-3,3.1v18.8c0,1.7,1.3,3.1,3,3.1S53,92.4,53,90.6z     M75,59.6c0-0.8-0.6-1.7-1.1-2.3L62,42.7V29.2l12.1-14.8c0.8-0.9,1-2.4,0.5-3.5s-1.5-2-2.7-2H28.1c-1.2,0-2.3,0.9-2.8,2    s-0.6,2.5,0.1,3.4L37,29.2v13.4L25.4,57.4c-0.8,0.9-0.8,2.5-0.3,3.6s1.7,2,2.9,2h43.8c0,0,0,0,0,0C73.6,63,75,61.4,75,59.6z     M43.2,45.6c0.4-0.6,0.8-1.1,0.8-1.8V28.1c0-0.7-0.4-1.2-0.8-1.8L34.6,16h30.7l-8.6,10.4c-0.4,0.6-0.8,1.1-0.8,1.8v15.6    c0,0.7,0.4,1.3,0.8,1.8L65.4,56H34.6L43.2,45.6z"></path></g><g display="none"><path display="inline" d="M61,65.5l-11-11l-11,11c-1.3,1.3-3.4,1.2-4.6-0.2c-1-1.3-0.9-3.1,0.3-4.3l11-11l-11-11    c-1.3-1.3-1.2-3.4,0.2-4.6c1.3-1,3.1-0.9,4.3,0.3l11,11l11-11c1.3-1.3,3.4-1.2,4.6,0.2c1,1.3,0.9,3.1-0.3,4.3l-11,11l11,11    c1.2,1.2,1.3,3,0.3,4.3C64.5,66.7,62.3,66.8,61,65.5z M50,9.4C27.6,9.4,9.4,27.6,9.4,50S27.6,90.6,50,90.6    c10.2,0,20-3.8,27.6-10.8c1.3-1.2,1.3-3.1,0.2-4.4c-1.2-1.3-3.1-1.3-4.4-0.2c-6.4,5.9-14.7,9.2-23.3,9.2C31,84.4,15.6,69,15.6,50    S31,15.6,50,15.6S84.4,31,84.4,50c0,5.7-1.4,11.4-4.2,16.4c-0.8,1.5-0.3,3.4,1.2,4.2c1.5,0.8,3.4,0.3,4.2-1.2    c3.2-5.9,4.9-12.6,4.9-19.4C90.6,27.6,72.4,9.4,50,9.4z"></path></g><g display="none"><path display="inline" d="M78.1,90.6H21.9c-1.7,0-3.1-1.4-3.1-3.1v-75c0-1.7,1.4-3.1,3.1-3.1h34.9c2.5,0,4.9,1,6.6,2.7L80.3,29    c0.9,0.9,1.2,2.2,0.7,3.4c-0.5,1.2-1.6,1.9-2.9,1.9H59.4c-1.7,0-3.1-1.4-3.1-3.1V15.6H25v68.8h50V40.6c0-1.7,1.4-3.1,3.1-3.1    s3.1,1.4,3.1,3.1v46.9C81.2,89.2,79.9,90.6,78.1,90.6z M62.5,28.1h8.1L62.5,20V28.1z"></path></g><g display="none"><path display="inline" d="M81.2,19H65.6c0-5-4.2-10-9.4-10H43.8c-5.2,0-9.4,5-9.4,10H18.8c-1.7,0-3.1,1.3-3.1,3s1.4,3,3.1,3h62.5    c1.7,0,3.1-1.3,3.1-3S83,19,81.2,19z M43.6,19c-1.9,0-2.2-2.8-0.3-3c0.1,0,0.3,0,0.4,0h12.5c0.1,0,0.3-0.1,0.4,0    c1.9,0.2,1.6,3-0.3,3H43.6z M81.2,31.4l-3.1,56.4C78,89.5,76.7,91,75,91H25c-1.7,0-3-1.5-3.1-3.1l-3.1-56.3    c-0.1-1.7,1.2-3.2,2.9-3.3c1.7-0.1,3.2,1,3.3,2.7L28,84H72l3-53.1c0.1-1.7,1.6-2.9,3.3-2.9C80,28.1,81.3,29.7,81.2,31.4z M50,78.1    c-1.7,0-3-1.4-3-3.1V37.5c0-1.7,1.3-3.1,3-3.1s3,1.4,3,3.1V75C53,76.7,51.7,78.1,50,78.1z M37.5,78.1c-1.7,0-3.5-1.4-3.5-3.1V40.6    c0-1.7,1.8-3.1,3.5-3.1s3.5,1.4,3.5,3.1V75C41,76.7,39.2,78.1,37.5,78.1z M62.5,78.1c-1.7,0-3.5-1.4-3.5-3.1V40.6    c0-1.7,1.8-3.1,3.5-3.1s3.5,1.4,3.5,3.1V75C66,76.7,64.2,78.1,62.5,78.1z"></path></g><g display="none"><path display="inline" d="M34,51.4L34,51.4c-0.3,0.3-0.5,0.6-0.6,0.9l-6.7,18.5c-0.2,0.6,0.4,1.2,1,1l18.5-6.7    c0.4-0.2,0.7-0.4,0.9-0.6l0,0l37.4-37.4l-13-13L34,51.4z M71.3,22.9l4.2,4.2L43.4,59.2l-4.6,0.4l0.4-4.6L71.3,22.9z M81.2,84H18.8    c-1.7,0-3.1-1.3-3.1-3s1.4-3,3.1-3h62.5c1.7,0,3.1,1.3,3.1,3S83,84,81.2,84z"></path></g><g display="none"><path display="inline" d="M75,48.4c-1.7,0-3,1.4-3,3.1V78H28V22h39.5L43.1,46.3l0,0c-0.3,0.3-0.5,0.6-0.6,0.9l-6.7,18.4    c-0.2,0.6,0.4,1.2,1,1l18.5-6.7c0.4-0.2,0.7-0.4,0.9-0.6l0,0l37.4-37.4l-13-13l-7.1,7.3C72.9,16,72.4,16,71.9,16H25    c-1.7,0-3,1-3,2.8v62.5c0,1.7,1.3,2.8,3,2.8h50c1.7,0,3-1,3-2.8V51.6C78,49.8,76.7,48.4,75,48.4z M84.6,21.9L52.5,54L48,54.4    l0.4-4.6l32.1-32.1L84.6,21.9z"></path></g><g><path d="M75,31.4l-3.1,56.4c-0.1,1.7-1.5,3.1-3.1,3.1H31.2c-1.7,0-3-1.5-3.1-3.1L25,31.5c-0.1-1.7,1.2-3.2,2.9-3.3    c1.7-0.1,3.2,1,3.3,2.7l3,53.1h31.6l3-53.1c0.1-1.7,1.6-3,3.3-2.9C73.8,28.1,75.1,29.7,75,31.4z M47,75V37.5c0-1.7-1.3-3.1-3-3.1    s-3,1.4-3,3.1V75c0,1.7,1.3,3.1,3,3.1S47,76.7,47,75z M59,75V37.5c0-1.7-1.3-3.1-3-3.1s-3,1.4-3,3.1V75c0,1.7,1.3,3.1,3,3.1    S59,76.7,59,75z M81.2,22c0,1.7-1.4,3-3.1,3H21.9c-1.7,0-3.1-1.3-3.1-3s1.4-3,3.1-3h12.5c0-5,4.2-10,9.4-10h12.5    c5.2,0,9.4,5,9.4,10h12.5C79.9,19,81.2,20.3,81.2,22z M60,17.5c0-0.8-0.7-1.5-1.5-1.5h-16c-0.8,0-1.5,0.7-1.5,1.5l0,0    c0,0.8,0.7,1.5,1.5,1.5h16C59.3,19,60,18.3,60,17.5L60,17.5z"></path></g><g display="none"><g display="inline"><path d="M84.4,21.9H46.9c-1.7,0-3.1,1.4-3.1,3.1v6.2H15.6c-1.7,0-3.1,1.4-3.1,3.1v9.4c0,1.7,1.4,3.1,3.1,3.1H25v25h-6.2V56.4     c0-1.6-1.2-3.1-2.8-3.2c-1.9-0.2-3.4,1.3-3.4,3.1V75c0,1.7,1.4,3.1,3.1,3.1h68.6c1.6,0,3.1-1.2,3.2-2.8c0.2-1.9-1.3-3.4-3.1-3.4     H70.8c-0.7,0-1-0.8-0.5-1.3c2.9-2.8,4.7-6.8,4.7-11.2c0-4.4-1.8-8.3-4.7-11.2c-0.5-0.5-0.1-1.3,0.5-1.3h8.9     c0.9,0,1.6,0.7,1.6,1.6v13.9c0,1.6,1.2,3.1,2.8,3.2c1.9,0.2,3.4-1.3,3.4-3.1V43.8V25C87.5,23.3,86.1,21.9,84.4,21.9z M18.8,40.6     v-3.1h28.1c1.7,0,3.1-1.4,3.1-3.1v-6.2h31.2v12.5H18.8z M59.4,68.8c-5.2,0-9.4-4.2-9.4-9.4s4.2-9.4,9.4-9.4s9.4,4.2,9.4,9.4     S64.5,68.8,59.4,68.8z M43.8,59.4c0,4.4,1.8,8.3,4.7,11.2c0.5,0.5,0.1,1.3-0.5,1.3H32.8c-0.9,0-1.6-0.7-1.6-1.6V48.4     c0-0.9,0.7-1.6,1.6-1.6h15.1c0.7,0,1,0.8,0.5,1.3C45.6,51,43.8,55,43.8,59.4z"></path><path d="M71.9,31H59.4c-1.7,0-3.1,1.8-3.1,3.5s1.4,3.5,3.1,3.5h12.5c1.7,0,3.1-1.8,3.1-3.5S73.6,31,71.9,31z"></path><path d="M21.9,28h12.5c1.7,0,3.1-1.3,3.1-3s-1.4-3-3.1-3H21.9c-1.7,0-3.1,1.3-3.1,3S20.1,28,21.9,28z"></path></g></g><g display="none"><path display="inline" d="M69.2,17.4l-2.2,2.2l-2.2,2.2l-42,42c-0.6,0.6-0.6,0.6-0.7,1l-6.8,18.5c-0.2,0.6,0.4,1.2,1,1l18.5-6.8    c0.4-0.2,0.6,0,1.1-0.6l0.1,0.1l35.4-35.4c1.2-1.2,1.2-3.2,0-4.4c-1.2-1.2-3.2-1.2-4.4,0l-2.2,2.2l-1.7,1.7L32.3,72l-5.1,0.7    l0.7-5.1l30.8-30.8l1.7-1.7l8.8-8.8l6.6,6.6c1.2,1.2,3.2,1.2,4.4,0l2.2-2.2c3.7-3.7,3.7-9.6,0-13.3C78.8,13.8,72.8,13.8,69.2,17.4    z M78,26.3l-4.4-4.4c1.2-1.2,3.2-1.2,4.4,0C79.2,23.1,79.2,25,78,26.3z"></path></g><g display="none"><path display="inline" d="M50,90.6C27.6,90.6,9.4,72.4,9.4,50S27.6,9.4,50,9.4S90.6,27.6,90.6,50S72.4,90.6,50,90.6z M50,15.6    C31,15.6,15.6,31,15.6,50S31,84.4,50,84.4S84.4,69,84.4,50S69,15.6,50,15.6z M67.8,67.8c1.2-1.2,1.2-3.2-0.1-4.4L53,48.7V31.2    c0-1.7-1.3-3.1-3-3.1s-3,1.4-3,3.1V50c0,0.8,0.3,1.6,0.9,2.2l15.6,15.6c0.6,0.6,1.4,0.9,2.2,0.9S67.2,68.4,67.8,67.8z"></path></g><g display="none"><path display="inline" d="M84.4,84H15.6c-1.7,0-3.6-1-3.6-2.8v-50c0-1.7,1.9-3.2,3.6-3.2h12.5c1.7,0,2.9,1.5,2.9,3.2v37.5    c0,1.7-1.3,3.1-3,3.1s-3-1.4-3-3.1V34h-6v44h62V34H65.6c-1.7,0-3.6-1-3.6-2.8V22H50v9.2c0,1.7-1.4,2.8-3.1,2.8h-6.2    c-1.7,0-3.1-1.3-3.1-3s1.4-3,3.1-3H44v-9.2c0-1.7,1.1-2.8,2.9-2.8h18.8c1.7,0,3.4,1,3.4,2.8V28h15.4c1.7,0,2.6,1.5,2.6,3.2v50    C87,83,86.1,84,84.4,84z M28.1,22c0-1.7-1.4-3-3.1-3h-6.2c-1.7,0-3.1,1.3-3.1,3s1.4,3,3.1,3H25C26.7,25,28.1,23.7,28.1,22z     M87.5,22c0-1.7-1.4-3-3.1-3h-6.2c-1.7,0-3.1,1.3-3.1,3s1.4,3,3.1,3h6.2C86.1,25,87.5,23.7,87.5,22z M75,56.2    c0-10.3-8.4-18.8-18.8-18.8s-18.8,8.4-18.8,18.8S45.9,75,56.2,75S75,66.6,75,56.2z M68.8,56.2c0,6.9-5.6,12.5-12.5,12.5    s-12.5-5.6-12.5-12.5s5.6-12.5,12.5-12.5S68.8,49.4,68.8,56.2z"></path></g><g display="none"><path display="inline" d="M81.2,19H75v6h6v6H19v-6h6v-6h-6.2c-3.4,0-6.8,2.6-6.8,6v56.2c0,3.4,3.3,6.8,6.8,6.8h62.5    c3.4,0,5.8-3.3,5.8-6.8V25C87,21.6,84.7,19,81.2,19z M81,81H19V38h62V81z M34,28h-6V9h6v10h13V9h6v10h13V9h6v19h-6v-3H53v3h-6v-3    H34V28z M37,56H25V44h12V56z M56,56H44V44h12V56z M75,56H62V44h13V56z M37,75H25V63h12V75z M56,75H44V63h12V75z M75,75H62V63h13    V75z"></path></g><g display="none"><path display="inline" d="M88.1,33.8c3.6-3,5.6-7.4,5.6-11.9c0-8.6-7-15.6-15.6-15.6c-4.6,0-8.9,2.1-11.9,5.6    c-1.1,1.3-0.9,3.3,0.4,4.4c1.3,1.1,3.3,0.9,4.4-0.4c1.8-2.2,4.4-3.4,7.2-3.4c5.2,0,9.4,4.2,9.4,9.4c0,2.7-1.2,5.3-3.4,7.2    c-1.3,1.1-1.5,3.1-0.4,4.4c0.6,0.7,1.5,1.1,2.4,1.1C86.8,34.5,87.5,34.3,88.1,33.8z M15.9,33.3c1.1-1.3,1-3.3-0.3-4.4    c-2.1-1.8-3.3-4.3-3.3-7c0-5.2,4.2-9.4,9.4-9.4c2.7,0,5.3,1.2,7.2,3.4c1.1,1.3,3.1,1.5,4.4,0.4c1.3-1.1,1.5-3.1,0.4-4.4    c-3-3.6-7.4-5.6-11.9-5.6c-8.6,0-15.6,7-15.6,15.6c0,4.5,2,8.8,5.4,11.7c0.6,0.5,1.3,0.8,2,0.8C14.4,34.4,15.3,34,15.9,33.3z     M81.2,50c0-17.2-14-31.2-31.2-31.2S18.8,32.8,18.8,50s14,31.2,31.2,31.2S81.2,67.2,81.2,50z M75,50c0,13.8-11.2,25-25,25    S25,63.8,25,50s11.2-25,25-25S75,36.2,75,50z M53,50V37.5c0-1.7-1.3-3.1-3-3.1s-3,1.4-3,3.1V47h-3.2c-1.7,0-3.1,1.3-3.1,3    s1.4,3,3.1,3H50C51.7,53,53,51.7,53,50z M21.4,92.4l6.2-9.4c1-1.4,0.6-3.4-0.9-4.3c-1.4-1-3.4-0.6-4.3,0.9l-6.2,9.4    c-1,1.4-0.6,3.4,0.9,4.3c0.5,0.4,1.1,0.5,1.7,0.5C19.8,93.8,20.7,93.3,21.4,92.4z M83,93.2c1.4-1,1.8-2.9,0.9-4.3l-6.2-9.4    c-1-1.4-2.9-1.8-4.3-0.9c-1.4,1-1.8,2.9-0.9,4.3l6.2,9.4c0.6,0.9,1.6,1.4,2.6,1.4C81.8,93.8,82.5,93.6,83,93.2z"></path></g><g display="none"><path display="inline" d="M81.2,84.4H18.8c-3.4,0-6.2-2.8-6.2-6.2V34.4c0-3.4,2.8-6.2,6.2-6.2h9.4c1.7,0,3.1-1.4,3.1-3.1    c0-5.2,4.2-9.4,9.4-9.4h18.8c5.2,0,9.4,4.2,9.4,9.4c0,1.7,1.4,3.1,3.1,3.1h9.4c3.4,0,6.2,2.8,6.2,6.2v43.8    C87.5,81.6,84.7,84.4,81.2,84.4z M18.8,34.4v43.8h62.5l0-43.8h-9.4c-5.2,0-9.4-4.2-9.4-9.4c0-1.7-1.4-3.1-3.1-3.1H40.6    c-1.7,0-3.1,1.4-3.1,3.1c0,5.2-4.2,9.4-9.4,9.4H18.8z M57,70.5c1.6-0.6,2.4-2.5,1.7-4.1s-2.5-2.4-4.1-1.7    c-1.5,0.6-3.1,0.9-4.6,0.9c-6.9,0-12.5-5.6-12.5-12.5S43.1,40.6,50,40.6s12.5,5.6,12.5,12.5c0,1.6-0.3,3.1-0.9,4.6    c-0.6,1.6,0.1,3.4,1.7,4.1c1.6,0.6,3.4-0.1,4.1-1.7c0.9-2.3,1.4-4.6,1.4-7c0-10.3-8.4-18.8-18.8-18.8s-18.8,8.4-18.8,18.8    S39.7,71.9,50,71.9C52.4,71.9,54.7,71.4,57,70.5z"></path></g><g display="none"><path display="inline" d="M71,15.7L69,17.7c-11.7-6.9-26.4-6.9-38.1,0L29,15.7c-1.8-1.8-4.8-1.8-6.6,0l-6.6,6.6    c-1.8,1.8-1.8,4.8,0,6.6l1.9,1.9c-6.9,11.7-6.9,26.4,0,38.1L15.7,71c-1.8,1.8-1.8,4.8,0,6.6l6.6,6.6c1.8,1.8,4.8,1.8,6.6,0    l1.9-1.9c11.7,6.9,26.4,6.9,38.1,0l1.9,1.9c1.8,1.8,4.8,1.8,6.6,0l6.6-6.6c1.8-1.8,1.8-4.8,0-6.6L82.3,69    c6.9-11.7,6.9-26.4,0-38.1l1.9-1.9c1.8-1.8,1.8-4.8,0-6.6l-6.6-6.6C75.8,13.9,72.8,13.9,71,15.7z M62.9,23.9L58,28.7    c-0.4,0.4-1,0.5-1.6,0.4c-4.2-1.3-8.7-1.3-12.9,0c-0.6,0.2-1.2,0-1.6-0.4l-4.9-4.9c-0.8-0.8-0.5-2.1,0.5-2.5    c7.9-3.4,16.9-3.4,24.8,0C63.4,21.8,63.7,23.1,62.9,23.9z M61,61C55,67.1,45,67.1,39,61S32.9,45,39,39s16-6.1,22.1,0    S67.1,55,61,61z M25.7,21.3l11.2,11.2c-0.8,0.6-1.6,1.3-2.4,2s-1.4,1.5-2,2.4L21.3,25.7L25.7,21.3z M23.9,37.1l4.9,4.9    c0.4,0.4,0.5,1,0.4,1.6c-1.3,4.2-1.3,8.7,0,12.9c0.2,0.6,0,1.2-0.4,1.6l-4.9,4.9c-0.8,0.8-2.1,0.5-2.5-0.5    c-3.4-7.9-3.4-16.9,0-24.8C21.8,36.6,23.1,36.3,23.9,37.1z M21.3,74.3l11.2-11.2c0.6,0.8,1.3,1.6,2,2.4c0.8,0.8,1.5,1.4,2.4,2    L25.7,78.7L21.3,74.3z M37.1,76.1l4.9-4.9c0.4-0.4,1-0.5,1.6-0.4c4.2,1.3,8.7,1.3,12.9,0c0.6-0.2,1.2,0,1.6,0.4l4.9,4.9    c0.8,0.8,0.5,2.1-0.5,2.5c-7.9,3.4-16.9,3.4-24.8,0C36.6,78.2,36.3,76.9,37.1,76.1z M74.3,78.7L63.1,67.5c0.8-0.6,1.6-1.3,2.4-2    c0.8-0.8,1.4-1.5,2-2.4l11.2,11.2L74.3,78.7z M76.1,62.9L71.3,58c-0.4-0.4-0.5-1-0.4-1.6c1.3-4.2,1.3-8.7,0-12.9    c-0.2-0.6,0-1.2,0.4-1.6l4.9-4.9c0.8-0.8,2.1-0.5,2.5,0.5c3.4,7.9,3.4,16.9,0,24.8C78.2,63.4,76.9,63.7,76.1,62.9z M78.7,25.7    L67.5,36.9c-0.6-0.8-1.3-1.6-2-2.4c-0.8-0.8-1.5-1.4-2.4-2l11.2-11.2L78.7,25.7z"></path></g><g display="none"><path display="inline" d="M59.4,53c0,1.7-1.4,3-3.1,3H50c-1.7,0-3-1.1-3-2.9V40.6c0-1.7,1.3-3.1,3-3.1s3,1.4,3,3.1V50h3.2    C58,50,59.4,51.3,59.4,53z M62.5,81.2c-1.7,0-3.5,1.4-3.5,3.1v6.2c0,1.7,1.8,3.1,3.5,3.1s3.5-1.4,3.5-3.1v-6.2    C66,82.6,64.2,81.2,62.5,81.2z M79.7,43.8c-0.4,0-0.8,0.1-1.2,0.3c-0.5,0.2-0.8,0-0.9-0.5c-1.7-7-6.6-13-11.6-16.8V9.4    c0-1.8-1.9-3.3-3.8-3.1C60.6,6.4,59,7.9,59,9.5v11.9c0,1-0.8,1.8-1.8,1.5c-2.4-0.6-4.7-1-7.3-1s-4.8,0.3-7.2,1    c-1,0.3-1.8-0.5-1.8-1.5v-12c0-1.8-1.9-3.3-3.8-3.1C35.6,6.4,34,7.9,34,9.5v17.1C27,31.7,21.5,40.3,21.5,50S27,68.3,34,73.4v17.3    c0,1.8,1.9,3.3,3.8,3.1c1.6-0.2,3.2-1.6,3.2-3.2V78.6c0-1,0.8-1.8,1.8-1.5c3.1,0.9,6.4,1.2,9.9,0.9c12.1-1.1,22-10,24.7-21.5    c0.1-0.5,0.6-0.7,1.1-0.5c0.3,0.2,0.8,0.2,1.2,0.3c1.8,0.1,3.3-1.5,3.3-3.3V47C83,45.3,81.5,43.7,79.7,43.8z M50,71.9    c-12.1,0-21.9-9.8-21.9-21.9S37.9,28.1,50,28.1S71.9,37.9,71.9,50S62.1,71.9,50,71.9z"></path></g><g display="none"><g display="inline"><path d="M85.9,28.1H67.2c-0.9,0-1.6-0.7-1.6-1.6v-4.7c0-3.5-2.8-6.2-6.2-6.2H40.6c-3.5,0-6.2,2.8-6.2,6.2v4.7     c0,0.9-0.7,1.6-1.6,1.6h-4.7h-6.2h-7.8c-2.6,0-4.7,2.1-4.7,4.7v46.9c0,2.6,2.1,4.7,4.7,4.7h71.9c2.6,0,4.7-2.1,4.7-4.7V32.8     C90.6,30.2,88.5,28.1,85.9,28.1z M41.4,21.9h17.2c0.4,0,0.8,0.3,0.8,0.8v5.5H40.6v-5.5C40.6,22.2,41,21.9,41.4,21.9z M72,34v16.8     c-7,3.5-14.4,5.4-22,5.4c-7.6,0-15-1.9-22-5.4V34H72z M16,78V34h6v44H16z M28,57.8c7,3.1,14.4,4.7,22,4.7c7.6,0,15-1.6,22-4.7V78     H28V57.8z M84,78h-6V34h6V78z"></path><rect x="47" y="41" width="6" height="9"></rect></g></g><g display="none"><g display="inline"><path d="M70.3,46.9H39.1c-0.9,0-1.6-0.7-1.6-1.6V31.6c0-6.7,5.2-12.5,11.9-12.8c7.2-0.4,13.1,5.4,13.1,12.5v6.1     c0,1.6,1.2,3.1,2.8,3.2c1.9,0.2,3.4-1.3,3.4-3.1v-5.8c0-10.5-8.6-19.4-19.1-19.2C39.5,12.7,31.2,21,31.2,31.2v14.1     c0,0.9-0.7,1.6-1.6,1.6h0c-2.6,0-4.7,2.1-4.7,4.7v34.4c0,2.6,2.1,4.7,4.7,4.7h40.6c2.6,0,4.7-2.1,4.7-4.7V51.6     C75,49,72.9,46.9,70.3,46.9z M68,84.4H32c-0.4,0-0.8-0.3-0.8-0.8V53.9c0-0.4,0.3-0.8,0.8-0.8H68c0.4,0,0.8,0.3,0.8,0.8v29.7     C68.8,84,68.4,84.4,68,84.4z"></path><path d="M50,62.5L50,62.5c-1.7,0-3.1,1.4-3.1,3.1V75h6.2v-9.4C53.1,63.9,51.7,62.5,50,62.5z"></path></g></g><g display="none"><path display="inline" d="M59.4,53c0,1.7-1.4,3-3.1,3H50c-1.7,0-3-1.1-3-2.9v-9.4c0-1.7,1.3-3.1,3-3.1s3,1.4,3,3.1V50h3.2    C58,50,59.4,51.3,59.4,53z M81,37.5v9.4c0,1.7-1.1,3.1-2.9,3.1H75v15.6c0,4.8-2.7,9-6.7,11.1l-0.1,0.7c-1.5,3-2.1,6.4-2.1,9.8v3.5    c0,0.9-0.6,1.7-1.2,2.3c-0.5,0.4-4.8,3.9-14.7,3.9c-9.7,0-14.3-3.5-14.7-3.9c-0.7-0.6-1.3-1.5-1.3-2.4v-3.5c0-3.4-0.6-6.8-2.1-9.8    l-0.2-0.7c-4-2.1-6.6-6.3-6.6-11.1V34.4c0-4.8,2.7-9,6.7-11.1l0.1-0.7c1.5-3,2.1-6.4,2.1-9.8V9.4c0-0.8,0.5-1.6,1.1-2.2    c0.7-0.7,4.6-4,14.8-4s14.3,3.4,14.9,4C65.4,7.8,66,8.5,66,9.4v3.5c0,3.4,0.6,6.8,2.1,9.8l0.2,0.5C72.4,25.2,75,30,75,34h3.1    C79.9,34,81,35.8,81,37.5z M41,12.8c0,2.4-0.5,4.8-1.1,7.1c-0.3,1,0.3,2,1.3,2h17.6c1,0,1.6-1,1.3-2c-0.6-2.3-1.1-4.7-1.1-7.1    v-1.8c-1-0.7-3.9-1.7-9-1.7s-8,1-9,1.7V12.8z M59,87.2c0-2.4,0.5-4.8,1.1-7.1c0.3-1-0.3-2-1.3-2H41.2c-1,0-1.6,1-1.3,2    c0.6,2.3,1.1,4.7,1.1,7.1v1.7c1,0.7,4.1,1.8,9,1.8c4.9,0,8-1,9-1.7V87.2z M69,34.2c0-3.5-2.8-6.2-6.2-6.2H37.2    c-3.5,0-6.2,2.8-6.2,6.2v31.5c0,3.5,2.8,6.2,6.2,6.2h25.5c3.5,0,6.2-2.8,6.2-6.2V34.2z"></path></g><g display="none"><g display="inline"><rect x="66" y="53" width="6" height="6"></rect><path d="M83.6,40.6h-2.3V29.7c0-2.6-2.1-4.7-4.7-4.7H22c-1.6,0-3.1-1.2-3.2-2.8c-0.2-1.9,1.3-3.4,3.1-3.4h53     c1.6,0,3.1-1.2,3.2-2.8c0.2-1.9-1.3-3.4-3.1-3.4H22.1c-4.9,0-9.1,3.6-9.6,8.5c-0.5,5.6,3.9,10.3,9.3,10.3H75v7.8     c0,0.9-0.7,1.6-1.6,1.6H66c-8.5,0-15.7,6.6-16,15c-0.3,8.9,6.8,16.2,15.6,16.2h7.8c0.9,0,1.6,0.7,1.6,1.6v7.8H18.8V37.6     c0-1.6-1.2-3.1-2.8-3.2c-1.9-0.2-3.4,1.3-3.4,3.1v45.3c0,2.6,2.1,4.7,4.7,4.7h59.4c2.6,0,4.7-2.1,4.7-4.7V71.9h2.3     c2.2,0,3.9-1.7,3.9-3.9V44.5C87.5,42.4,85.8,40.6,83.6,40.6z M80.5,65.6H65.9c-4.9,0-9.1-3.6-9.6-8.5c-0.5-5.6,3.9-10.3,9.3-10.3     h14.8c0.4,0,0.8,0.3,0.8,0.8v17.2C81.2,65.3,80.9,65.6,80.5,65.6z"></path></g></g><g display="none"><path display="inline" d="M21.9,66c0-1.7,1.4-3,3.1-3h12.5c1.7,0,3.1,1.3,3.1,3s-1.4,3-3.1,3H25C23.3,69,21.9,67.7,21.9,66z     M50,69h6.2c1.7,0,3.1-1.3,3.1-3s-1.4-3-3.1-3H50c-1.7,0-3.1,1.3-3.1,3S48.3,69,50,69z M71.9,69H75c1.7,0,3.1-1.3,3.1-3    s-1.4-3-3.1-3h-3.1c-1.7,0-3.1,1.3-3.1,3S70.1,69,71.9,69z M91,28.1v2.3v0.8v3.1v2.3v43c0,2.6-2.5,4.3-5.1,4.3H14.1    C11.5,84,9,82.3,9,79.7v-43v-2.3v-3.1v-1.6v-1.6C9,23,13.6,19,18.8,19h62.5C86.4,19,91,23,91,28.1z M84,47H16v31h68V47z M84,30.5    v-2.3c0-1.7-1-3.1-2.8-3.1H18.8C17,25,16,26.4,16,28.1v1.6v1.6V34h68v-2.8V30.5z"></path></g></g></svg>