<?xml version="1.0" encoding="UTF-8" standalone="no"?>
<svg width="76px" height="62px" viewBox="0 0 76 62" version="1.1" xmlns="http://www.w3.org/2000/svg" xmlns:xlink="http://www.w3.org/1999/xlink">
    <!-- Generator: Sketch 3.6.1 (26313) - http://www.bohemiancoding.com/sketch -->
    <title>Untitled</title>
    <desc>Created with Sketch.</desc>
    <defs></defs>
    <g id="Page-1" stroke="none" stroke-width="1" fill="none" fill-rule="evenodd">
        <g id="noun_76004" transform="translate(38.000000, 31.000000) scale(-1, 1) translate(-38.000000, -31.000000) " fill="#FFFFFF">
            <path d="M75.04,31.34 C75.04,31.43 75.04,31.52 75.03,31.6 C74.99,32.1 74.849,32.58 74.62,33 C74.61,33.03 74.59,33.06 74.559,33.09 C74.379,33.35 74.129,33.64 73.789,34.01 L73.759,34.04 C73.4,34.42 72.929,34.89 72.329,35.49 L63.259,44.559 C62.579,45.249 61.679,45.589 60.78,45.589 C59.889,45.589 58.99,45.249 58.309,44.559 C56.94,43.2 56.94,40.98 58.309,39.62 C58.309,39.62 60.61,37.309 63.089,34.84 L31.41,34.84 C29.48,34.84 27.91,33.27 27.91,31.34 C27.91,29.4 29.48,27.84 31.41,27.84 L63.09,27.84 L58.31,23.06 C56.941,21.69 56.941,19.48 58.31,18.11 C59.68,16.74 61.89,16.74 63.26,18.11 L74.01,28.86 C74.67,29.52 75.04,30.41 75.04,31.34 L75.04,31.34 Z" id="Shape"></path>
            <path d="M74.56,33.09 C74.371,33.441 74.1,33.75 73.79,34.01 C74.13,33.64 74.38,33.35 74.56,33.09 L74.56,33.09 Z" id="Shape"></path>
            <path id="Shape" d="M75.03,31.6 C75.019,32.151 74.94,32.54 74.62,33 C74.85,32.58 74.99,32.1 75.03,31.6 L75.03,31.6 Z"></path>
            <path d="M51.98,49.09 C53.269,50.53 53.139,52.74 51.7,54.03 C46.12,59.03 38.91,61.78 31.41,61.78 C14.62,61.78 0.96,48.12 0.96,31.34 C0.96,14.55 14.62,0.89 31.41,0.89 C38.91,0.89 46.12,3.64 51.7,8.64 C53.139,9.93 53.269,12.14 51.98,13.58 C50.69,15.02 48.48,15.15 47.04,13.86 C42.74,10.01 37.19,7.89 31.41,7.89 C18.48,7.89 7.96,18.41 7.96,31.34 C7.96,44.27 18.48,54.78 31.41,54.78 C37.19,54.78 42.74,52.66 47.04,48.82 C48.48,47.53 50.69,47.65 51.98,49.09 L51.98,49.09 Z" id="Shape"></path>
        </g>
    </g>
</svg>