<?xml version="1.0" encoding="UTF-8" standalone="no"?>
<svg width="58px" height="75px" viewBox="0 0 58 75" version="1.1" xmlns="http://www.w3.org/2000/svg" xmlns:xlink="http://www.w3.org/1999/xlink" xmlns:sketch="http://www.bohemiancoding.com/sketch/ns">
    <!-- Generator: Sketch 3.5.2 (25235) - http://www.bohemiancoding.com/sketch -->
    <title>Untitled</title>
    <desc>Created with Sketch.</desc>
    <defs></defs>
    <g id="Page-1" stroke="none" stroke-width="1" fill="none" fill-rule="evenodd" sketch:type="MSPage">
        <text id="+" sketch:type="MSTextLayer" font-family="Gotham Rounded" font-size="38" font-weight="420" fill="#FFFFFF">
            <tspan x="33" y="30">+</tspan>
        </text>
        <path d="M19.761,72.892 C18.841,73.741 17.592,74.165 15.988,74.165 C14.385,74.165 13.135,73.741 12.215,72.892 C11.296,72.043 10.848,71.029 10.848,69.803 C10.848,68.624 11.296,67.587 12.192,66.761 C13.088,65.912 14.361,65.488 15.988,65.488 C17.615,65.488 18.888,65.912 19.784,66.738 C20.68,67.563 21.128,68.577 21.128,69.803 C21.128,71.029 20.68,72.043 19.761,72.892 L19.761,72.892 Z" id="Path" fill="#FFFFFF" sketch:type="MSShapeGroup"></path>
        <path d="M20.728,52.237 C20.728,58.32 11.297,58.297 11.297,52.237 L11.297,44.126 C11.297,41.415 13.466,39.575 16.013,39.41 C21.2,39.009 24.124,33.02 20.234,29.13 C16.32,25.216 10.331,28.14 9.954,33.351 C9.506,39.364 0.075,39.411 0.523,33.351 C1.49,20.288 16.887,12.366 26.931,22.411 C35.7,31.181 30.796,44.031 20.728,47.804 L20.728,52.237 Z" id="Path" fill="#FFFFFF" sketch:type="MSShapeGroup"></path>
    </g>
</svg>