<?xml version="1.0" encoding="UTF-8" standalone="no"?>
<svg width="100px" height="100px" viewBox="0 0 100 100" version="1.1" xmlns="http://www.w3.org/2000/svg" xmlns:xlink="http://www.w3.org/1999/xlink">
    <!-- Generator: Sketch 3.6.1 (26313) - http://www.bohemiancoding.com/sketch -->
    <title>Shape</title>
    <desc>Created with Sketch.</desc>
    <defs></defs>
    <g id="Page-1" stroke="none" stroke-width="1" fill="none" fill-rule="evenodd">
        <path d="M87.929,49 C81.31,42.237 77.629,33.351 77.527,23.888 L86.063,15.352 L84.649,13.938 L76.112,22.475 C66.648,22.371 57.763,18.69 51,12.073 L51,0 L49,0 L49,12.072 C42.236,18.691 33.35,22.372 23.887,22.474 L15.351,13.938 L13.937,15.352 L22.474,23.889 C22.371,33.352 18.69,42.238 12.072,49.001 L0,49.001 L0,51.001 L12.072,51.001 C18.691,57.765 22.371,66.651 22.473,76.114 L13.938,84.649 L15.352,86.063 L23.889,77.526 C33.351,77.629 42.237,81.31 49,87.927 L49,100 L51,100 L51,87.929 C57.764,81.311 66.649,77.63 76.113,77.528 L84.648,86.063 L86.062,84.649 L77.526,76.113 C77.628,66.65 81.309,57.764 87.928,51 L100,51 L100,49 L87.929,49 L87.929,49 Z M52.414,49 L58.034,43.38 C58.369,45.413 59.161,47.325 60.362,49 L52.414,49 L52.414,49 Z M51,47.586 L51,39.638 C52.674,40.839 54.586,41.631 56.621,41.966 L51,47.586 L51,47.586 Z M49,47.587 L43.379,41.966 C45.413,41.631 47.325,40.839 49,39.638 L49,47.587 L49,47.587 Z M47.585,49 L39.643,49 C40.843,47.326 41.634,45.416 41.969,43.384 L47.585,49 L47.585,49 Z M47.586,51 L41.967,56.619 C41.632,54.586 40.84,52.674 39.639,51 L47.586,51 L47.586,51 Z M49,52.415 L49,60.361 C47.326,59.16 45.414,58.369 43.381,58.034 L49,52.415 L49,52.415 Z M51,52.415 L56.622,58.037 C54.588,58.372 52.675,59.164 51,60.367 L51,52.415 L51,52.415 Z M52.414,51 L60.362,51 C59.16,52.675 58.368,54.586 58.034,56.62 L52.414,51 L52.414,51 Z M62.941,49 C61.034,46.959 59.952,44.346 59.858,41.556 L66.783,34.631 C67.247,39.941 69.308,44.917 72.734,49 L62.941,49 L62.941,49 Z M58.445,40.142 C55.653,40.047 53.04,38.965 51,37.059 L51,27.265 C55.083,30.692 60.059,32.753 65.37,33.217 L58.445,40.142 L58.445,40.142 Z M49,37.059 C46.96,38.966 44.347,40.048 41.555,40.142 L34.629,33.216 C39.94,32.752 44.917,30.692 49,27.265 L49,37.059 L49,37.059 Z M40.145,41.56 C40.051,44.349 38.969,46.961 37.064,49 L27.27,49 C30.695,44.918 32.755,39.943 33.22,34.635 L40.145,41.56 L40.145,41.56 Z M37.059,51 C38.966,53.04 40.048,55.653 40.142,58.443 L33.215,65.37 C32.752,60.06 30.691,55.083 27.265,51 L37.059,51 L37.059,51 Z M41.557,59.858 C44.348,59.953 46.961,61.034 49,62.94 L49,72.734 C44.917,69.308 39.941,67.247 34.631,66.783 L41.557,59.858 L41.557,59.858 Z M51,62.947 C53.04,61.039 55.654,59.956 58.446,59.862 L65.759,67.175 C60.292,67.606 55.171,69.728 51,73.288 L51,62.947 L51,62.947 Z M59.858,58.445 C59.952,55.654 61.034,53.041 62.941,51.001 L72.735,51.001 C69.309,55.084 67.248,60.061 66.783,65.371 L59.858,58.445 L59.858,58.445 Z M85.196,49 L75.427,49 C71.169,44.599 68.788,38.851 68.688,32.727 L75.594,25.821 C76.108,34.449 79.458,42.536 85.196,49 L85.196,49 Z M74.18,24.407 L67.274,31.313 C61.149,31.213 55.401,28.832 51,24.572 L51,14.806 C57.464,20.543 65.55,23.893 74.18,24.407 L74.18,24.407 Z M49,14.805 L49,24.573 C44.598,28.832 38.85,31.213 32.725,31.312 L25.82,24.407 C34.449,23.893 42.536,20.543 49,14.805 L49,14.805 Z M24.406,25.821 L31.316,32.731 C31.215,38.853 28.835,44.6 24.578,49 L14.805,49 C20.542,42.536 23.892,34.45 24.406,25.821 L24.406,25.821 Z M14.805,51.001 L24.573,51.001 C28.832,55.402 31.212,61.151 31.312,67.275 L24.406,74.181 C23.893,65.553 20.543,57.466 14.805,51.001 L14.805,51.001 Z M25.821,75.593 L32.728,68.687 C38.852,68.788 44.599,71.169 49,75.427 L49,85.194 C42.536,79.457 34.45,76.107 25.821,75.593 L25.821,75.593 Z M51,85.197 L51,75.996 C55.478,71.58 61.385,69.133 67.674,69.089 L74.18,75.595 C65.551,76.109 57.464,79.458 51,85.197 L51,85.197 Z M75.594,74.181 L68.688,67.275 C68.789,61.151 71.17,55.403 75.428,51.001 L85.196,51.001 C79.457,57.465 76.107,65.552 75.594,74.181 L75.594,74.181 Z" id="Shape" fill="#FFFFFF"></path>
    </g>
</svg>