<svg id="svg" version="1.1" width="400" height="300" xmlns="http://www.w3.org/2000/svg" xmlns:xlink="http://www.w3.org/1999/xlink" style="display: block;"><g id="svgg"><path id="path0" d="M112.464 10.172 C 160.609 10.253,239.391 10.253,287.536 10.172 C 335.681 10.091,296.289 10.025,200.000 10.025 C 103.711 10.025,64.319 10.091,112.464 10.172 M26.050 45.559 C 26.050 58.797,26.126 64.130,26.217 57.411 C 26.309 50.692,26.309 39.861,26.217 33.343 C 26.125 26.824,26.050 32.321,26.050 45.559 M298.172 26.648 C 298.175 28.539,298.282 29.243,298.410 28.213 C 298.537 27.183,298.534 25.636,298.404 24.775 C 298.273 23.914,298.169 24.756,298.172 26.648 M211.691 61.605 C 211.691 66.332,211.780 68.190,211.888 65.733 C 211.995 63.276,211.995 59.408,211.886 57.137 C 211.778 54.866,211.690 56.877,211.691 61.605 M26.504 83.474 C 25.944 83.700,25.818 89.201,25.925 108.787 L 26.062 133.811 26.218 109.220 C 26.325 92.237,26.571 84.392,27.010 83.862 C 27.685 83.049,27.641 83.015,26.504 83.474 M200.129 90.544 C 200.110 94.398,200.264 96.015,200.558 95.042 C 200.810 94.206,200.824 91.498,200.589 89.025 L 200.160 84.527 200.129 90.544 M298.256 108.309 C 298.256 121.074,298.331 126.297,298.423 119.914 C 298.516 113.532,298.516 103.087,298.423 96.705 C 298.331 90.322,298.256 95.544,298.256 108.309 M211.689 124.355 C 211.689 128.926,211.778 130.795,211.887 128.510 C 211.996 126.225,211.996 122.486,211.887 120.201 C 211.778 117.915,211.689 119.785,211.689 124.355 M25.925 170.283 C 25.800 193.021,25.873 195.326,26.729 195.654 C 27.471 195.939,27.533 195.850,27.021 195.234 C 26.567 194.687,26.327 187.097,26.218 169.863 L 26.062 145.272 25.925 170.283 M298.182 151.576 C 298.185 153.782,298.288 154.615,298.412 153.426 C 298.537 152.237,298.534 150.431,298.408 149.414 C 298.281 148.397,298.180 149.370,298.182 151.576 M211.686 169.054 C 211.686 173.309,211.776 175.050,211.886 172.923 C 211.997 170.795,211.997 167.314,211.886 165.186 C 211.776 163.059,211.686 164.799,211.686 169.054 M200.129 188.539 L 200.160 194.556 200.589 190.058 C 200.824 187.585,200.810 184.877,200.558 184.041 C 200.264 183.068,200.110 184.685,200.129 188.539 M298.178 212.607 C 298.178 214.656,298.282 215.494,298.409 214.470 C 298.536 213.446,298.536 211.769,298.409 210.745 C 298.282 209.721,298.178 210.559,298.178 212.607 M26.050 233.238 C 26.050 246.318,26.125 251.669,26.217 245.129 C 26.309 238.589,26.309 227.887,26.217 221.347 C 26.125 214.807,26.050 220.158,26.050 233.238 M211.682 230.946 C 211.682 234.885,211.774 236.497,211.886 234.527 C 211.998 232.557,211.998 229.334,211.886 227.364 C 211.774 225.394,211.682 227.006,211.682 230.946 M200.144 250.143 C 200.155 256.156,200.175 256.261,200.581 252.419 C 200.815 250.203,200.810 247.367,200.569 246.115 C 200.259 244.499,200.135 245.666,200.144 250.143 M112.704 269.198 C 160.666 269.279,239.319 269.279,287.489 269.198 C 335.660 269.117,296.418 269.051,200.287 269.051 C 104.155 269.051,64.743 269.117,112.704 269.198 " stroke="none" fill="#a6a6a6" fill-rule="evenodd"></path><path id="path1" d="M112.751 9.599 C 160.738 9.680,239.262 9.680,287.249 9.599 C 335.236 9.518,295.974 9.452,200.000 9.452 C 104.026 9.452,64.764 9.518,112.751 9.599 M200.287 10.315 L 25.501 10.605 200.000 10.706 C 296.297 10.762,375.012 10.587,375.645 10.315 C 376.275 10.044,376.404 9.868,375.931 9.924 C 375.458 9.980,296.418 10.156,200.287 10.315 M19.594 11.504 C 19.707 11.843,20.044 12.120,20.344 12.120 C 20.643 12.120,20.981 11.843,21.094 11.504 C 21.207 11.165,20.869 10.888,20.344 10.888 C 19.819 10.888,19.481 11.165,19.594 11.504 M378.797 11.748 C 379.189 12.221,379.736 12.607,380.013 12.607 C 380.289 12.607,380.516 12.221,380.516 11.748 C 380.516 11.254,379.999 10.888,379.299 10.888 C 378.283 10.888,378.201 11.030,378.797 11.748 M15.558 15.857 C 14.519 16.981,14.935 17.283,16.224 16.341 C 16.794 15.924,17.052 15.456,16.796 15.301 C 16.541 15.147,15.984 15.397,15.558 15.857 M383.190 15.282 C 383.010 15.462,383.237 15.984,383.695 16.442 C 384.153 16.899,384.528 17.707,384.529 18.236 C 384.766 129.669,384.717 260.172,384.438 260.172 C 384.231 260.172,384.181 260.631,384.328 261.191 C 384.475 261.752,384.064 262.823,383.415 263.571 C 382.148 265.033,381.831 267.049,382.869 267.049 C 383.219 267.049,383.344 266.632,383.147 266.120 C 382.926 265.544,383.284 264.765,384.089 264.066 L 385.387 262.941 385.387 139.882 C 385.387 26.869,385.311 16.747,384.452 15.889 C 383.938 15.375,383.370 15.102,383.190 15.282 M14.721 18.926 C 14.153 21.051,14.329 259.130,14.900 260.458 C 15.231 261.231,15.408 261.324,15.441 260.745 C 15.485 259.981,15.552 259.981,16.046 260.745 C 16.434 261.346,16.604 261.384,16.610 260.870 C 16.615 260.466,16.297 260.012,15.903 259.861 C 15.332 259.642,15.215 235.066,15.328 139.105 C 15.469 19.524,15.452 16.194,14.721 18.926 M26.600 21.156 C 26.089 21.666,26.393 22.970,26.943 22.630 C 27.264 22.432,27.417 22.095,27.285 21.880 C 27.152 21.666,46.295 21.558,69.825 21.640 L 112.607 21.790 112.442 45.136 C 112.283 67.516,112.405 71.060,113.335 71.060 C 113.906 71.060,113.631 21.545,113.059 21.354 C 112.289 21.097,26.854 20.901,26.600 21.156 M125.167 21.156 C 124.707 21.615,124.934 22.350,125.535 22.350 C 125.869 22.350,126.023 22.156,125.876 21.920 C 125.301 20.989,199.084 21.417,199.810 22.349 C 200.178 22.821,200.660 23.027,200.881 22.806 C 201.102 22.585,200.930 22.070,200.498 21.661 C 199.753 20.954,125.864 20.459,125.167 21.156 M211.573 21.777 C 211.400 22.249,210.982 22.826,210.644 23.057 C 210.230 23.340,210.263 23.481,210.745 23.487 C 211.297 23.494,211.489 26.957,211.583 38.539 L 211.704 53.582 212.044 37.536 C 212.231 28.711,212.435 21.490,212.496 21.490 C 256.352 21.490,286.252 21.895,286.622 22.494 C 286.900 22.943,287.024 22.785,286.969 22.056 C 286.853 20.505,212.141 20.229,211.573 21.777 M298.567 21.355 C 298.567 21.596,315.305 21.725,335.762 21.641 C 356.219 21.558,372.848 21.666,372.715 21.880 C 372.583 22.095,372.736 22.432,373.057 22.630 C 373.377 22.828,373.639 22.524,373.639 21.954 C 373.639 20.964,371.936 20.917,336.103 20.917 C 315.459 20.917,298.567 21.114,298.567 21.355 M373.972 23.230 C 373.407 25.477,373.644 69.567,374.225 70.508 C 374.534 71.007,374.752 61.442,374.773 46.558 C 374.806 22.417,374.730 20.209,373.972 23.230 M297.421 34.350 C 297.421 42.189,297.623 45.903,298.065 46.176 C 298.536 46.467,298.652 43.402,298.495 34.750 C 298.221 19.619,297.421 19.322,297.421 34.350 M212.033 62.751 C 211.876 67.163,211.812 70.881,211.891 71.012 C 212.453 71.948,212.619 69.587,212.480 62.686 L 212.319 54.728 212.033 62.751 M27.794 71.633 C 27.559 72.013,41.839 72.206,70.201 72.206 C 98.562 72.206,112.842 72.013,112.607 71.633 C 112.119 70.843,28.282 70.843,27.794 71.633 M127.221 71.633 C 127.221 72.009,139.553 72.206,163.071 72.206 C 186.825 72.206,198.802 72.013,198.567 71.633 C 198.337 71.261,185.763 71.060,162.717 71.060 C 139.435 71.060,127.221 71.257,127.221 71.633 M213.181 71.633 C 213.181 72.009,225.692 72.206,249.570 72.206 C 273.448 72.206,285.960 72.009,285.960 71.633 C 285.960 71.257,273.448 71.060,249.570 71.060 C 225.692 71.060,213.181 71.257,213.181 71.633 M300.000 71.633 C 299.765 72.013,311.944 72.206,336.103 72.206 C 360.262 72.206,372.441 72.013,372.206 71.633 C 371.976 71.261,359.318 71.060,336.103 71.060 C 312.889 71.060,300.230 71.261,300.000 71.633 M25.804 83.362 C 25.420 83.824,25.240 84.533,25.402 84.938 C 25.588 85.400,25.714 85.301,25.743 84.670 C 25.768 84.119,26.038 83.668,26.343 83.668 C 26.648 83.668,26.753 84.119,26.576 84.670 C 26.313 85.488,26.362 85.520,26.842 84.841 C 27.166 84.383,27.344 83.868,27.237 83.695 C 27.131 83.522,46.537 83.449,70.363 83.532 C 103.801 83.648,113.527 83.837,113.001 84.362 C 112.111 85.253,112.016 132.122,112.903 132.671 C 113.224 132.869,113.311 133.335,113.098 133.707 C 112.885 134.079,112.884 134.230,113.096 134.042 C 113.574 133.619,113.646 83.848,113.170 83.078 C 112.545 82.067,26.647 82.346,25.804 83.362 M125.607 83.254 C 125.150 83.804,132.964 83.954,162.083 83.954 L 199.140 83.954 199.462 89.112 L 199.783 94.269 199.991 89.398 L 200.198 84.527 200.573 88.252 L 200.948 91.977 201.047 88.344 C 201.218 82.059,204.493 82.549,162.377 82.552 C 134.579 82.554,126.053 82.717,125.607 83.254 M211.803 83.444 C 211.615 83.934,211.520 91.598,211.591 100.477 L 211.721 116.619 212.021 100.287 L 212.321 83.954 249.427 83.807 C 277.532 83.695,286.533 83.822,286.533 84.332 C 286.533 84.702,286.668 84.870,286.833 84.705 C 286.998 84.540,286.969 83.978,286.769 83.455 C 286.228 82.046,212.344 82.035,211.803 83.444 M298.567 83.111 C 298.567 83.465,311.969 83.668,335.496 83.668 C 361.872 83.668,372.537 83.849,372.817 84.302 C 373.074 84.718,373.332 84.737,373.567 84.357 C 373.764 84.038,373.926 94.946,373.926 108.596 C 373.926 122.247,373.764 133.154,373.567 132.836 C 373.328 132.448,373.088 132.453,372.842 132.851 C 372.392 133.579,373.421 134.300,374.212 133.811 C 375.183 133.211,374.977 83.968,374.001 83.157 C 372.982 82.311,298.567 82.266,298.567 83.111 M297.421 108.562 C 297.421 121.624,297.615 132.430,297.851 132.576 C 298.087 132.723,298.281 122.036,298.281 108.828 C 298.281 95.620,298.087 84.814,297.851 84.814 C 297.615 84.814,297.421 95.501,297.421 108.562 M200.371 95.845 C 199.786 99.152,199.967 125.987,200.577 126.363 C 200.949 126.593,201.146 121.038,201.146 110.349 C 201.146 94.282,201.031 92.118,200.371 95.845 M212.013 124.780 C 211.845 129.940,211.959 133.022,212.321 133.161 C 212.685 133.301,212.838 131.368,212.742 127.866 C 212.453 117.392,212.277 116.648,212.013 124.780 M25.224 132.774 C 25.211 133.763,26.364 134.323,27.034 133.654 C 27.416 133.272,27.399 132.952,26.984 132.696 C 26.641 132.484,26.357 132.648,26.352 133.061 C 26.346 133.606,26.192 133.576,25.788 132.951 C 25.454 132.435,25.229 132.364,25.224 132.774 M199.738 132.912 C 199.346 133.545,200.250 134.229,200.780 133.700 C 201.325 133.155,201.223 132.378,200.607 132.378 C 200.310 132.378,199.919 132.618,199.738 132.912 M25.447 145.647 C 25.193 146.057,25.290 146.153,25.699 145.900 C 26.063 145.675,26.361 145.779,26.361 146.132 C 26.361 146.484,26.623 146.611,26.943 146.413 C 27.584 146.016,27.164 144.986,26.361 144.986 C 26.083 144.986,25.672 145.283,25.447 145.647 M112.937 145.272 C 113.014 145.587,112.898 146.246,112.680 146.737 C 112.462 147.227,112.357 158.377,112.446 171.515 L 112.607 195.402 69.825 195.552 C 46.295 195.634,27.131 195.561,27.237 195.388 C 27.344 195.215,27.223 194.737,26.968 194.324 C 26.659 193.823,26.504 194.071,26.504 195.068 L 26.504 196.562 69.437 196.562 C 100.515 196.562,112.560 196.383,113.061 195.915 C 113.786 195.238,113.862 145.763,113.140 145.040 C 112.952 144.853,112.861 144.957,112.937 145.272 M211.600 153.438 C 211.631 162.656,211.914 161.650,212.163 151.432 C 212.250 147.886,212.152 144.985,211.946 144.985 C 211.740 144.985,211.585 148.789,211.600 153.438 M373.066 145.545 C 373.066 145.905,373.259 146.080,373.496 145.934 C 373.732 145.788,373.926 156.837,373.926 170.487 C 373.926 184.138,373.736 195.008,373.504 194.644 C 373.140 194.072,372.881 194.432,372.950 195.415 C 372.961 195.573,356.383 195.702,336.110 195.702 C 315.837 195.702,299.369 195.509,299.515 195.272 C 299.662 195.036,299.508 194.842,299.174 194.842 C 298.840 194.842,298.567 195.229,298.567 195.702 C 298.567 196.937,373.124 197.013,374.148 195.779 C 375.125 194.601,374.771 145.458,373.782 145.129 C 373.388 144.998,373.066 145.185,373.066 145.545 M297.421 157.307 C 297.421 164.870,297.620 168.481,298.035 168.481 C 298.457 168.481,298.591 164.985,298.465 157.309 C 298.364 151.163,298.087 146.135,297.851 146.134 C 297.615 146.133,297.421 151.160,297.421 157.307 M200.328 152.941 C 199.817 153.769,200.028 181.986,200.559 183.757 C 200.857 184.752,201.067 178.973,201.097 168.911 C 201.144 153.272,201.070 151.741,200.328 152.941 M212.032 169.744 C 211.876 173.748,211.950 176.821,212.197 176.573 C 212.444 176.325,212.571 173.049,212.481 169.293 L 212.316 162.464 212.032 169.744 M199.403 189.971 L 199.140 195.129 162.821 195.415 C 134.170 195.642,126.444 195.551,126.228 194.989 C 126.077 194.597,125.722 194.420,125.437 194.596 C 122.592 196.354,126.548 196.562,162.567 196.543 C 204.535 196.520,201.354 197.003,200.998 190.716 L 200.794 187.106 200.577 190.831 L 200.360 194.556 200.012 189.685 L 199.665 184.814 199.403 189.971 M286.326 194.556 C 286.617 195.314,282.343 195.415,249.966 195.415 C 221.150 195.415,213.214 195.262,212.987 194.699 C 212.828 194.305,212.678 194.563,212.653 195.272 L 212.607 196.562 249.509 196.562 C 282.630 196.562,286.446 196.469,286.758 195.655 C 287.258 194.354,287.188 193.696,286.551 193.696 C 286.246 193.696,286.144 194.083,286.326 194.556 M28.080 207.450 C 28.615 207.795,44.536 208.005,70.201 208.005 C 95.865 208.005,111.786 207.795,112.321 207.450 C 112.880 207.089,98.158 206.894,70.201 206.894 C 42.243 206.894,27.521 207.089,28.080 207.450 M127.794 207.450 C 128.324 207.793,141.812 208.005,163.037 208.005 C 184.262 208.005,197.750 207.793,198.281 207.450 C 198.841 207.088,186.555 206.894,163.037 206.894 C 139.520 206.894,127.234 207.088,127.794 207.450 M213.467 207.450 C 213.943 208.220,284.767 208.220,285.960 207.450 C 286.520 207.088,273.971 206.891,249.966 206.886 C 225.541 206.880,213.232 207.070,213.467 207.450 M299.713 207.450 C 299.713 208.222,370.725 208.222,371.920 207.450 C 372.480 207.088,360.045 206.891,336.246 206.886 C 312.267 206.880,299.713 207.074,299.713 207.450 M373.495 207.785 C 373.327 207.952,373.302 208.526,373.439 209.059 C 373.858 210.695,373.952 256.640,373.535 256.383 C 373.321 256.250,372.983 256.404,372.785 256.724 C 372.548 257.108,360.173 257.320,336.499 257.347 C 316.740 257.369,300.131 257.562,299.591 257.777 C 299.051 257.991,315.397 258.104,335.916 258.028 C 362.953 257.928,373.440 257.709,374.014 257.233 C 374.667 256.691,374.801 252.293,374.773 232.319 C 374.742 210.555,374.543 206.736,373.495 207.785 M112.593 209.312 C 112.415 210.021,112.346 221.110,112.439 233.954 L 112.607 257.307 70.153 257.307 C 46.803 257.307,27.519 257.127,27.300 256.908 C 27.080 256.689,26.481 256.448,25.968 256.372 C 25.193 256.259,25.220 256.399,26.128 257.201 C 27.138 258.093,30.483 258.145,70.368 257.880 L 113.515 257.593 113.634 232.808 C 113.743 210.263,113.534 205.555,112.593 209.312 M211.348 208.453 C 211.249 208.689,211.306 212.364,211.474 216.619 L 211.781 224.355 212.051 216.188 C 212.284 209.147,212.066 206.747,211.348 208.453 M297.421 219.737 C 297.421 227.361,297.624 231.004,298.065 231.276 C 298.536 231.567,298.651 228.573,298.495 220.137 C 298.221 205.379,297.421 205.080,297.421 219.737 M200.324 214.839 C 199.836 215.628,200.046 242.966,200.560 245.559 C 200.831 246.924,201.041 241.074,201.080 231.089 C 201.116 221.870,201.032 214.327,200.893 214.327 C 200.754 214.327,200.498 214.557,200.324 214.839 M212.031 231.636 C 211.875 235.324,211.950 238.139,212.198 237.890 C 212.446 237.641,212.573 234.623,212.482 231.183 L 212.315 224.928 212.031 231.636 M199.610 250.430 C 199.610 252.479,199.714 253.317,199.841 252.292 C 199.969 251.268,199.969 249.592,199.841 248.567 C 199.714 247.543,199.610 248.381,199.610 250.430 M200.564 253.152 C 200.559 255.172,200.368 256.151,200.071 255.682 C 199.702 255.101,199.511 255.204,199.274 256.112 L 198.961 257.307 162.838 257.307 C 138.988 257.307,126.593 257.109,126.355 256.724 C 125.927 256.031,124.789 256.601,125.048 257.380 C 125.158 257.710,139.773 257.968,162.559 258.043 C 183.091 258.111,199.635 258.009,199.324 257.816 C 199.012 257.623,199.295 257.325,199.952 257.153 C 201.055 256.865,201.927 249.857,200.860 249.857 C 200.702 249.857,200.569 251.340,200.564 253.152 M212.297 256.772 C 211.606 257.890,212.250 257.912,249.666 258.039 C 286.440 258.165,286.885 258.153,286.969 257.027 C 287.024 256.304,286.898 256.143,286.625 256.585 C 285.987 257.618,212.632 257.908,213.028 256.877 C 213.364 256.003,212.821 255.925,212.297 256.772 M14.900 262.219 C 14.900 262.399,15.256 262.902,15.691 263.337 C 16.670 264.317,17.423 263.719,16.544 262.660 C 15.899 261.883,14.900 261.615,14.900 262.219 M19.484 267.274 C 19.484 267.713,19.871 268.221,20.344 268.402 C 20.929 268.626,21.203 268.371,21.203 267.604 C 21.203 266.983,20.817 266.476,20.344 266.476 C 19.871 266.476,19.484 266.835,19.484 267.274 M379.943 267.049 C 379.943 267.364,379.556 267.622,379.083 267.622 C 378.610 267.622,378.223 267.880,378.223 268.195 C 378.223 268.985,379.567 268.915,380.401 268.080 C 381.238 267.243,381.293 266.476,380.516 266.476 C 380.201 266.476,379.943 266.734,379.943 267.049 M24.840 268.633 C 24.476 268.865,103.596 269.054,200.662 269.054 C 297.728 269.054,376.550 268.887,375.822 268.682 C 373.979 268.163,25.655 268.115,24.840 268.633 M113.324 269.771 C 160.996 269.852,239.004 269.852,286.676 269.771 C 334.348 269.690,295.344 269.624,200.000 269.624 C 104.656 269.624,65.652 269.690,113.324 269.771 " stroke="none" fill="#bababa" fill-rule="evenodd"></path><path id="path2" d="M22.923 9.814 C 22.923 10.451,24.362 11.080,25.177 10.799 C 25.493 10.691,25.114 10.304,24.337 9.939 C 23.546 9.569,22.923 9.514,22.923 9.814 M379.370 10.245 C 379.370 10.599,379.628 10.888,379.943 10.888 C 380.258 10.888,380.516 11.372,380.516 11.964 C 380.516 12.556,380.903 13.361,381.375 13.754 C 382.081 14.340,382.235 14.295,382.235 13.503 C 382.235 12.973,381.977 12.699,381.662 12.894 C 381.347 13.089,381.089 12.749,381.089 12.138 C 381.089 11.528,380.702 10.708,380.229 10.315 C 379.635 9.822,379.370 9.801,379.370 10.245 M18.911 12.355 C 18.911 12.846,18.653 13.089,18.338 12.894 C 18.023 12.699,17.765 12.982,17.765 13.522 C 17.765 14.435,17.845 14.432,18.898 13.479 C 19.521 12.916,19.892 12.231,19.723 11.958 C 19.254 11.198,18.911 11.365,18.911 12.355 M382.808 14.360 C 382.808 15.009,383.066 15.381,383.381 15.186 C 383.696 14.991,383.954 15.105,383.954 15.439 C 383.954 15.773,383.741 16.046,383.480 16.046 C 383.220 16.046,383.120 16.819,383.259 17.765 C 383.398 18.711,383.721 19.484,383.977 19.484 C 384.233 19.484,384.537 19.936,384.652 20.487 C 384.823 21.310,384.922 21.262,385.208 20.220 C 385.424 19.430,385.312 18.997,384.912 19.074 C 384.019 19.245,383.695 16.560,384.545 16.035 C 385.045 15.726,384.901 15.273,384.022 14.394 L 382.808 13.181 382.808 14.360 M15.147 14.964 C 14.930 15.314,15.005 15.765,15.313 15.967 C 15.622 16.168,15.994 16.706,16.141 17.163 C 16.357 17.834,16.480 17.807,16.782 17.020 C 16.988 16.484,16.906 16.046,16.601 16.046 C 16.296 16.046,16.046 15.773,16.046 15.439 C 16.046 15.105,16.304 14.991,16.619 15.186 C 16.934 15.381,17.192 15.267,17.192 14.934 C 17.192 14.130,15.648 14.153,15.147 14.964 M49.469 21.060 C 61.075 21.147,79.901 21.147,91.303 21.060 C 102.705 20.973,93.209 20.902,70.201 20.902 C 47.192 20.902,37.863 20.973,49.469 21.060 M144.884 21.060 C 154.756 21.148,170.745 21.148,180.414 21.060 C 190.083 20.972,182.006 20.900,162.464 20.900 C 142.923 20.900,135.011 20.972,144.884 21.060 M231.662 21.060 C 241.669 21.148,258.044 21.148,268.052 21.060 C 278.059 20.972,269.871 20.900,249.857 20.900 C 229.842 20.900,221.655 20.972,231.662 21.060 M287.106 21.777 C 287.106 22.407,286.848 22.923,286.533 22.923 C 286.160 22.923,285.960 31.517,285.960 47.560 L 285.960 72.198 249.713 72.350 L 213.467 72.502 249.643 72.640 C 279.572 72.755,285.931 72.645,286.466 72.000 C 287.019 71.334,287.792 20.630,287.249 20.630 C 287.170 20.630,287.106 21.146,287.106 21.777 M317.663 21.060 C 327.693 21.148,343.940 21.148,353.766 21.060 C 363.593 20.972,355.387 20.900,335.530 20.900 C 315.673 20.900,307.633 20.972,317.663 21.060 M26.623 23.066 C 26.472 23.461,26.416 34.356,26.498 47.278 L 26.648 70.774 26.934 46.561 C 27.092 33.245,27.148 22.349,27.059 22.349 C 26.971 22.349,26.774 22.672,26.623 23.066 M373.066 46.017 L 373.352 69.628 373.502 46.454 C 373.585 33.708,373.456 23.083,373.216 22.843 C 372.976 22.603,372.908 33.031,373.066 46.017 M25.477 46.705 C 25.477 59.943,25.552 65.276,25.644 58.557 C 25.736 51.838,25.736 41.008,25.644 34.489 C 25.552 27.970,25.477 33.467,25.477 46.705 M113.729 46.705 C 113.729 59.943,113.805 65.276,113.896 58.557 C 113.988 51.838,113.988 41.008,113.896 34.489 C 113.804 27.970,113.729 33.467,113.729 46.705 M200.000 46.418 C 200.000 61.700,200.200 69.914,200.573 69.914 C 200.946 69.914,201.146 61.700,201.146 46.418 C 201.146 31.137,200.946 22.923,200.573 22.923 C 200.200 22.923,200.000 31.137,200.000 46.418 M210.758 47.119 C 210.911 70.368,211.112 72.791,212.751 71.141 C 213.325 70.562,213.268 70.495,212.464 70.801 C 211.519 71.161,211.461 69.811,211.461 47.339 C 211.461 34.225,211.268 23.496,211.032 23.496 C 210.795 23.495,210.672 34.126,210.758 47.119 M212.286 39.542 C 212.286 48.209,212.365 51.755,212.463 47.421 C 212.560 43.087,212.560 35.996,212.463 31.662 C 212.365 27.328,212.286 30.874,212.286 39.542 M25.215 71.280 C 25.215 71.789,27.533 72.054,27.827 71.579 C 28.003 71.294,27.488 71.060,26.681 71.060 C 25.875 71.060,25.215 71.159,25.215 71.280 M372.173 71.579 C 372.350 71.865,373.009 71.964,373.640 71.799 C 375.216 71.387,375.075 71.060,373.319 71.060 C 372.512 71.060,371.997 71.294,372.173 71.579 M127.139 72.354 C 127.378 72.593,143.547 72.722,163.070 72.640 L 198.567 72.493 162.636 72.206 C 142.874 72.049,126.900 72.115,127.139 72.354 M48.812 72.636 C 60.371 72.722,79.454 72.723,91.218 72.636 C 102.982 72.549,93.524 72.478,70.201 72.478 C 46.877 72.478,37.252 72.549,48.812 72.636 M318.236 72.636 C 328.266 72.724,344.513 72.724,354.339 72.636 C 364.166 72.548,355.960 72.476,336.103 72.476 C 316.246 72.476,308.206 72.548,318.236 72.636 M69.573 82.378 C 102.735 82.495,112.707 82.691,113.413 83.241 C 114.222 83.872,114.236 83.839,113.540 82.951 C 112.802 82.010,110.118 81.957,69.701 82.088 L 26.648 82.228 69.573 82.378 M125.456 82.951 C 124.810 83.804,124.817 83.847,125.500 83.238 C 126.947 81.948,198.123 82.223,199.668 83.524 C 200.858 84.526,200.858 84.526,199.768 83.238 L 198.676 81.948 162.446 81.948 C 128.611 81.948,126.165 82.015,125.456 82.951 M230.802 82.378 C 240.967 82.466,257.600 82.466,267.765 82.378 C 277.930 82.290,269.613 82.219,249.284 82.219 C 228.954 82.219,220.638 82.290,230.802 82.378 M298.281 82.521 C 298.086 82.837,298.086 83.352,298.281 83.668 C 298.476 83.983,298.319 84.241,297.933 84.241 C 297.546 84.241,297.383 84.393,297.569 84.580 C 297.756 84.766,298.379 84.645,298.954 84.311 C 299.529 83.976,299.678 83.695,299.284 83.685 C 298.890 83.675,298.567 83.412,298.567 83.099 C 298.567 82.730,311.697 82.477,335.960 82.378 L 373.352 82.227 335.994 82.087 C 311.555 81.997,298.512 82.147,298.281 82.521 M211.270 83.477 C 211.060 83.687,210.888 94.853,210.888 108.290 C 210.888 132.839,210.988 134.136,212.865 134.079 C 213.196 134.069,213.010 133.714,212.452 133.291 C 211.504 132.572,211.447 130.890,211.592 107.807 C 211.678 94.215,211.726 83.094,211.700 83.094 C 211.674 83.094,211.480 83.266,211.270 83.477 M286.342 83.477 C 286.132 83.687,285.978 95.227,286.000 109.121 C 286.022 123.016,286.245 133.868,286.496 133.238 C 286.938 132.126,286.958 132.125,287.172 133.195 C 287.293 133.802,287.393 122.777,287.393 108.696 C 287.393 94.615,287.242 83.094,287.058 83.094 C 286.874 83.095,286.552 83.266,286.342 83.477 M212.294 84.392 C 212.141 84.790,212.085 92.333,212.169 101.154 L 212.322 117.192 212.608 100.429 C 212.765 91.210,212.821 83.667,212.733 83.667 C 212.644 83.667,212.446 83.993,212.294 84.392 M199.289 96.562 C 199.448 103.496,199.673 109.277,199.789 109.408 C 200.145 109.811,199.891 95.759,199.433 89.685 C 199.161 86.088,199.107 88.649,199.289 96.562 M373.066 108.481 L 373.352 132.665 373.502 108.918 C 373.584 95.857,373.456 84.974,373.216 84.734 C 372.976 84.494,372.908 95.180,373.066 108.481 M113.730 108.883 C 113.730 122.278,113.805 127.758,113.896 121.060 C 113.988 114.362,113.988 103.403,113.896 96.705 C 113.805 90.007,113.730 95.487,113.730 108.883 M25.477 108.883 C 25.477 121.963,25.552 127.314,25.644 120.774 C 25.736 114.234,25.736 103.532,25.644 96.991 C 25.552 90.451,25.477 95.802,25.477 108.883 M26.623 108.883 C 26.623 121.963,26.698 127.314,26.790 120.774 C 26.882 114.234,26.882 103.532,26.790 96.991 C 26.698 90.451,26.623 95.802,26.623 108.883 M200.000 129.193 C 200.000 130.945,200.258 132.378,200.573 132.378 C 200.888 132.378,201.146 131.104,201.146 129.547 C 201.146 127.989,200.888 126.556,200.573 126.361 C 200.217 126.141,200.000 127.215,200.000 129.193 M211.161 160.984 C 211.172 173.493,211.341 177.324,211.891 177.507 C 212.285 177.639,212.607 177.451,212.607 177.091 C 212.607 176.731,212.354 176.594,212.043 176.785 C 211.680 177.010,211.420 171.368,211.313 160.917 L 211.147 144.699 211.161 160.984 M212.392 145.867 C 212.195 146.380,212.086 150.452,212.148 154.918 L 212.262 163.037 212.578 154.155 C 212.920 144.532,212.919 144.492,212.392 145.867 M285.969 169.198 C 285.963 185.154,286.160 193.696,286.533 193.696 C 286.848 193.696,287.102 194.148,287.097 194.699 C 287.090 195.565,287.005 195.584,286.481 194.842 C 286.078 194.273,285.941 194.239,286.074 194.742 C 286.884 197.798,287.170 191.911,287.273 170.057 C 287.339 156.268,287.297 145.273,287.180 145.624 C 287.040 146.044,286.798 145.995,286.472 145.480 C 286.190 145.035,285.974 155.219,285.969 169.198 M372.779 169.914 C 372.779 183.564,372.973 194.613,373.209 194.467 C 373.765 194.124,373.756 146.631,373.200 145.756 C 372.969 145.392,372.779 156.263,372.779 169.914 M25.477 169.914 C 25.477 183.152,25.552 188.486,25.644 181.767 C 25.736 175.048,25.736 164.217,25.644 157.698 C 25.552 151.179,25.477 156.676,25.477 169.914 M113.730 170.201 C 113.730 183.596,113.805 189.076,113.896 182.378 C 113.988 175.681,113.988 164.721,113.896 158.023 C 113.805 151.325,113.730 156.805,113.730 170.201 M26.623 170.201 C 26.623 183.281,26.698 188.632,26.790 182.092 C 26.882 175.552,26.882 164.850,26.790 158.309 C 26.698 151.769,26.623 157.120,26.623 170.201 M200.000 149.891 C 200.000 151.868,200.217 152.942,200.573 152.722 C 200.888 152.527,201.146 151.094,201.146 149.536 C 201.146 147.979,200.888 146.705,200.573 146.705 C 200.258 146.705,200.000 148.138,200.000 149.891 M199.253 181.870 C 199.000 188.761,198.907 194.514,199.047 194.654 C 199.403 195.009,200.143 175.694,199.907 172.206 C 199.801 170.630,199.506 174.979,199.253 181.870 M212.249 194.537 C 212.071 194.999,212.059 195.709,212.222 196.113 C 212.384 196.517,212.537 196.289,212.562 195.606 C 212.587 194.924,212.930 194.235,213.324 194.076 C 213.885 193.849,213.881 193.777,213.306 193.742 C 212.902 193.717,212.426 194.075,212.249 194.537 M26.934 207.163 C 26.333 207.887,26.435 208.016,27.580 207.978 C 28.533 207.946,28.683 207.817,28.080 207.548 C 27.607 207.336,46.562 207.032,70.201 206.871 L 113.181 206.579 70.414 206.442 C 32.985 206.321,27.558 206.411,26.934 207.163 M127.049 206.666 C 126.546 207.170,127.130 208.025,127.971 208.014 C 128.381 208.009,128.310 207.784,127.794 207.450 C 127.234 207.088,139.520 206.894,163.037 206.894 C 188.644 206.894,198.890 207.071,198.281 207.502 C 197.712 207.905,197.678 208.042,198.181 207.909 C 198.598 207.798,198.921 207.456,198.897 207.149 C 198.849 206.523,127.671 206.044,127.049 206.666 M231.417 206.733 C 241.604 206.821,258.109 206.821,268.093 206.733 C 278.077 206.645,269.742 206.574,249.570 206.574 C 229.398 206.574,221.229 206.646,231.417 206.733 M299.403 206.915 C 299.196 207.251,299.180 207.681,299.370 207.870 C 299.559 208.059,299.713 207.913,299.713 207.545 C 299.713 207.043,308.789 206.879,336.246 206.886 C 360.045 206.891,372.480 207.088,371.920 207.450 C 371.232 207.894,371.332 208.007,372.420 208.014 C 373.564 208.022,373.666 207.887,373.066 207.163 C 372.168 206.082,300.068 205.839,299.403 206.915 M211.102 208.166 C 210.827 208.560,210.745 215.587,210.920 223.782 L 211.239 238.682 211.296 223.563 C 211.341 211.572,211.512 208.343,212.123 207.956 C 212.583 207.664,212.633 207.464,212.248 207.459 C 211.892 207.454,211.377 207.772,211.102 208.166 M286.246 208.023 C 286.877 208.294,287.070 208.534,286.676 208.556 C 285.794 208.605,285.611 256.160,286.493 256.160 C 286.786 256.160,287.109 256.741,287.209 257.450 C 287.310 258.159,287.393 247.199,287.393 233.095 C 287.393 207.819,287.376 207.451,286.246 207.490 L 285.100 207.530 286.246 208.023 M25.477 232.378 C 25.477 245.616,25.552 250.950,25.644 244.231 C 25.736 237.512,25.736 226.681,25.644 220.162 C 25.552 213.643,25.477 219.140,25.477 232.378 M26.498 232.165 C 26.371 254.298,26.433 256.077,27.364 256.807 C 28.251 257.502,28.285 257.488,27.657 256.683 C 27.124 256.000,26.908 249.838,26.791 232.041 L 26.634 208.309 26.498 232.165 M113.729 232.378 C 113.729 245.616,113.805 250.950,113.896 244.231 C 113.988 237.512,113.988 226.681,113.896 220.162 C 113.804 213.643,113.729 219.140,113.729 232.378 M200.000 212.068 C 200.000 213.855,200.220 214.831,200.573 214.613 C 200.888 214.418,201.146 213.114,201.146 211.714 C 201.146 210.314,200.888 209.169,200.573 209.169 C 200.258 209.169,200.000 210.474,200.000 212.068 M373.202 232.693 C 373.118 247.077,372.848 256.194,372.495 256.621 C 372.180 257.001,372.312 256.976,372.788 256.565 C 373.537 255.919,373.631 252.719,373.496 232.638 L 373.339 209.456 373.202 232.693 M212.257 218.052 C 212.258 222.149,212.349 223.750,212.460 221.609 C 212.570 219.469,212.570 216.116,212.458 214.160 C 212.346 212.203,212.256 213.954,212.257 218.052 M199.379 237.966 C 199.352 241.511,199.159 247.301,198.949 250.832 C 198.739 254.363,198.778 257.040,199.035 256.783 C 199.577 256.239,200.305 231.519,199.778 231.519 C 199.585 231.519,199.405 234.420,199.379 237.966 M70.774 257.880 L 27.794 258.177 70.917 258.315 C 99.376 258.406,114.040 258.258,114.040 257.880 C 114.040 257.564,113.976 257.369,113.897 257.444 C 113.818 257.520,94.413 257.716,70.774 257.880 M145.170 258.309 C 155.200 258.397,171.447 258.397,181.274 258.309 C 191.100 258.221,182.894 258.149,163.037 258.149 C 143.181 258.149,135.140 258.221,145.170 258.309 M231.990 258.309 C 242.178 258.397,258.682 258.397,268.666 258.309 C 278.650 258.221,270.315 258.150,250.143 258.150 C 229.971 258.150,221.802 258.222,231.990 258.309 M318.481 258.309 C 328.331 258.397,344.448 258.397,354.298 258.309 C 364.148 258.221,356.089 258.149,336.390 258.149 C 316.691 258.149,308.632 258.221,318.481 258.309 M384.033 259.611 C 383.588 260.627,383.402 262.140,383.601 263.134 C 383.873 264.495,383.771 264.809,383.135 264.565 C 382.603 264.361,381.947 265.007,381.245 266.427 C 380.219 268.499,380.217 268.589,381.202 268.331 C 381.917 268.144,382.238 267.509,382.244 266.266 C 382.249 265.130,382.423 264.738,382.716 265.200 C 383.070 265.757,383.427 265.656,384.228 264.770 C 384.820 264.117,384.989 263.610,384.616 263.610 C 384.252 263.610,383.954 262.819,383.954 261.852 C 383.954 260.304,384.108 260.138,385.244 260.457 C 385.964 260.660,386.246 260.614,385.883 260.353 C 385.525 260.096,385.139 259.423,385.023 258.858 C 384.863 258.070,384.632 258.246,384.033 259.611 M15.263 263.486 C 14.925 264.032,16.920 265.706,17.988 265.773 C 18.267 265.790,18.715 266.149,18.982 266.570 C 19.248 266.991,19.471 267.058,19.475 266.719 C 19.480 266.380,18.840 265.497,18.052 264.756 C 17.264 264.016,16.615 263.649,16.610 263.940 C 16.605 264.232,16.380 264.120,16.109 263.692 C 15.808 263.217,15.479 263.137,15.263 263.486 " stroke="none" fill="#c4c4c4" fill-rule="evenodd"></path><path id="path3" d="M25.215 8.596 C 25.215 8.977,83.859 9.169,200.000 9.169 C 316.141 9.169,374.785 8.977,374.785 8.596 C 374.785 8.215,316.141 8.023,200.000 8.023 C 83.859 8.023,25.215 8.215,25.215 8.596 M22.301 9.456 C 22.255 9.771,22.183 10.407,22.140 10.870 C 22.098 11.332,21.510 11.987,20.835 12.325 C 20.159 12.662,19.186 13.288,18.672 13.714 C 18.158 14.141,17.551 14.303,17.322 14.075 C 17.094 13.847,17.407 13.294,18.019 12.847 C 19.154 12.017,18.574 11.760,16.963 12.378 C 16.283 12.639,16.205 12.980,16.639 13.792 C 17.279 14.986,16.752 19.484,15.973 19.484 C 15.690 19.484,15.473 71.614,15.473 139.542 C 15.473 207.469,15.690 259.599,15.973 259.599 C 16.248 259.599,16.630 260.587,16.824 261.794 C 17.177 264.008,18.413 265.549,20.778 266.728 C 21.485 267.081,22.095 267.684,22.135 268.069 C 22.174 268.453,22.239 269.026,22.278 269.341 C 22.317 269.656,22.994 269.914,23.782 269.914 C 24.570 269.914,25.215 270.172,25.215 270.487 C 25.215 270.868,83.859 271.060,200.000 271.060 C 306.921 271.060,374.785 270.854,374.785 270.529 C 374.785 270.237,375.218 269.915,375.747 269.813 C 376.277 269.711,298.075 269.701,201.965 269.791 C 32.057 269.950,23.496 269.899,23.496 268.742 C 23.496 268.396,88.402 268.195,200.287 268.195 C 357.052 268.195,377.077 268.292,377.077 269.054 C 377.077 269.527,377.351 269.914,377.686 269.914 C 378.021 269.914,378.215 269.346,378.116 268.652 C 377.975 267.656,378.330 267.277,379.799 266.850 C 380.824 266.553,381.662 265.992,381.662 265.603 C 381.662 265.215,382.049 264.576,382.521 264.183 C 382.994 263.791,383.381 262.743,383.381 261.855 C 383.381 260.966,383.639 260.080,383.954 259.885 C 384.681 259.436,384.754 19.484,384.027 19.484 C 383.752 19.484,383.358 18.423,383.151 17.127 C 382.795 14.902,381.049 12.672,379.628 12.627 C 378.353 12.586,377.640 11.307,378.380 10.391 C 378.938 9.701,378.935 9.611,378.367 9.952 C 377.941 10.208,377.643 10.079,377.633 9.633 C 377.622 9.170,377.392 9.267,377.031 9.885 C 376.122 11.447,23.878 11.447,22.969 9.885 C 22.647 9.334,22.347 9.140,22.301 9.456 M13.754 139.221 C 13.754 206.022,13.947 260.797,14.183 260.943 C 14.420 261.089,14.613 206.434,14.613 139.487 C 14.613 72.540,14.420 17.765,14.183 17.765 C 13.947 17.765,13.754 72.420,13.754 139.221 M385.531 104.728 C 385.610 152.557,385.741 207.163,385.822 226.074 C 385.903 244.986,386.031 205.852,386.108 139.112 C 386.184 72.371,386.053 17.765,385.817 17.765 C 385.580 17.765,385.452 56.898,385.531 104.728 M114.040 45.925 C 114.040 69.344,113.966 71.277,113.037 71.982 C 111.643 73.040,30.030 73.144,27.118 72.091 L 25.215 71.403 25.215 46.704 C 25.215 28.258,25.389 21.832,25.903 21.318 C 26.425 20.795,37.071 20.630,70.315 20.630 L 114.040 20.630 114.040 45.925 M200.798 21.537 C 201.543 23.477,201.187 71.744,200.430 71.466 C 200.036 71.322,199.784 70.894,199.871 70.516 C 199.958 70.138,199.747 70.003,199.402 70.216 C 199.058 70.429,198.913 70.961,199.081 71.399 C 199.602 72.757,197.900 72.814,161.891 72.651 L 126.934 72.493 126.769 48.711 C 126.679 35.630,126.749 24.343,126.927 23.627 L 127.249 22.325 163.570 22.480 C 183.547 22.566,199.594 22.447,199.229 22.215 C 198.179 21.547,126.776 21.679,126.361 22.350 C 125.762 23.319,124.928 22.985,124.928 21.777 C 124.928 20.178,200.186 19.941,200.798 21.537 M287.253 45.925 C 287.154 63.763,286.921 71.452,286.463 72.004 C 285.365 73.327,213.470 72.860,213.460 71.530 C 213.456 71.001,213.241 70.356,212.982 70.098 C 212.724 69.839,212.598 70.014,212.703 70.487 C 212.808 70.960,212.507 71.347,212.034 71.347 C 211.077 71.347,210.135 23.677,211.052 21.633 C 211.474 20.693,213.862 20.630,249.447 20.630 L 287.393 20.630 287.253 45.925 M374.097 21.318 C 374.611 21.832,374.785 28.258,374.785 46.704 L 374.785 71.403 372.882 72.091 C 369.647 73.261,300.650 73.061,299.468 71.879 C 298.433 70.844,298.275 70.239,299.187 70.803 C 299.783 71.171,299.402 25.290,298.805 24.690 C 298.674 24.558,298.567 29.522,298.567 35.721 C 298.567 42.853,298.357 46.991,297.994 46.991 C 297.630 46.991,297.421 42.502,297.421 34.670 C 297.421 26.839,297.630 22.350,297.994 22.350 C 298.309 22.350,298.567 22.786,298.567 23.319 C 298.567 24.229,298.611 24.229,299.284 23.319 C 299.941 22.430,302.978 22.338,336.103 22.197 L 372.206 22.043 335.530 21.922 C 315.358 21.855,298.645 21.795,298.390 21.789 C 298.135 21.782,298.086 21.519,298.281 21.203 C 298.831 20.313,373.205 20.425,374.097 21.318 M27.282 22.683 C 26.720 24.148,26.914 24.430,27.737 23.345 C 28.459 22.394,30.964 22.344,70.644 22.485 C 93.822 22.568,112.665 22.443,112.519 22.206 C 111.919 21.235,27.657 21.707,27.282 22.683 M212.983 22.206 C 212.836 22.443,229.301 22.636,249.570 22.636 C 269.840 22.636,286.304 22.443,286.158 22.206 C 285.811 21.644,213.330 21.644,212.983 22.206 M26.934 46.705 C 26.934 61.313,27.129 68.715,27.507 68.481 C 27.873 68.255,28.080 60.368,28.080 46.705 C 28.080 33.041,27.873 25.154,27.507 24.928 C 27.129 24.695,26.934 32.097,26.934 46.705 M371.920 46.671 C 371.920 60.357,372.127 68.255,372.493 68.481 C 372.871 68.715,373.066 61.420,373.066 47.025 C 373.066 32.867,372.865 25.215,372.493 25.215 C 372.121 25.215,371.920 32.749,371.920 46.671 M299.932 37.536 C 299.933 41.318,300.026 42.791,300.138 40.808 C 300.251 38.826,300.250 35.732,300.136 33.932 C 300.023 32.132,299.931 33.754,299.932 37.536 M113.352 82.636 C 114.260 83.543,114.355 134.097,113.449 134.097 C 113.124 134.097,112.710 133.711,112.528 133.238 C 112.239 132.485,107.000 132.378,70.173 132.378 C 47.059 132.378,28.068 132.185,27.971 131.948 C 27.873 131.712,27.923 120.817,28.080 107.736 C 28.238 94.656,28.288 83.833,28.192 83.684 C 27.209 82.163,26.950 88.185,27.076 109.599 C 27.212 132.604,27.159 134.098,26.218 134.098 C 24.667 134.097,24.667 83.923,26.218 82.746 C 27.616 81.685,112.294 81.578,113.352 82.636 M199.820 83.194 L 201.146 84.440 201.146 109.269 C 201.146 130.505,201.027 134.097,200.320 134.097 C 199.212 134.097,198.664 133.123,199.567 132.759 C 199.963 132.599,183.718 132.448,163.467 132.423 L 126.648 132.378 126.648 108.883 C 126.648 95.960,126.583 85.240,126.504 85.060 C 126.426 84.881,142.221 84.738,161.605 84.744 C 180.989 84.749,197.364 84.527,197.994 84.251 C 198.668 83.955,184.272 83.732,163.082 83.708 C 130.299 83.671,126.929 83.754,125.976 84.616 C 124.995 85.504,124.928 85.493,124.928 84.444 C 124.928 81.922,124.539 81.948,162.399 81.948 L 198.493 81.948 199.820 83.194 M286.533 82.683 C 287.706 83.636,287.847 134.097,286.676 134.097 C 286.282 134.097,285.960 133.711,285.960 133.238 C 285.960 132.483,281.505 132.378,249.302 132.378 C 216.952 132.378,212.682 132.479,212.973 133.238 C 213.369 134.268,212.537 134.371,211.576 133.410 C 210.366 132.199,210.613 84.349,211.837 82.996 C 213.036 81.671,284.916 81.370,286.533 82.683 M373.782 82.746 C 375.489 84.042,375.312 134.097,373.600 134.097 C 372.733 134.097,372.501 133.829,372.734 133.095 C 373.034 132.152,371.963 132.100,354.865 132.235 C 344.861 132.313,328.228 132.442,317.902 132.521 L 299.127 132.665 299.277 108.714 L 299.427 84.762 334.772 84.800 C 358.727 84.826,370.237 84.646,370.487 84.241 C 370.742 83.828,359.641 83.655,334.641 83.680 C 298.357 83.718,297.557 83.693,298.257 82.560 C 298.868 81.571,372.474 81.753,373.782 82.746 M29.517 84.248 C 30.002 85.032,112.321 85.010,112.321 84.226 C 112.321 83.869,97.352 83.668,70.740 83.668 C 42.826 83.668,29.277 83.858,29.517 84.248 M212.909 84.216 C 212.476 84.917,283.491 84.947,285.100 84.247 C 285.767 83.957,270.981 83.731,249.747 83.708 C 227.078 83.683,213.120 83.875,212.909 84.216 M371.572 84.574 C 371.763 85.073,371.920 95.646,371.920 108.070 C 371.920 122.747,372.120 130.659,372.493 130.659 C 373.118 130.659,373.335 86.182,372.718 84.574 C 372.527 84.076,372.112 83.668,371.797 83.668 C 371.482 83.668,371.381 84.076,371.572 84.574 M298.567 108.263 C 298.567 121.475,298.745 132.757,298.961 133.334 C 299.308 134.258,299.239 134.290,298.388 133.597 C 297.248 132.670,296.862 84.241,297.994 84.241 C 298.367 84.241,298.567 92.630,298.567 108.263 M199.031 101.433 C 199.017 105.372,199.183 112.593,199.400 117.479 L 199.795 126.361 199.823 118.911 C 199.839 114.814,199.673 107.593,199.454 102.865 L 199.057 94.269 199.031 101.433 M126.648 133.272 C 126.648 133.726,126.261 134.097,125.788 134.097 C 124.925 134.097,124.610 132.888,125.295 132.203 C 125.830 131.668,126.648 132.314,126.648 133.272 M27.055 168.911 C 26.964 182.070,27.033 193.417,27.209 194.126 L 27.529 195.415 69.925 195.415 C 93.243 195.415,112.321 195.222,112.321 194.986 C 112.321 194.749,93.487 194.618,70.467 194.693 C 37.591 194.801,28.558 194.678,28.357 194.120 C 28.216 193.729,28.032 182.901,27.947 170.057 L 27.794 146.704 69.996 146.705 C 106.981 146.705,112.239 146.599,112.528 145.845 C 113.797 142.539,114.040 146.493,114.040 170.426 C 114.040 193.095,113.941 195.904,113.134 196.214 C 111.949 196.668,27.306 196.668,26.121 196.214 C 24.653 195.650,24.749 144.986,26.218 144.985 C 27.160 144.985,27.211 146.443,27.055 168.911 M126.648 145.853 C 126.648 146.619,130.952 146.718,163.380 146.696 C 195.649 146.675,200.028 146.570,199.413 145.829 C 198.835 145.132,198.924 144.986,199.930 144.986 L 201.146 144.986 201.146 169.825 C 201.146 193.202,201.084 194.721,200.093 195.617 C 199.131 196.488,195.865 196.557,162.128 196.423 L 125.215 196.275 125.023 194.919 C 124.838 193.612,124.878 193.596,126.153 194.489 C 127.569 195.481,198.854 195.968,198.854 194.986 C 198.854 194.749,183.059 194.623,163.754 194.706 C 144.448 194.788,128.138 194.735,127.507 194.588 C 126.381 194.324,126.364 193.913,126.517 170.512 C 126.654 149.514,126.569 146.705,125.800 146.705 C 125.321 146.705,124.928 146.318,124.928 145.845 C 124.928 145.372,125.315 144.986,125.788 144.986 C 126.261 144.986,126.648 145.376,126.648 145.853 M213.181 145.845 C 213.181 146.600,217.606 146.705,249.570 146.705 C 281.535 146.705,285.960 146.600,285.960 145.845 C 285.960 145.372,286.282 144.986,286.676 144.986 C 287.428 144.986,287.558 194.794,286.810 196.004 C 286.009 197.300,212.034 196.700,212.034 195.397 C 212.034 194.757,212.441 194.077,212.938 193.886 C 213.724 193.585,213.823 192.146,213.697 182.873 C 213.557 172.627,212.721 165.454,212.644 173.830 C 212.617 176.696,212.415 177.682,211.891 177.507 C 210.464 177.032,210.597 144.986,212.025 144.986 C 212.670 144.986,213.181 145.366,213.181 145.845 M336.394 146.696 C 368.884 146.718,372.998 146.622,372.703 145.853 C 372.471 145.248,372.735 144.986,373.578 144.986 L 374.785 144.986 374.785 170.426 C 374.785 193.095,374.686 195.904,373.879 196.214 C 372.511 196.738,298.678 196.632,298.352 196.104 C 297.770 195.161,299.038 193.938,299.804 194.704 C 301.012 195.912,372.253 195.722,372.718 194.509 C 373.329 192.916,373.118 148.424,372.499 148.424 C 372.138 148.424,371.879 156.772,371.783 171.490 L 371.633 194.556 337.209 194.719 C 317.868 194.810,302.174 194.656,301.392 194.368 L 300.000 193.854 299.385 169.850 C 298.887 150.418,298.750 148.056,298.668 157.450 C 298.605 164.737,298.354 169.054,297.994 169.054 C 297.116 169.054,297.230 146.553,298.113 145.670 C 298.653 145.130,298.908 145.164,299.278 145.825 C 299.688 146.558,304.677 146.676,336.394 146.696 M199.155 168.365 C 198.914 176.969,198.847 184.138,199.006 184.297 C 199.382 184.673,200.223 154.525,199.865 153.501 C 199.715 153.073,199.396 159.761,199.155 168.365 M299.928 161.891 C 299.929 165.358,300.024 166.703,300.138 164.879 C 300.252 163.055,300.251 160.218,300.135 158.575 C 300.020 156.932,299.927 158.424,299.928 161.891 M213.556 194.986 C 213.702 195.222,230.095 195.415,249.986 195.415 C 269.877 195.415,286.009 195.274,285.836 195.101 C 285.349 194.614,213.255 194.499,213.556 194.986 M113.221 207.122 C 113.906 207.807,114.040 212.073,114.040 233.197 L 114.040 258.453 70.446 258.453 C 33.429 258.453,26.729 258.329,26.034 257.634 C 25.350 256.950,25.215 252.778,25.215 232.269 L 25.215 207.722 26.504 207.083 C 28.653 206.019,112.156 206.057,113.221 207.122 M198.982 207.550 C 198.895 208.078,199.095 208.677,199.426 208.882 C 199.757 209.087,199.958 208.945,199.871 208.567 C 199.784 208.189,200.036 207.761,200.430 207.617 C 201.187 207.339,201.543 255.606,200.798 257.546 C 200.218 259.059,124.928 258.916,124.928 257.402 C 124.928 255.875,125.518 255.523,126.475 256.479 C 127.640 257.644,198.383 257.458,198.620 256.289 C 198.701 255.888,198.637 255.823,198.477 256.146 C 197.920 257.269,127.417 256.926,126.984 255.798 C 126.514 254.573,126.585 207.131,127.057 206.658 C 128.028 205.687,199.144 206.569,198.982 207.550 M286.533 207.038 C 287.274 207.640,287.393 211.246,287.393 233.095 L 287.393 258.453 249.713 258.453 C 212.416 258.453,212.034 258.441,212.034 257.307 C 212.034 256.098,212.868 255.764,213.467 256.734 C 213.885 257.410,285.741 257.551,286.158 256.877 C 286.304 256.640,270.073 256.515,250.089 256.599 L 213.754 256.750 213.639 246.857 C 213.575 241.415,213.511 236.020,213.495 234.867 C 213.480 233.714,213.274 232.575,213.037 232.336 C 212.801 232.096,212.607 233.362,212.607 235.148 C 212.607 237.620,212.407 238.395,211.767 238.395 C 210.799 238.395,210.163 209.510,211.102 208.166 C 211.804 207.161,212.478 207.275,212.785 208.453 C 212.947 209.070,213.073 208.849,213.114 207.880 L 213.181 206.304 249.427 206.322 C 277.044 206.336,285.878 206.506,286.533 207.038 M373.234 207.020 L 374.776 207.736 374.781 232.451 C 374.784 252.605,374.641 257.286,374.005 257.814 C 372.669 258.922,298.281 258.424,298.281 257.307 C 298.281 256.834,298.626 256.447,299.048 256.447 C 299.898 256.447,299.929 248.179,299.171 222.923 L 298.767 209.456 298.667 220.487 C 298.605 227.393,298.353 231.519,297.994 231.519 C 297.631 231.519,297.421 227.316,297.421 220.057 C 297.421 210.681,297.565 208.596,298.214 208.596 C 298.650 208.596,299.142 208.080,299.306 207.450 C 299.680 206.020,370.199 205.610,373.234 207.020 M26.934 232.412 C 26.934 246.997,27.129 254.389,27.507 254.155 C 27.873 253.929,28.080 245.935,28.080 232.058 C 28.080 217.945,27.879 210.315,27.507 210.315 C 27.135 210.315,26.934 218.063,26.934 232.412 M371.920 232.092 C 371.920 246.227,372.121 253.868,372.493 253.868 C 372.865 253.868,373.066 246.227,373.066 232.092 C 373.066 217.956,372.865 210.315,372.493 210.315 C 372.121 210.315,371.920 217.956,371.920 232.092 M199.153 229.880 C 198.913 238.277,198.840 245.498,198.990 245.926 C 199.141 246.354,199.460 239.835,199.701 231.438 C 199.941 223.041,200.014 215.820,199.864 215.392 C 199.713 214.964,199.394 221.483,199.153 229.880 M299.930 222.923 C 299.930 226.547,300.023 228.030,300.137 226.218 C 300.251 224.405,300.251 221.440,300.137 219.628 C 300.023 217.815,299.930 219.298,299.930 222.923 M26.934 255.473 C 26.934 257.245,28.390 257.307,70.281 257.307 C 93.366 257.307,112.373 257.113,112.519 256.877 C 112.665 256.640,93.726 256.515,70.432 256.598 C 32.944 256.731,28.080 256.649,28.080 255.881 C 28.080 255.404,27.822 255.014,27.507 255.014 C 27.192 255.014,26.934 255.221,26.934 255.473 M371.920 255.874 C 371.920 256.627,367.480 256.751,335.960 256.872 L 300.000 257.011 335.753 257.163 C 361.690 257.274,371.720 257.138,372.286 256.668 C 373.200 255.909,373.312 255.014,372.493 255.014 C 372.178 255.014,371.920 255.401,371.920 255.874 " stroke="none" fill="#cccccc" fill-rule="evenodd"></path><path id="path4" d="M23.496 8.596 C 23.496 8.911,23.883 9.169,24.355 9.169 C 24.828 9.169,25.215 8.911,25.215 8.596 C 25.215 8.281,24.828 8.023,24.355 8.023 C 23.883 8.023,23.496 8.281,23.496 8.596 M374.785 8.596 C 374.785 8.911,375.172 9.169,375.645 9.169 C 376.117 9.169,376.504 8.911,376.504 8.596 C 376.504 8.281,376.117 8.023,375.645 8.023 C 375.172 8.023,374.785 8.281,374.785 8.596 M12.989 18.720 C 12.343 19.367,12.533 260.172,13.181 260.172 C 13.561 260.172,13.754 219.484,13.754 139.255 C 13.754 72.751,13.668 18.338,13.563 18.338 C 13.457 18.338,13.200 18.510,12.989 18.720 M386.246 139.221 C 386.246 219.473,386.439 260.172,386.819 260.172 C 387.614 260.172,387.614 19.116,386.819 18.625 C 386.438 18.389,386.246 58.733,386.246 139.221 M27.657 23.469 C 27.217 24.174,27.165 24.717,27.519 24.936 C 27.828 25.126,28.080 24.881,28.080 24.389 C 28.080 23.588,32.434 23.496,70.201 23.496 C 97.899 23.496,112.321 23.299,112.321 22.923 C 112.321 21.650,28.455 22.191,27.657 23.469 M127.221 22.923 C 127.221 23.299,139.542 23.496,163.037 23.496 L 198.854 23.496 198.854 46.705 L 198.854 69.914 162.751 69.914 C 139.064 69.914,126.648 70.111,126.648 70.487 C 126.648 71.379,198.419 71.266,199.312 70.372 C 200.492 69.192,200.281 23.153,199.094 22.697 C 197.478 22.077,127.221 22.298,127.221 22.923 M212.989 22.732 C 212.251 23.470,212.547 69.625,213.295 70.372 C 214.189 71.266,285.960 71.379,285.960 70.487 C 285.960 70.111,273.543 69.914,249.857 69.914 L 213.754 69.914 213.754 46.705 L 213.754 23.496 249.857 23.496 C 273.543 23.496,285.960 23.299,285.960 22.923 C 285.960 22.276,213.634 22.087,212.989 22.732 M299.405 22.957 C 299.199 23.292,299.191 33.929,299.389 46.596 C 299.586 59.263,299.740 69.950,299.731 70.344 C 299.700 71.604,372.253 71.367,372.737 70.105 C 372.938 69.579,372.837 68.883,372.512 68.557 C 372.105 68.150,371.920 68.270,371.920 68.940 C 371.920 69.846,369.431 69.914,336.103 69.914 L 300.287 69.914 300.143 56.877 C 300.064 49.706,300.039 39.327,300.087 33.811 L 300.174 23.782 336.047 23.635 C 367.697 23.504,371.920 23.589,371.920 24.351 C 371.920 24.826,372.178 25.215,372.493 25.215 C 373.147 25.215,373.221 24.567,372.718 23.256 C 372.288 22.135,300.095 21.841,299.405 22.957 M27.349 68.573 C 27.119 68.938,27.088 69.648,27.280 70.149 C 27.700 71.244,112.321 71.580,112.321 70.487 C 112.321 70.110,97.913 69.914,70.243 69.914 C 30.626 69.914,28.153 69.855,27.966 68.911 C 27.832 68.238,27.629 68.127,27.349 68.573 M197.501 85.100 C 197.682 85.573,198.061 85.960,198.342 85.960 C 198.624 85.960,198.854 85.573,198.854 85.100 C 198.854 84.628,198.475 84.241,198.012 84.241 C 197.500 84.241,197.300 84.577,197.501 85.100 M213.324 84.620 C 212.406 84.991,212.264 132.378,213.181 132.378 C 213.553 132.378,213.754 124.085,213.754 108.644 C 213.754 90.192,213.913 84.845,214.470 84.620 C 214.864 84.461,214.928 84.331,214.613 84.331 C 214.298 84.331,213.718 84.461,213.324 84.620 M299.522 84.623 C 298.864 85.281,299.069 132.951,299.730 132.951 C 300.126 132.951,300.303 125.129,300.268 109.172 C 300.239 96.093,300.375 85.134,300.571 84.817 C 300.967 84.177,300.124 84.021,299.522 84.623 M198.854 121.394 C 198.854 128.016,199.072 132.378,199.403 132.378 C 199.910 132.378,199.578 111.244,199.061 110.649 C 198.947 110.518,198.854 115.353,198.854 121.394 M198.941 157.335 L 199.029 168.768 199.487 157.881 C 199.773 151.102,199.740 146.788,199.400 146.449 C 199.054 146.103,198.886 150.092,198.941 157.335 M212.648 157.989 C 212.670 164.548,212.910 170.430,213.181 171.060 C 213.476 171.748,213.689 167.125,213.713 159.489 C 213.738 151.585,213.537 146.638,213.181 146.418 C 212.805 146.186,212.621 150.175,212.648 157.989 M299.218 156.399 C 299.261 161.941,299.490 172.536,299.727 179.943 L 300.158 193.410 300.006 175.358 C 299.923 165.430,300.016 154.835,300.214 151.814 C 300.489 147.610,300.405 146.322,299.857 146.322 C 299.308 146.323,299.159 148.679,299.218 156.399 M371.920 147.564 C 371.920 148.037,372.178 148.424,372.493 148.424 C 372.808 148.424,373.066 148.037,373.066 147.564 C 373.066 147.092,372.808 146.705,372.493 146.705 C 372.178 146.705,371.920 147.092,371.920 147.564 M126.443 193.564 C 126.000 194.281,128.705 195.268,129.349 194.625 C 129.544 194.429,129.167 194.269,128.510 194.269 C 127.853 194.269,127.213 193.960,127.087 193.581 C 126.913 193.059,126.757 193.055,126.443 193.564 M197.203 194.061 C 196.517 194.836,196.549 194.929,197.442 194.756 C 198.009 194.646,198.580 194.234,198.711 193.840 C 199.040 192.850,198.160 192.980,197.203 194.061 M50.573 194.699 C 61.211 194.786,78.617 194.786,89.255 194.699 C 99.893 194.612,91.189 194.540,69.914 194.540 C 48.639 194.540,39.936 194.612,50.573 194.699 M147.175 194.699 C 156.102 194.788,170.543 194.788,179.267 194.699 C 187.991 194.610,180.688 194.537,163.037 194.537 C 145.387 194.537,138.249 194.610,147.175 194.699 M231.089 194.699 C 240.466 194.787,255.809 194.787,265.186 194.699 C 274.563 194.610,266.891 194.538,248.138 194.538 C 229.384 194.538,221.712 194.610,231.089 194.699 M318.481 194.699 C 327.701 194.787,342.787 194.787,352.006 194.699 C 361.225 194.610,353.682 194.538,335.244 194.538 C 316.805 194.538,309.262 194.610,318.481 194.699 M27.268 208.965 C 27.070 209.482,27.077 210.063,27.286 210.254 C 27.494 210.445,27.779 210.279,27.920 209.885 C 28.121 209.321,37.109 209.169,70.248 209.169 C 97.915 209.169,112.321 208.973,112.321 208.596 C 112.321 207.476,27.699 207.843,27.268 208.965 M126.648 208.596 C 126.648 208.972,139.064 209.169,162.751 209.169 L 198.854 209.169 198.942 219.628 L 199.029 230.086 199.479 219.787 C 199.787 212.738,199.737 209.256,199.321 208.755 C 198.546 207.821,126.648 207.664,126.648 208.596 M212.955 208.929 C 212.353 210.498,212.560 231.995,213.181 232.378 C 213.555 232.610,213.754 228.659,213.754 220.951 L 213.754 209.169 249.857 209.169 C 273.543 209.169,285.960 208.972,285.960 208.596 C 285.960 207.508,213.373 207.840,212.955 208.929 M299.436 231.662 C 299.679 244.663,299.883 255.623,299.891 256.017 C 299.908 256.938,371.920 257.082,371.920 256.160 C 371.920 255.785,359.599 255.587,336.103 255.587 L 300.287 255.587 300.143 242.264 C 300.064 234.936,300.000 224.492,300.000 219.056 L 300.000 209.172 335.912 209.171 C 364.124 209.169,371.879 209.323,372.080 209.885 C 372.221 210.279,372.506 210.445,372.714 210.254 C 375.054 208.104,373.707 208.023,335.683 208.023 L 298.996 208.023 299.436 231.662 M28.080 256.160 C 28.080 256.537,42.502 256.734,70.201 256.734 C 97.899 256.734,112.321 256.537,112.321 256.160 C 112.321 255.784,97.899 255.587,70.201 255.587 C 42.502 255.587,28.080 255.784,28.080 256.160 M127.221 256.160 C 127.221 256.536,139.446 256.734,162.751 256.734 C 186.055 256.734,198.281 256.536,198.281 256.160 C 198.281 255.785,186.055 255.587,162.751 255.587 C 139.446 255.587,127.221 255.785,127.221 256.160 M213.754 256.160 C 213.754 256.536,226.170 256.734,249.857 256.734 C 273.543 256.734,285.960 256.536,285.960 256.160 C 285.960 255.784,273.543 255.587,249.857 255.587 C 226.170 255.587,213.754 255.784,213.754 256.160 M16.914 266.823 C 17.736 267.644,18.562 268.162,18.751 267.973 C 19.137 267.587,16.728 265.330,15.932 265.330 C 15.651 265.330,16.093 266.002,16.914 266.823 M23.496 270.487 C 23.496 270.802,23.883 271.060,24.355 271.060 C 24.828 271.060,25.215 270.802,25.215 270.487 C 25.215 270.172,24.828 269.914,24.355 269.914 C 23.883 269.914,23.496 270.172,23.496 270.487 M374.785 270.487 C 374.785 270.802,375.172 271.060,375.645 271.060 C 376.117 271.060,376.504 270.802,376.504 270.487 C 376.504 270.172,376.117 269.914,375.645 269.914 C 375.172 269.914,374.785 270.172,374.785 270.487 " stroke="none" fill="#dfdfdf" fill-rule="evenodd"></path></g></svg>