<?xml version="1.0" encoding="UTF-8" standalone="no"?>
<svg width="83px" height="78px" viewBox="0 0 83 78" version="1.1" xmlns="http://www.w3.org/2000/svg" xmlns:xlink="http://www.w3.org/1999/xlink">
    <!-- Generator: Sketch 3.6.1 (26313) - http://www.bohemiancoding.com/sketch -->
    <title>noun_317003</title>
    <desc>Created with Sketch.</desc>
    <defs></defs>
    <g id="Page-1" stroke="none" stroke-width="1" fill="none" fill-rule="evenodd">
        <g id="Artboard-1" transform="translate(-33.000000, -19.000000)" fill="#FFFFFF">
            <g id="noun_317003" transform="translate(33.000000, 19.000000)">
                <path d="M66,77.588 L15.58,77.588 L0,29.637 L40.791,0 L81.581,29.637 L66,77.588 L66,77.588 Z M16.125,76.838 L65.455,76.838 L80.7,29.923 L40.791,0.927 L0.882,29.923 L16.125,76.838 L16.125,76.838 Z" id="Shape"></path>
                <path d="M61.473,71.928 L20.108,71.928 L7.325,32.587 L40.791,8.273 L74.256,32.586 L61.473,71.928 L61.473,71.928 Z M20.653,71.178 L60.928,71.178 L73.374,32.873 L40.791,9.2 L8.207,32.873 L20.653,71.178 L20.653,71.178 Z" id="Shape"></path>
                <path d="M56.663,65.831 L24.918,65.831 L15.109,35.642 L40.79,16.983 L66.471,35.642 L56.663,65.831 L56.663,65.831 Z M25.463,65.081 L56.117,65.081 L65.59,35.928 L40.79,17.909 L15.991,35.928 L25.463,65.081 L25.463,65.081 Z" id="Shape"></path>
                <path d="M52.479,60.7 L29.103,60.7 L21.88,38.468 L40.791,24.728 L59.702,38.468 L52.479,60.7 L52.479,60.7 Z M29.648,59.95 L51.934,59.95 L58.821,38.754 L40.791,25.654 L22.762,38.754 L29.648,59.95 L29.648,59.95 Z" id="Shape"></path>
                <path d="M52.479,60.7 L29.103,60.7 L21.88,38.468 L40.791,24.728 L59.702,38.468 L52.479,60.7 L52.479,60.7 Z M29.648,59.95 L51.934,59.95 L58.821,38.754 L40.791,25.654 L22.762,38.754 L29.648,59.95 L29.648,59.95 Z" id="Shape"></path>
                <path d="M48.178,55.387 L33.402,55.387 L28.837,41.335 L40.791,32.651 L52.744,41.335 L48.178,55.387 L48.178,55.387 Z M33.947,54.637 L47.634,54.637 L51.863,41.622 L40.791,33.578 L29.719,41.622 L33.947,54.637 L33.947,54.637 Z" id="Shape"></path>
                <rect id="Rectangle-path" transform="translate(20.616046, 37.893455) rotate(21.906740) translate(-20.616046, -37.893455) " x="-1.12913235" y="37.6434529" width="43.4903577" height="0.500004112"></rect>
                <rect id="Rectangle-path" transform="translate(28.322183, 61.612102) rotate(38.658913) translate(-28.322183, -61.612102) " x="28.0721759" y="41.6375541" width="0.500013725" height="39.9490966"></rect>
                <rect id="Rectangle-path" transform="translate(53.263243, 61.610630) rotate(51.369720) translate(-53.263243, -61.610630) " x="33.2890039" y="61.3606265" width="39.948478" height="0.500005982"></rect>
                <rect id="Rectangle-path" transform="translate(60.964523, 37.894748) rotate(68.136883) translate(-60.964523, -37.894748) " x="60.7140165" y="16.149689" width="0.501012868" height="43.490117"></rect>
                <rect id="Rectangle-path" x="40.541" y="0.463" width="0.5" height="45.542"></rect>
                <path d="M82.203,29.988 C82.203,29.182 81.55,28.529 80.744,28.529 C80.417,28.529 80.118,28.641 79.875,28.823 L41.838,24.5 C41.57,24.161 41.161,23.939 40.696,23.939 C40.071,23.939 39.541,24.336 39.334,24.89 L16.242,34.71 C16.063,34.631 15.866,34.586 15.657,34.586 C14.852,34.586 14.199,35.24 14.199,36.045 C14.199,36.66 14.579,37.183 15.116,37.398 L19.449,70.452 C19.221,70.71 19.078,71.044 19.078,71.415 C19.078,72.221 19.731,72.874 20.536,72.874 C21.042,72.874 21.488,72.615 21.75,72.224 L55.355,66.508 C55.598,66.692 55.898,66.804 56.226,66.804 C56.98,66.804 57.593,66.23 57.669,65.496 L80.88,31.433 C81.622,31.362 82.203,30.747 82.203,29.988 L82.203,29.988 Z M56.34,63.897 C56.302,63.894 56.266,63.885 56.227,63.885 C55.721,63.885 55.276,64.144 55.014,64.535 L21.44,70.247 L17.023,36.552 L40.113,26.733 C40.292,26.812 40.488,26.857 40.696,26.857 C41.064,26.857 41.396,26.717 41.653,26.492 L78.94,30.73 L56.34,63.897 L56.34,63.897 Z" id="Shape"></path>
            </g>
        </g>
    </g>
</svg>