<?xml version="1.0" encoding="UTF-8" standalone="no"?>
<svg width="334px" height="192px" viewBox="0 0 334 192" version="1.1" xmlns="http://www.w3.org/2000/svg" xmlns:xlink="http://www.w3.org/1999/xlink">
    <!-- Generator: Sketch 3.6.1 (26313) - http://www.bohemiancoding.com/sketch -->
    <title>teams</title>
    <desc>Created with Sketch.</desc>
    <defs></defs>
    <g id="Page-1" stroke="none" stroke-width="1" fill="none" fill-rule="evenodd">
        <g id="Artboard-1" transform="translate(-139.000000, -245.000000)">
            <g id="teams" transform="translate(139.000000, 245.000000)">
                <g id="Group" transform="translate(0.000000, 5.000000)">
                    <path d="M58.5049091,29.4596552 C58.7798182,29.7314138 59.0674545,29.8692069 59.3385455,29.8207241 C59.4658182,29.7990345 59.5867273,29.7326897 59.6949091,29.6331724 C61.0210909,33.772069 63.5652727,37.8905517 66.77,40.3516897 C68.6167273,41.7666207 70.6874545,42.6354828 72.8689091,42.6354828 C74.5450909,42.6354828 76.1550909,42.1174828 77.6505455,41.2358621 C78.1405455,40.9462414 78.6203636,40.6157931 79.0861818,40.2521724 C82.2349091,37.7795517 84.7294545,33.7146552 86.0390909,29.6318966 C86.1447273,29.7339655 86.2669091,29.8003103 86.3929091,29.8194483 C86.5074545,29.8398621 86.622,29.8232759 86.7378182,29.7837241 C86.8625455,29.7428966 86.9936364,29.6688966 87.1158182,29.563 C87.6605455,29.0973103 88.1709091,28.0498276 88.4483636,26.7701379 C88.4789091,26.6502069 88.5107273,26.5417586 88.5310909,26.4167241 C88.6163636,25.9446552 88.6609091,25.4878966 88.6672727,25.0655862 C88.6927273,23.7897241 88.3885455,22.7983793 87.8641818,22.5483103 C87.8132727,22.5291724 87.7572727,22.5074828 87.7025455,22.4985517 L87.6987273,22.4985517 C87.6529091,22.4908966 87.5956364,22.5087586 87.546,22.5113103 C87.4861818,22.5164138 87.4276364,22.5087586 87.3665455,22.5304483 C87.2558182,22.5674483 87.1412727,22.6325172 87.0305455,22.7192759 L87.0165455,22.7333103 L87.0165455,22.7307586 C87.0114545,22.7320345 87.0114545,22.7320345 87.0050909,22.7333103 L87.0050909,22.6950345 C86.1574545,19.4645517 85.0858182,17.4856897 83.9823636,16.3055172 C83.7672727,16.1919655 83.5458182,16.0847931 83.3001818,16.0146207 C83.2734545,16.4943448 83.8169091,17.2164828 83.8690909,17.9233103 C82.3354545,17.2075517 80.8705455,16.0975517 78.7349091,16.0171724 C78.236,16.0005862 77.6938182,16.0056897 77.1376364,16.0158966 C71.9767273,17.8697241 66.2990909,15.7747586 66.2990909,15.7747586 C63.4647273,15.5132069 61.6752727,16.6538276 60.5527273,18.0878966 C59.1069091,19.9302414 58.7632727,22.2548621 58.72,22.6873793 C58.7187273,22.7039655 58.7174545,22.7218276 58.7174545,22.7409655 L58.7161818,22.7409655 C58.4845455,22.5559655 58.2503636,22.4704828 58.0263636,22.5074828 C57.9309091,22.5227931 57.838,22.5661724 57.7501818,22.6261379 C57.5452727,22.7715862 57.3887273,23.0433448 57.2729091,23.3916552 C57.2105455,24.2987931 57.1672727,25.2161379 57.1621818,26.1564483 C57.1723636,26.2470345 57.1838182,26.3312414 57.2003636,26.4205517 C57.4409091,27.7742414 57.9474545,28.8982759 58.5049091,29.4596552 L58.5049091,29.4596552 Z" id="Shape"></path>
                    <path d="M57.0056364,31.043 C58.4476364,34.9356552 60.7334545,38.7185862 63.5589091,41.4795517 C65.1549091,43.0475862 66.9278182,44.2877241 68.8152727,45.0404828 C70.1147273,45.5533793 71.4701818,45.843 72.8663636,45.843 C74.2574545,45.843 75.6129091,45.5572069 76.9110909,45.0404828 C78.866,44.260931 80.6987273,42.9621034 82.338,41.3175172 C85.0947273,38.5603793 87.3270909,34.8348621 88.7372727,31.0111034 C89.828,30.6895862 90.9696364,28.646931 91.4341818,26.0352414 C91.9356364,23.2015517 91.4621818,20.7314828 90.3714545,20.321931 C90.4109091,19.6291379 90.4363636,18.9286897 90.4325455,18.2142069 C90.4083636,7.94606897 84.4023636,1.16486207 74.9332727,0.530758621 C66.6783636,-0.0267931034 60.4585455,3.26237931 57.6254545,8.72562069 C56.6709091,10.5641379 56.13,13.6772414 55.9187273,16.1753793 C55.6005455,17.4780345 55.4147273,18.8304483 55.4147273,20.230069 L55.4478182,20.230069 C55.4478182,20.2428276 55.4465455,20.2530345 55.444,20.2632414 C55.4223636,20.2645172 55.4058182,20.2657931 55.3829091,20.2708966 C54.1789091,20.4788621 53.6265455,23.0624828 54.156,26.039069 C54.6409091,28.7694138 55.8665455,30.8822414 57.0056364,31.043 L57.0056364,31.043 Z M57.2754545,23.3916552 C57.3912727,23.0433448 57.5478182,22.7715862 57.7527273,22.6261379 C57.8392727,22.5661724 57.9334545,22.5227931 58.0289091,22.5074828 C58.2541818,22.4692069 58.4870909,22.5559655 58.7187273,22.7409655 L58.72,22.7409655 C58.72,22.7231034 58.7212727,22.7039655 58.7225455,22.6873793 C58.7670909,22.2548621 59.1107273,19.9302414 60.5552727,18.0878966 C61.6778182,16.6551034 63.4672727,15.5132069 66.3016364,15.7747586 C66.3016364,15.7747586 71.978,17.871 77.1401818,16.0158966 C77.6963636,16.0056897 78.2385455,16.0018621 78.7374545,16.0171724 C80.8730909,16.0975517 82.338,17.2088276 83.8716364,17.9233103 C83.8194545,17.2164828 83.276,16.4956207 83.3027273,16.0146207 C83.5483636,16.0847931 83.7698182,16.1919655 83.9849091,16.3055172 C85.0883636,17.4856897 86.16,19.4645517 87.0076364,22.6950345 L87.0076364,22.7333103 C87.014,22.7320345 87.014,22.7320345 87.0190909,22.7307586 L87.0190909,22.7333103 L87.0330909,22.7192759 C87.1425455,22.6312414 87.2570909,22.5661724 87.3690909,22.5304483 C87.4301818,22.5087586 87.4887273,22.5176897 87.5485455,22.5113103 C87.5981818,22.5087586 87.6554545,22.4896207 87.7012727,22.4985517 L87.7050909,22.4985517 C87.7585455,22.5074828 87.8158182,22.5291724 87.8667273,22.5483103 C88.3923636,22.7983793 88.6952727,23.7897241 88.6698182,25.0655862 C88.6634545,25.4878966 88.6189091,25.9446552 88.5336364,26.4167241 C88.5132727,26.5417586 88.4814545,26.6502069 88.4509091,26.7701379 C88.1721818,28.0498276 87.6618182,29.0973103 87.1183636,29.563 C86.9961818,29.6688966 86.8650909,29.7441724 86.7403636,29.7837241 C86.6245455,29.8232759 86.5087273,29.8385862 86.3954545,29.8194483 C86.2694545,29.8003103 86.1485455,29.7339655 86.0416364,29.6318966 C84.732,33.7146552 82.2374545,37.7795517 79.0887273,40.2521724 C78.6216364,40.6145172 78.1418182,40.9462414 77.6530909,41.2358621 C76.1576364,42.1162069 74.5489091,42.6354828 72.8714545,42.6354828 C70.6887273,42.6354828 68.6192727,41.7666207 66.7725455,40.3516897 C63.5678182,37.8905517 61.0223636,33.772069 59.6974545,29.6331724 C59.5892727,29.7326897 59.4683636,29.7990345 59.3410909,29.8207241 C59.07,29.8692069 58.7823636,29.7314138 58.5074545,29.4596552 C57.95,28.8995517 57.4434545,27.7742414 57.2041818,26.4205517 C57.1876364,26.3312414 57.1761818,26.2470345 57.166,26.1564483 C57.1685455,25.2161379 57.2118182,24.2987931 57.2754545,23.3916552 L57.2754545,23.3916552 Z" id="Shape" fill="#FFFFFF"></path>
                    <path d="M102.454727,52.0015862 C99.4409091,48.0987241 96.2705455,47.4697241 94.9189091,47.2107241 C94.7534545,47.1801034 94.616,47.1533103 94.5027273,47.1277931 C92.9958182,46.7756552 91.2674545,46.6723103 89.7414545,46.583 C88.5145455,46.5102759 87.3436364,46.4477586 86.3903636,46.2551034 C85.2818182,49.1972414 79.8332727,51.3343103 73.1221818,51.3343103 C66.4085455,51.3343103 60.9638182,49.1959655 59.8565455,46.2551034 C58.8981818,46.4464828 57.726,46.5141034 56.5003636,46.5868276 C54.9743636,46.6710345 53.246,46.7743793 51.7416364,47.1277931 C51.6283636,47.1533103 51.4883636,47.1801034 51.3229091,47.2107241 C50.0489091,47.4569655 47.1521818,48.0157931 44.2923636,51.3585517 C42.5690909,53.3756897 40.8598182,56.4007586 39.5298182,60.9874828 C39.1989091,62.1306552 39.1963636,63.3363448 39.4661818,64.4603793 C39.5909091,64.9707241 39.7538182,65.4772414 39.9981818,65.942931 C42.9445455,71.5375862 59.0203636,73.5317586 73.0789091,73.5317586 L73.1578182,73.5317586 C87.2189091,73.5317586 103.285818,71.5375862 106.239818,65.942931 C106.527455,65.4057931 106.698,64.8176207 106.820182,64.2128621 C107.026364,63.1628276 107.008545,62.0566552 106.705636,60.9951379 C105.511818,56.8536897 104.004909,54.0059655 102.454727,52.0015862 L102.454727,52.0015862 Z" id="Shape" fill="#FFFFFF"></path>
                    <path d="M142.981758,61.3624825 C142.946292,61.0812993 142.893974,60.8065824 142.816968,60.5355884 C141.946769,57.5385874 140.795976,55.640454 139.654,54.4226468 C137.774481,52.420074 135.91397,52.2611615 135.346117,52.1300733 C135.238738,52.1065597 135.131752,52.0824583 135.022413,52.0626677 C134.675392,51.7405317 134.3995,51.2925981 134.186506,50.7537454 C133.651768,49.4075932 133.494619,47.4922166 133.508923,45.59134 C133.540078,42.1667838 134.140458,38.7745588 134.140458,38.7745588 C134.140458,38.7745588 134.140458,38.7745588 134.140458,38.773775 C134.140458,38.2995845 134.129094,37.8445969 134.112634,37.3999944 C134.106168,37.2589129 134.095979,37.1246896 134.089512,36.9873311 C134.072661,36.6863574 134.055418,36.3904782 134.029357,36.1034167 C134.017012,35.9523419 134.001924,35.805774 133.987032,35.6572466 C133.960971,35.3927189 133.929228,35.1336776 133.895721,34.8812986 C133.876715,34.7394334 133.858491,34.5983519 133.837133,34.4607975 C133.798728,34.2023441 133.755424,33.9499651 133.709376,33.7038564 C133.687626,33.5907953 133.668032,33.4740112 133.64589,33.3619298 C133.576525,33.0270573 133.502457,32.6998267 133.422903,32.3863124 C133.418788,32.3745556 133.416436,32.3631907 133.412713,32.3496704 C133.326693,32.0210682 133.235382,31.7102971 133.137409,31.4089315 C133.106449,31.318992 133.076077,31.2341472 133.045706,31.147147 C132.976341,30.9394438 132.901097,30.7356594 132.824678,30.539713 C132.787644,30.4417398 132.748063,30.3443544 132.707894,30.2510839 C132.635786,30.0729685 132.556819,29.9011235 132.479224,29.734569 C132.437488,29.6422782 132.395555,29.5513591 132.352447,29.4627913 C132.266622,29.2948651 132.18119,29.1312499 132.094386,28.9744927 C132.052649,28.9006209 132.012676,28.8249855 131.971527,28.7540529 C131.855135,28.5518362 131.730121,28.3554978 131.608634,28.1691528 C131.597073,28.1507338 131.586296,28.1305513 131.571796,28.1113485 C131.432674,27.9063886 131.291005,27.7116178 131.147572,27.5284078 C131.10564,27.4741307 131.06214,27.4237724 131.018248,27.3730223 C130.9142,27.2450693 130.81074,27.1204473 130.703949,27.0020957 C130.647909,26.9427239 130.594415,26.887271 130.539159,26.8273114 C130.441577,26.7222841 130.34184,26.6227433 130.240536,26.525162 C130.184299,26.470101 130.129434,26.4173914 130.073002,26.3658575 C129.967583,26.2698438 129.862751,26.1793165 129.755569,26.0905527 C129.703447,26.0472486 129.651717,26.0025728 129.600379,25.9624038 C129.465568,25.8560048 129.329581,25.7541127 129.192223,25.6582949 C129.170668,25.6412475 129.146371,25.6230245 129.125797,25.6087204 C128.967864,25.4978147 128.805228,25.3961185 128.644356,25.2995169 C128.597721,25.2722803 128.551478,25.2468073 128.505626,25.2215302 C128.390998,25.1543206 128.275389,25.0910299 128.164092,25.0340095 C128.10374,25.0030499 128.04574,24.9744417 127.987152,24.9454417 C127.883104,24.8956713 127.782976,24.8474684 127.680692,24.8024007 C127.619752,24.775752 127.56234,24.7506709 127.502576,24.7261776 C127.398529,24.6820896 127.297224,24.6427044 127.192197,24.6042989 C127.139292,24.5845083 127.083251,24.5629542 127.033089,24.5435555 C126.912973,24.5002513 126.790311,24.461258 126.673723,24.4250079 C126.641196,24.4157984 126.607101,24.4028659 126.575554,24.3940483 C126.426046,24.3495685 126.281634,24.310967 126.138789,24.2762845 C126.089998,24.2643318 126.046498,24.2559061 126.00143,24.2459128 C125.903261,24.2237709 125.806464,24.201237 125.712605,24.1818383 C125.65774,24.1714531 125.602875,24.1616558 125.551537,24.1522504 C125.468064,24.1367706 125.385179,24.1236422 125.307192,24.1109057 C125.252327,24.10248 125.199618,24.095034 125.149847,24.0887637 C125.07284,24.0783786 124.994854,24.0685813 124.919806,24.0609393 C124.869448,24.0560407 124.822225,24.0491826 124.775981,24.0446758 C124.697211,24.0372298 124.620792,24.0299798 124.545744,24.025669 C124.506359,24.0235136 124.467758,24.0192028 124.433075,24.0160676 C124.327852,24.0096014 124.231642,24.0078379 124.137,24.0031351 C124.093696,24.0023514 124.055878,24.0023514 124.013358,24.0023514 C123.966331,24.0023514 123.91656,24.0015676 123.870513,24.0015676 C123.639688,24.0015676 123.454322,24.0103852 123.324018,24.0217501 C123.305403,24.0217501 123.293842,24.0227298 123.279342,24.0250811 C123.231727,24.0278244 123.194302,24.0315474 123.166869,24.0346825 C123.156876,24.0354663 123.144727,24.0368379 123.137673,24.0376217 C123.111612,24.0395812 123.096328,24.0419325 123.096328,24.0419325 C122.961125,24.033115 122.827686,24.0278244 122.695422,24.0233176 C122.562962,24.0264528 122.429718,24.033115 122.294515,24.0405609 C122.294515,24.0405609 122.27786,24.0386015 122.253367,24.0358582 C122.244745,24.0350744 122.232204,24.0340947 122.223779,24.033115 C122.19811,24.0301758 122.157549,24.0264528 122.112481,24.0233176 C122.100137,24.0221419 122.085049,24.0213582 122.067609,24.0201825 C121.935346,24.0088176 121.752528,24 121.520527,24 C121.474675,24 121.422946,24 121.372979,24.0011757 C121.333006,24.0011757 121.297736,24.0011757 121.256979,24.0019595 C121.162729,24.0039189 121.060641,24.0088176 120.957181,24.014696 C120.926417,24.0168514 120.890951,24.0197906 120.859208,24.0231217 C120.780437,24.0276285 120.699119,24.0338987 120.614079,24.0433042 C120.569207,24.0466353 120.524531,24.0521218 120.481031,24.058588 C120.400497,24.0670137 120.320747,24.076811 120.236686,24.0883719 C120.188483,24.095034 120.14028,24.10248 120.091489,24.1093381 C120.004097,24.1232503 119.917293,24.1369666 119.826962,24.1542099 C119.779151,24.1630275 119.731536,24.1706694 119.682353,24.1800748 C119.57811,24.201237 119.474062,24.2243587 119.365116,24.2480682 C119.328278,24.2566899 119.293204,24.2655074 119.25421,24.2727575 C119.107054,24.3076359 118.957351,24.3470212 118.806864,24.3928726 C118.782959,24.3993389 118.758662,24.4093321 118.734168,24.4154065 C118.608371,24.4545958 118.48081,24.4965283 118.350897,24.5419879 C118.301714,24.5596231 118.251356,24.5788258 118.20139,24.5970489 C118.093815,24.6381976 117.986633,24.680522 117.878078,24.7255897 C117.823213,24.7477317 117.767368,24.772225 117.712503,24.7971102 C117.604929,24.8427657 117.497746,24.8950834 117.389388,24.9474011 C117.335307,24.9730701 117.28005,24.999131 117.225968,25.0289148 C117.107813,25.090442 116.98515,25.1576517 116.864643,25.2276045 C116.825454,25.2519019 116.783325,25.2726722 116.74394,25.2977534 C116.581892,25.3945509 116.419061,25.4980107 116.255446,25.610288 C116.240162,25.6204772 116.225858,25.6324299 116.21077,25.6428151 C116.066749,25.7445113 115.923316,25.8507143 115.780275,25.9649511 C115.732465,26.0029647 115.684458,26.0445053 115.635275,26.0829108 C115.524957,26.1748097 115.416207,26.2694519 115.306869,26.3687967 C115.2522,26.418959 115.197923,26.4706889 115.145801,26.5210471 C115.040382,26.620392 114.939077,26.7248314 114.836597,26.832602 C114.784867,26.8878589 114.73255,26.9425279 114.681212,26.9985686 C114.571678,27.1204473 114.463319,27.2482044 114.356724,27.3789007 C114.317339,27.4280833 114.277954,27.4741307 114.237785,27.5250767 C114.091413,27.7100502 113.949156,27.9044291 113.809446,28.1121323 C113.799257,28.1268283 113.790243,28.1442676 113.781034,28.1581797 C113.65406,28.3480519 113.531986,28.5473294 113.40756,28.7552286 C113.368371,28.8240058 113.331533,28.8982695 113.291755,28.96979 C113.203188,29.130662 113.11462,29.2950611 113.030363,29.4663183 C112.986863,29.5535145 112.946106,29.6418863 112.904369,29.7326095 C112.826187,29.9022992 112.748984,30.0768875 112.672369,30.2561785 C112.633963,30.3510165 112.594382,30.4435033 112.557348,30.5406927 C112.480341,30.7393824 112.406077,30.9451262 112.334557,31.1561605 C112.306929,31.242181 112.273618,31.322911 112.247753,31.410695 C112.1488,31.7130404 112.055137,32.0261628 111.969705,32.3541772 C111.96657,32.3669137 111.963239,32.3812178 111.960299,32.3935624 C111.880549,32.7059011 111.804914,33.0309762 111.738684,33.3670244 C111.716738,33.4779301 111.697143,33.5929507 111.675393,33.7042483 C111.63013,33.950357 111.586433,34.2044996 111.546656,34.4641286 C111.52569,34.6003114 111.508055,34.7417847 111.488852,34.8830621 C111.455149,35.1352452 111.423406,35.3936986 111.398913,35.6601858 C111.382649,35.8087132 111.368933,35.955673 111.355413,36.1077275 C111.331899,36.3934174 111.311521,36.6889047 111.295061,36.9883109 C111.287615,37.1270409 111.277818,37.2612643 111.272919,37.4033255 C111.253912,37.847928 111.243331,38.3038954 111.243331,38.7776939 C111.243331,38.7776939 111.243331,38.7776939 111.243331,38.7784777 C111.243331,38.7784777 111.843515,42.1720744 111.874475,45.5948671 C111.892894,47.4971153 111.733197,49.4103365 111.197872,50.7592319 C110.983114,51.2957333 110.709769,51.7460182 110.361376,52.0661947 C110.250666,52.0869651 110.145443,52.1104786 110.039632,52.1355598 C109.496665,52.2603777 107.785072,52.4122362 106,54.1557677 C106.237291,54.3703291 106.47517,54.5982148 106.713637,54.8521614 C108.507919,56.7653826 109.922848,59.475714 110.922371,62.9173176 C111.035628,63.3160686 111.117925,63.7275562 111.17377,64.1743141 L111.177885,64.203902 L111.180432,64.2338818 C111.282129,65.345682 111.118905,66.4449416 110.713296,67.457397 C114.386116,68.145365 118.769047,68.4095008 122.696989,68.408913 C130.714335,68.4098927 140.636475,67.3129844 142.52148,63.7461711 C142.898677,63.0237165 143.057002,62.187613 142.981758,61.3624825 L142.981758,61.3624825 Z M130.194881,51.5244028 C130.16059,51.8226333 130.026367,52.1106746 129.813961,52.3844118 C128.81385,53.6637462 126.00241,55.5109334 122.689739,55.5109334 C119.376481,55.5109334 116.565433,53.6660975 115.563363,52.3844118 C115.351741,52.1108705 115.218497,51.823809 115.182835,51.5244028 L115.182835,51.5228352 C115.232801,51.5055919 115.34645,51.4660107 115.498309,51.395666 C115.559836,51.3696051 115.629397,51.3349226 115.69837,51.2974968 C116.304236,50.9804554 117.194617,50.3167848 117.194617,49.1503155 L117.195401,49.1503155 C118.150836,50.0957572 119.215413,50.8474078 120.350923,51.2974968 C121.113742,51.6010178 121.910656,51.7677683 122.729125,51.7677683 C123.548377,51.7677683 124.344703,51.6008219 125.107523,51.2974968 C126.233039,50.8519145 127.285076,50.1116288 128.236592,49.1763764 C128.244038,49.1795115 128.249524,49.1820588 128.25697,49.1865656 C128.27872,50.6886911 129.78888,51.3474631 130.19684,51.4999095 C130.19782,51.5057879 130.19684,51.5144095 130.194881,51.5244028 L130.194881,51.5244028 Z M131.940176,40.3842589 C131.789885,41.2315314 131.459323,41.9300805 131.109559,42.2287029 C130.967693,42.3466627 130.823281,42.4032912 130.68749,42.3791898 C130.610287,42.3654735 130.537199,42.3278518 130.474496,42.2682841 C129.69796,44.6817566 128.215429,47.0864115 126.344141,48.5324963 C125.251347,49.3738904 124.026486,49.8896215 122.731868,49.8896215 C121.429608,49.8896215 120.198084,49.3676201 119.100392,48.515253 C117.238901,47.0685804 115.763228,44.6721552 114.991395,42.2682841 C114.926733,42.3264802 114.858347,42.3652776 114.779185,42.3791898 C114.62184,42.4070142 114.450583,42.3268721 114.290299,42.1656081 C113.964636,41.8377897 113.665621,41.1768623 113.52356,40.3842589 C113.336235,39.3406481 113.484567,38.4195038 113.853142,38.155368 C113.903108,38.1200976 113.957582,38.0958002 114.01519,38.0863948 C114.146082,38.063665 114.284028,38.1130435 114.419231,38.2225776 C114.419231,38.2225776 114.419231,38.2116046 114.421191,38.1914221 C114.467042,37.7389817 115.070949,32.6565225 118.875642,33.0090302 L130.510746,38.9977418 L131.455796,38.0879624 C131.48656,38.0932529 131.520066,38.1044219 131.549067,38.1171584 C131.960554,38.3123211 132.139649,39.2810803 131.940176,40.3842589 L131.940176,40.3842589 Z" id="Shape" fill="#FFFFFF" transform="translate(124.500000, 46.204457) rotate(-358.000000) translate(-124.500000, -46.204457) "></path>
                    <path d="M27.658,47.483 C27.598,50.162 23.63,52.324 18.739,52.324 C13.849,52.324 9.879,50.162 9.821,47.483 C6.286,47.806 3.113,49.381 0.75,51.761 C0.917,51.931 1.084,52.101 1.246,52.277 C4.574,55.903 6.406,60.612 6.407,65.537 C6.407,67.117 6.217,68.516 5.841,69.745 C6.793,69.782 7.792,69.791 8.828,69.791 C9.591,69.791 10.374,69.785 11.174,69.785 L26.308,69.785 C27.104,69.785 27.888,69.791 28.652,69.791 C35.653,69.791 41.001,69.432 41.001,62.114 C41,54.454 35.139,48.166 27.658,47.483 L27.658,47.483 Z" id="Shape" fill="#FFFFFF" transform="translate(20.875500, 58.637000) scale(-1, 1) translate(-20.875500, -58.637000) "></path>
                    <path d="M22.742,49.402 C29.511,49.402 34.993,39.226 34.993,32.462 C34.993,25.695 29.511,20.21 22.742,20.21 C15.975,20.21 10.49,25.695 10.49,32.462 C10.49,39.228 15.977,49.402 22.742,49.402 L22.742,49.402 Z M15.423,26.956 C17.253,32.527 29.895,30.019 29.895,30.019 C33.536,29.742 33.271,34.747 33.268,34.802 C32.306,40.512 27.959,47.483 22.743,47.483 C17.33,47.483 12.852,39.97 12.124,34.156 C12.695,29.221 15.423,26.956 15.423,26.956 L15.423,26.956 Z" id="Shape" fill="#FFFFFF" transform="translate(22.741500, 34.806000) scale(-1, 1) translate(-22.741500, -34.806000) "></path>
                </g>
                <g id="Group" transform="translate(191.000000, 5.000000)">
                    <path d="M58.5049091,29.4596552 C58.7798182,29.7314138 59.0674545,29.8692069 59.3385455,29.8207241 C59.4658182,29.7990345 59.5867273,29.7326897 59.6949091,29.6331724 C61.0210909,33.772069 63.5652727,37.8905517 66.77,40.3516897 C68.6167273,41.7666207 70.6874545,42.6354828 72.8689091,42.6354828 C74.5450909,42.6354828 76.1550909,42.1174828 77.6505455,41.2358621 C78.1405455,40.9462414 78.6203636,40.6157931 79.0861818,40.2521724 C82.2349091,37.7795517 84.7294545,33.7146552 86.0390909,29.6318966 C86.1447273,29.7339655 86.2669091,29.8003103 86.3929091,29.8194483 C86.5074545,29.8398621 86.622,29.8232759 86.7378182,29.7837241 C86.8625455,29.7428966 86.9936364,29.6688966 87.1158182,29.563 C87.6605455,29.0973103 88.1709091,28.0498276 88.4483636,26.7701379 C88.4789091,26.6502069 88.5107273,26.5417586 88.5310909,26.4167241 C88.6163636,25.9446552 88.6609091,25.4878966 88.6672727,25.0655862 C88.6927273,23.7897241 88.3885455,22.7983793 87.8641818,22.5483103 C87.8132727,22.5291724 87.7572727,22.5074828 87.7025455,22.4985517 L87.6987273,22.4985517 C87.6529091,22.4908966 87.5956364,22.5087586 87.546,22.5113103 C87.4861818,22.5164138 87.4276364,22.5087586 87.3665455,22.5304483 C87.2558182,22.5674483 87.1412727,22.6325172 87.0305455,22.7192759 L87.0165455,22.7333103 L87.0165455,22.7307586 C87.0114545,22.7320345 87.0114545,22.7320345 87.0050909,22.7333103 L87.0050909,22.6950345 C86.1574545,19.4645517 85.0858182,17.4856897 83.9823636,16.3055172 C83.7672727,16.1919655 83.5458182,16.0847931 83.3001818,16.0146207 C83.2734545,16.4943448 83.8169091,17.2164828 83.8690909,17.9233103 C82.3354545,17.2075517 80.8705455,16.0975517 78.7349091,16.0171724 C78.236,16.0005862 77.6938182,16.0056897 77.1376364,16.0158966 C71.9767273,17.8697241 66.2990909,15.7747586 66.2990909,15.7747586 C63.4647273,15.5132069 61.6752727,16.6538276 60.5527273,18.0878966 C59.1069091,19.9302414 58.7632727,22.2548621 58.72,22.6873793 C58.7187273,22.7039655 58.7174545,22.7218276 58.7174545,22.7409655 L58.7161818,22.7409655 C58.4845455,22.5559655 58.2503636,22.4704828 58.0263636,22.5074828 C57.9309091,22.5227931 57.838,22.5661724 57.7501818,22.6261379 C57.5452727,22.7715862 57.3887273,23.0433448 57.2729091,23.3916552 C57.2105455,24.2987931 57.1672727,25.2161379 57.1621818,26.1564483 C57.1723636,26.2470345 57.1838182,26.3312414 57.2003636,26.4205517 C57.4409091,27.7742414 57.9474545,28.8982759 58.5049091,29.4596552 L58.5049091,29.4596552 Z" id="Shape"></path>
                    <path d="M57.0056364,31.043 C58.4476364,34.9356552 60.7334545,38.7185862 63.5589091,41.4795517 C65.1549091,43.0475862 66.9278182,44.2877241 68.8152727,45.0404828 C70.1147273,45.5533793 71.4701818,45.843 72.8663636,45.843 C74.2574545,45.843 75.6129091,45.5572069 76.9110909,45.0404828 C78.866,44.260931 80.6987273,42.9621034 82.338,41.3175172 C85.0947273,38.5603793 87.3270909,34.8348621 88.7372727,31.0111034 C89.828,30.6895862 90.9696364,28.646931 91.4341818,26.0352414 C91.9356364,23.2015517 91.4621818,20.7314828 90.3714545,20.321931 C90.4109091,19.6291379 90.4363636,18.9286897 90.4325455,18.2142069 C90.4083636,7.94606897 84.4023636,1.16486207 74.9332727,0.530758621 C66.6783636,-0.0267931034 60.4585455,3.26237931 57.6254545,8.72562069 C56.6709091,10.5641379 56.13,13.6772414 55.9187273,16.1753793 C55.6005455,17.4780345 55.4147273,18.8304483 55.4147273,20.230069 L55.4478182,20.230069 C55.4478182,20.2428276 55.4465455,20.2530345 55.444,20.2632414 C55.4223636,20.2645172 55.4058182,20.2657931 55.3829091,20.2708966 C54.1789091,20.4788621 53.6265455,23.0624828 54.156,26.039069 C54.6409091,28.7694138 55.8665455,30.8822414 57.0056364,31.043 L57.0056364,31.043 Z M57.2754545,23.3916552 C57.3912727,23.0433448 57.5478182,22.7715862 57.7527273,22.6261379 C57.8392727,22.5661724 57.9334545,22.5227931 58.0289091,22.5074828 C58.2541818,22.4692069 58.4870909,22.5559655 58.7187273,22.7409655 L58.72,22.7409655 C58.72,22.7231034 58.7212727,22.7039655 58.7225455,22.6873793 C58.7670909,22.2548621 59.1107273,19.9302414 60.5552727,18.0878966 C61.6778182,16.6551034 63.4672727,15.5132069 66.3016364,15.7747586 C66.3016364,15.7747586 71.978,17.871 77.1401818,16.0158966 C77.6963636,16.0056897 78.2385455,16.0018621 78.7374545,16.0171724 C80.8730909,16.0975517 82.338,17.2088276 83.8716364,17.9233103 C83.8194545,17.2164828 83.276,16.4956207 83.3027273,16.0146207 C83.5483636,16.0847931 83.7698182,16.1919655 83.9849091,16.3055172 C85.0883636,17.4856897 86.16,19.4645517 87.0076364,22.6950345 L87.0076364,22.7333103 C87.014,22.7320345 87.014,22.7320345 87.0190909,22.7307586 L87.0190909,22.7333103 L87.0330909,22.7192759 C87.1425455,22.6312414 87.2570909,22.5661724 87.3690909,22.5304483 C87.4301818,22.5087586 87.4887273,22.5176897 87.5485455,22.5113103 C87.5981818,22.5087586 87.6554545,22.4896207 87.7012727,22.4985517 L87.7050909,22.4985517 C87.7585455,22.5074828 87.8158182,22.5291724 87.8667273,22.5483103 C88.3923636,22.7983793 88.6952727,23.7897241 88.6698182,25.0655862 C88.6634545,25.4878966 88.6189091,25.9446552 88.5336364,26.4167241 C88.5132727,26.5417586 88.4814545,26.6502069 88.4509091,26.7701379 C88.1721818,28.0498276 87.6618182,29.0973103 87.1183636,29.563 C86.9961818,29.6688966 86.8650909,29.7441724 86.7403636,29.7837241 C86.6245455,29.8232759 86.5087273,29.8385862 86.3954545,29.8194483 C86.2694545,29.8003103 86.1485455,29.7339655 86.0416364,29.6318966 C84.732,33.7146552 82.2374545,37.7795517 79.0887273,40.2521724 C78.6216364,40.6145172 78.1418182,40.9462414 77.6530909,41.2358621 C76.1576364,42.1162069 74.5489091,42.6354828 72.8714545,42.6354828 C70.6887273,42.6354828 68.6192727,41.7666207 66.7725455,40.3516897 C63.5678182,37.8905517 61.0223636,33.772069 59.6974545,29.6331724 C59.5892727,29.7326897 59.4683636,29.7990345 59.3410909,29.8207241 C59.07,29.8692069 58.7823636,29.7314138 58.5074545,29.4596552 C57.95,28.8995517 57.4434545,27.7742414 57.2041818,26.4205517 C57.1876364,26.3312414 57.1761818,26.2470345 57.166,26.1564483 C57.1685455,25.2161379 57.2118182,24.2987931 57.2754545,23.3916552 L57.2754545,23.3916552 Z" id="Shape" fill="#FFFFFF"></path>
                    <path d="M102.454727,52.0015862 C99.4409091,48.0987241 96.2705455,47.4697241 94.9189091,47.2107241 C94.7534545,47.1801034 94.616,47.1533103 94.5027273,47.1277931 C92.9958182,46.7756552 91.2674545,46.6723103 89.7414545,46.583 C88.5145455,46.5102759 87.3436364,46.4477586 86.3903636,46.2551034 C85.2818182,49.1972414 79.8332727,51.3343103 73.1221818,51.3343103 C66.4085455,51.3343103 60.9638182,49.1959655 59.8565455,46.2551034 C58.8981818,46.4464828 57.726,46.5141034 56.5003636,46.5868276 C54.9743636,46.6710345 53.246,46.7743793 51.7416364,47.1277931 C51.6283636,47.1533103 51.4883636,47.1801034 51.3229091,47.2107241 C50.0489091,47.4569655 47.1521818,48.0157931 44.2923636,51.3585517 C42.5690909,53.3756897 40.8598182,56.4007586 39.5298182,60.9874828 C39.1989091,62.1306552 39.1963636,63.3363448 39.4661818,64.4603793 C39.5909091,64.9707241 39.7538182,65.4772414 39.9981818,65.942931 C42.9445455,71.5375862 59.0203636,73.5317586 73.0789091,73.5317586 L73.1578182,73.5317586 C87.2189091,73.5317586 103.285818,71.5375862 106.239818,65.942931 C106.527455,65.4057931 106.698,64.8176207 106.820182,64.2128621 C107.026364,63.1628276 107.008545,62.0566552 106.705636,60.9951379 C105.511818,56.8536897 104.004909,54.0059655 102.454727,52.0015862 L102.454727,52.0015862 Z" id="Shape" fill="#FFFFFF"></path>
                    <path d="M142.981758,61.3624825 C142.946292,61.0812993 142.893974,60.8065824 142.816968,60.5355884 C141.946769,57.5385874 140.795976,55.640454 139.654,54.4226468 C137.774481,52.420074 135.91397,52.2611615 135.346117,52.1300733 C135.238738,52.1065597 135.131752,52.0824583 135.022413,52.0626677 C134.675392,51.7405317 134.3995,51.2925981 134.186506,50.7537454 C133.651768,49.4075932 133.494619,47.4922166 133.508923,45.59134 C133.540078,42.1667838 134.140458,38.7745588 134.140458,38.7745588 C134.140458,38.7745588 134.140458,38.7745588 134.140458,38.773775 C134.140458,38.2995845 134.129094,37.8445969 134.112634,37.3999944 C134.106168,37.2589129 134.095979,37.1246896 134.089512,36.9873311 C134.072661,36.6863574 134.055418,36.3904782 134.029357,36.1034167 C134.017012,35.9523419 134.001924,35.805774 133.987032,35.6572466 C133.960971,35.3927189 133.929228,35.1336776 133.895721,34.8812986 C133.876715,34.7394334 133.858491,34.5983519 133.837133,34.4607975 C133.798728,34.2023441 133.755424,33.9499651 133.709376,33.7038564 C133.687626,33.5907953 133.668032,33.4740112 133.64589,33.3619298 C133.576525,33.0270573 133.502457,32.6998267 133.422903,32.3863124 C133.418788,32.3745556 133.416436,32.3631907 133.412713,32.3496704 C133.326693,32.0210682 133.235382,31.7102971 133.137409,31.4089315 C133.106449,31.318992 133.076077,31.2341472 133.045706,31.147147 C132.976341,30.9394438 132.901097,30.7356594 132.824678,30.539713 C132.787644,30.4417398 132.748063,30.3443544 132.707894,30.2510839 C132.635786,30.0729685 132.556819,29.9011235 132.479224,29.734569 C132.437488,29.6422782 132.395555,29.5513591 132.352447,29.4627913 C132.266622,29.2948651 132.18119,29.1312499 132.094386,28.9744927 C132.052649,28.9006209 132.012676,28.8249855 131.971527,28.7540529 C131.855135,28.5518362 131.730121,28.3554978 131.608634,28.1691528 C131.597073,28.1507338 131.586296,28.1305513 131.571796,28.1113485 C131.432674,27.9063886 131.291005,27.7116178 131.147572,27.5284078 C131.10564,27.4741307 131.06214,27.4237724 131.018248,27.3730223 C130.9142,27.2450693 130.81074,27.1204473 130.703949,27.0020957 C130.647909,26.9427239 130.594415,26.887271 130.539159,26.8273114 C130.441577,26.7222841 130.34184,26.6227433 130.240536,26.525162 C130.184299,26.470101 130.129434,26.4173914 130.073002,26.3658575 C129.967583,26.2698438 129.862751,26.1793165 129.755569,26.0905527 C129.703447,26.0472486 129.651717,26.0025728 129.600379,25.9624038 C129.465568,25.8560048 129.329581,25.7541127 129.192223,25.6582949 C129.170668,25.6412475 129.146371,25.6230245 129.125797,25.6087204 C128.967864,25.4978147 128.805228,25.3961185 128.644356,25.2995169 C128.597721,25.2722803 128.551478,25.2468073 128.505626,25.2215302 C128.390998,25.1543206 128.275389,25.0910299 128.164092,25.0340095 C128.10374,25.0030499 128.04574,24.9744417 127.987152,24.9454417 C127.883104,24.8956713 127.782976,24.8474684 127.680692,24.8024007 C127.619752,24.775752 127.56234,24.7506709 127.502576,24.7261776 C127.398529,24.6820896 127.297224,24.6427044 127.192197,24.6042989 C127.139292,24.5845083 127.083251,24.5629542 127.033089,24.5435555 C126.912973,24.5002513 126.790311,24.461258 126.673723,24.4250079 C126.641196,24.4157984 126.607101,24.4028659 126.575554,24.3940483 C126.426046,24.3495685 126.281634,24.310967 126.138789,24.2762845 C126.089998,24.2643318 126.046498,24.2559061 126.00143,24.2459128 C125.903261,24.2237709 125.806464,24.201237 125.712605,24.1818383 C125.65774,24.1714531 125.602875,24.1616558 125.551537,24.1522504 C125.468064,24.1367706 125.385179,24.1236422 125.307192,24.1109057 C125.252327,24.10248 125.199618,24.095034 125.149847,24.0887637 C125.07284,24.0783786 124.994854,24.0685813 124.919806,24.0609393 C124.869448,24.0560407 124.822225,24.0491826 124.775981,24.0446758 C124.697211,24.0372298 124.620792,24.0299798 124.545744,24.025669 C124.506359,24.0235136 124.467758,24.0192028 124.433075,24.0160676 C124.327852,24.0096014 124.231642,24.0078379 124.137,24.0031351 C124.093696,24.0023514 124.055878,24.0023514 124.013358,24.0023514 C123.966331,24.0023514 123.91656,24.0015676 123.870513,24.0015676 C123.639688,24.0015676 123.454322,24.0103852 123.324018,24.0217501 C123.305403,24.0217501 123.293842,24.0227298 123.279342,24.0250811 C123.231727,24.0278244 123.194302,24.0315474 123.166869,24.0346825 C123.156876,24.0354663 123.144727,24.0368379 123.137673,24.0376217 C123.111612,24.0395812 123.096328,24.0419325 123.096328,24.0419325 C122.961125,24.033115 122.827686,24.0278244 122.695422,24.0233176 C122.562962,24.0264528 122.429718,24.033115 122.294515,24.0405609 C122.294515,24.0405609 122.27786,24.0386015 122.253367,24.0358582 C122.244745,24.0350744 122.232204,24.0340947 122.223779,24.033115 C122.19811,24.0301758 122.157549,24.0264528 122.112481,24.0233176 C122.100137,24.0221419 122.085049,24.0213582 122.067609,24.0201825 C121.935346,24.0088176 121.752528,24 121.520527,24 C121.474675,24 121.422946,24 121.372979,24.0011757 C121.333006,24.0011757 121.297736,24.0011757 121.256979,24.0019595 C121.162729,24.0039189 121.060641,24.0088176 120.957181,24.014696 C120.926417,24.0168514 120.890951,24.0197906 120.859208,24.0231217 C120.780437,24.0276285 120.699119,24.0338987 120.614079,24.0433042 C120.569207,24.0466353 120.524531,24.0521218 120.481031,24.058588 C120.400497,24.0670137 120.320747,24.076811 120.236686,24.0883719 C120.188483,24.095034 120.14028,24.10248 120.091489,24.1093381 C120.004097,24.1232503 119.917293,24.1369666 119.826962,24.1542099 C119.779151,24.1630275 119.731536,24.1706694 119.682353,24.1800748 C119.57811,24.201237 119.474062,24.2243587 119.365116,24.2480682 C119.328278,24.2566899 119.293204,24.2655074 119.25421,24.2727575 C119.107054,24.3076359 118.957351,24.3470212 118.806864,24.3928726 C118.782959,24.3993389 118.758662,24.4093321 118.734168,24.4154065 C118.608371,24.4545958 118.48081,24.4965283 118.350897,24.5419879 C118.301714,24.5596231 118.251356,24.5788258 118.20139,24.5970489 C118.093815,24.6381976 117.986633,24.680522 117.878078,24.7255897 C117.823213,24.7477317 117.767368,24.772225 117.712503,24.7971102 C117.604929,24.8427657 117.497746,24.8950834 117.389388,24.9474011 C117.335307,24.9730701 117.28005,24.999131 117.225968,25.0289148 C117.107813,25.090442 116.98515,25.1576517 116.864643,25.2276045 C116.825454,25.2519019 116.783325,25.2726722 116.74394,25.2977534 C116.581892,25.3945509 116.419061,25.4980107 116.255446,25.610288 C116.240162,25.6204772 116.225858,25.6324299 116.21077,25.6428151 C116.066749,25.7445113 115.923316,25.8507143 115.780275,25.9649511 C115.732465,26.0029647 115.684458,26.0445053 115.635275,26.0829108 C115.524957,26.1748097 115.416207,26.2694519 115.306869,26.3687967 C115.2522,26.418959 115.197923,26.4706889 115.145801,26.5210471 C115.040382,26.620392 114.939077,26.7248314 114.836597,26.832602 C114.784867,26.8878589 114.73255,26.9425279 114.681212,26.9985686 C114.571678,27.1204473 114.463319,27.2482044 114.356724,27.3789007 C114.317339,27.4280833 114.277954,27.4741307 114.237785,27.5250767 C114.091413,27.7100502 113.949156,27.9044291 113.809446,28.1121323 C113.799257,28.1268283 113.790243,28.1442676 113.781034,28.1581797 C113.65406,28.3480519 113.531986,28.5473294 113.40756,28.7552286 C113.368371,28.8240058 113.331533,28.8982695 113.291755,28.96979 C113.203188,29.130662 113.11462,29.2950611 113.030363,29.4663183 C112.986863,29.5535145 112.946106,29.6418863 112.904369,29.7326095 C112.826187,29.9022992 112.748984,30.0768875 112.672369,30.2561785 C112.633963,30.3510165 112.594382,30.4435033 112.557348,30.5406927 C112.480341,30.7393824 112.406077,30.9451262 112.334557,31.1561605 C112.306929,31.242181 112.273618,31.322911 112.247753,31.410695 C112.1488,31.7130404 112.055137,32.0261628 111.969705,32.3541772 C111.96657,32.3669137 111.963239,32.3812178 111.960299,32.3935624 C111.880549,32.7059011 111.804914,33.0309762 111.738684,33.3670244 C111.716738,33.4779301 111.697143,33.5929507 111.675393,33.7042483 C111.63013,33.950357 111.586433,34.2044996 111.546656,34.4641286 C111.52569,34.6003114 111.508055,34.7417847 111.488852,34.8830621 C111.455149,35.1352452 111.423406,35.3936986 111.398913,35.6601858 C111.382649,35.8087132 111.368933,35.955673 111.355413,36.1077275 C111.331899,36.3934174 111.311521,36.6889047 111.295061,36.9883109 C111.287615,37.1270409 111.277818,37.2612643 111.272919,37.4033255 C111.253912,37.847928 111.243331,38.3038954 111.243331,38.7776939 C111.243331,38.7776939 111.243331,38.7776939 111.243331,38.7784777 C111.243331,38.7784777 111.843515,42.1720744 111.874475,45.5948671 C111.892894,47.4971153 111.733197,49.4103365 111.197872,50.7592319 C110.983114,51.2957333 110.709769,51.7460182 110.361376,52.0661947 C110.250666,52.0869651 110.145443,52.1104786 110.039632,52.1355598 C109.496665,52.2603777 107.785072,52.4122362 106,54.1557677 C106.237291,54.3703291 106.47517,54.5982148 106.713637,54.8521614 C108.507919,56.7653826 109.922848,59.475714 110.922371,62.9173176 C111.035628,63.3160686 111.117925,63.7275562 111.17377,64.1743141 L111.177885,64.203902 L111.180432,64.2338818 C111.282129,65.345682 111.118905,66.4449416 110.713296,67.457397 C114.386116,68.145365 118.769047,68.4095008 122.696989,68.408913 C130.714335,68.4098927 140.636475,67.3129844 142.52148,63.7461711 C142.898677,63.0237165 143.057002,62.187613 142.981758,61.3624825 L142.981758,61.3624825 Z M130.194881,51.5244028 C130.16059,51.8226333 130.026367,52.1106746 129.813961,52.3844118 C128.81385,53.6637462 126.00241,55.5109334 122.689739,55.5109334 C119.376481,55.5109334 116.565433,53.6660975 115.563363,52.3844118 C115.351741,52.1108705 115.218497,51.823809 115.182835,51.5244028 L115.182835,51.5228352 C115.232801,51.5055919 115.34645,51.4660107 115.498309,51.395666 C115.559836,51.3696051 115.629397,51.3349226 115.69837,51.2974968 C116.304236,50.9804554 117.194617,50.3167848 117.194617,49.1503155 L117.195401,49.1503155 C118.150836,50.0957572 119.215413,50.8474078 120.350923,51.2974968 C121.113742,51.6010178 121.910656,51.7677683 122.729125,51.7677683 C123.548377,51.7677683 124.344703,51.6008219 125.107523,51.2974968 C126.233039,50.8519145 127.285076,50.1116288 128.236592,49.1763764 C128.244038,49.1795115 128.249524,49.1820588 128.25697,49.1865656 C128.27872,50.6886911 129.78888,51.3474631 130.19684,51.4999095 C130.19782,51.5057879 130.19684,51.5144095 130.194881,51.5244028 L130.194881,51.5244028 Z M131.940176,40.3842589 C131.789885,41.2315314 131.459323,41.9300805 131.109559,42.2287029 C130.967693,42.3466627 130.823281,42.4032912 130.68749,42.3791898 C130.610287,42.3654735 130.537199,42.3278518 130.474496,42.2682841 C129.69796,44.6817566 128.215429,47.0864115 126.344141,48.5324963 C125.251347,49.3738904 124.026486,49.8896215 122.731868,49.8896215 C121.429608,49.8896215 120.198084,49.3676201 119.100392,48.515253 C117.238901,47.0685804 115.763228,44.6721552 114.991395,42.2682841 C114.926733,42.3264802 114.858347,42.3652776 114.779185,42.3791898 C114.62184,42.4070142 114.450583,42.3268721 114.290299,42.1656081 C113.964636,41.8377897 113.665621,41.1768623 113.52356,40.3842589 C113.336235,39.3406481 113.484567,38.4195038 113.853142,38.155368 C113.903108,38.1200976 113.957582,38.0958002 114.01519,38.0863948 C114.146082,38.063665 114.284028,38.1130435 114.419231,38.2225776 C114.419231,38.2225776 114.419231,38.2116046 114.421191,38.1914221 C114.467042,37.7389817 115.070949,32.6565225 118.875642,33.0090302 L130.510746,38.9977418 L131.455796,38.0879624 C131.48656,38.0932529 131.520066,38.1044219 131.549067,38.1171584 C131.960554,38.3123211 132.139649,39.2810803 131.940176,40.3842589 L131.940176,40.3842589 Z" id="Shape" fill="#FFFFFF" transform="translate(124.500000, 46.204457) rotate(-358.000000) translate(-124.500000, -46.204457) "></path>
                    <path d="M27.658,47.483 C27.598,50.162 23.63,52.324 18.739,52.324 C13.849,52.324 9.879,50.162 9.821,47.483 C6.286,47.806 3.113,49.381 0.75,51.761 C0.917,51.931 1.084,52.101 1.246,52.277 C4.574,55.903 6.406,60.612 6.407,65.537 C6.407,67.117 6.217,68.516 5.841,69.745 C6.793,69.782 7.792,69.791 8.828,69.791 C9.591,69.791 10.374,69.785 11.174,69.785 L26.308,69.785 C27.104,69.785 27.888,69.791 28.652,69.791 C35.653,69.791 41.001,69.432 41.001,62.114 C41,54.454 35.139,48.166 27.658,47.483 L27.658,47.483 Z" id="Shape" fill="#FFFFFF" transform="translate(20.875500, 58.637000) scale(-1, 1) translate(-20.875500, -58.637000) "></path>
                    <path d="M22.742,49.402 C29.511,49.402 34.993,39.226 34.993,32.462 C34.993,25.695 29.511,20.21 22.742,20.21 C15.975,20.21 10.49,25.695 10.49,32.462 C10.49,39.228 15.977,49.402 22.742,49.402 L22.742,49.402 Z M15.423,26.956 C17.253,32.527 29.895,30.019 29.895,30.019 C33.536,29.742 33.271,34.747 33.268,34.802 C32.306,40.512 27.959,47.483 22.743,47.483 C17.33,47.483 12.852,39.97 12.124,34.156 C12.695,29.221 15.423,26.956 15.423,26.956 L15.423,26.956 Z" id="Shape" fill="#FFFFFF" transform="translate(22.741500, 34.806000) scale(-1, 1) translate(-22.741500, -34.806000) "></path>
                </g>
                <g id="Group" transform="translate(0.000000, 115.000000)">
                    <path d="M58.5049091,29.4596552 C58.7798182,29.7314138 59.0674545,29.8692069 59.3385455,29.8207241 C59.4658182,29.7990345 59.5867273,29.7326897 59.6949091,29.6331724 C61.0210909,33.772069 63.5652727,37.8905517 66.77,40.3516897 C68.6167273,41.7666207 70.6874545,42.6354828 72.8689091,42.6354828 C74.5450909,42.6354828 76.1550909,42.1174828 77.6505455,41.2358621 C78.1405455,40.9462414 78.6203636,40.6157931 79.0861818,40.2521724 C82.2349091,37.7795517 84.7294545,33.7146552 86.0390909,29.6318966 C86.1447273,29.7339655 86.2669091,29.8003103 86.3929091,29.8194483 C86.5074545,29.8398621 86.622,29.8232759 86.7378182,29.7837241 C86.8625455,29.7428966 86.9936364,29.6688966 87.1158182,29.563 C87.6605455,29.0973103 88.1709091,28.0498276 88.4483636,26.7701379 C88.4789091,26.6502069 88.5107273,26.5417586 88.5310909,26.4167241 C88.6163636,25.9446552 88.6609091,25.4878966 88.6672727,25.0655862 C88.6927273,23.7897241 88.3885455,22.7983793 87.8641818,22.5483103 C87.8132727,22.5291724 87.7572727,22.5074828 87.7025455,22.4985517 L87.6987273,22.4985517 C87.6529091,22.4908966 87.5956364,22.5087586 87.546,22.5113103 C87.4861818,22.5164138 87.4276364,22.5087586 87.3665455,22.5304483 C87.2558182,22.5674483 87.1412727,22.6325172 87.0305455,22.7192759 L87.0165455,22.7333103 L87.0165455,22.7307586 C87.0114545,22.7320345 87.0114545,22.7320345 87.0050909,22.7333103 L87.0050909,22.6950345 C86.1574545,19.4645517 85.0858182,17.4856897 83.9823636,16.3055172 C83.7672727,16.1919655 83.5458182,16.0847931 83.3001818,16.0146207 C83.2734545,16.4943448 83.8169091,17.2164828 83.8690909,17.9233103 C82.3354545,17.2075517 80.8705455,16.0975517 78.7349091,16.0171724 C78.236,16.0005862 77.6938182,16.0056897 77.1376364,16.0158966 C71.9767273,17.8697241 66.2990909,15.7747586 66.2990909,15.7747586 C63.4647273,15.5132069 61.6752727,16.6538276 60.5527273,18.0878966 C59.1069091,19.9302414 58.7632727,22.2548621 58.72,22.6873793 C58.7187273,22.7039655 58.7174545,22.7218276 58.7174545,22.7409655 L58.7161818,22.7409655 C58.4845455,22.5559655 58.2503636,22.4704828 58.0263636,22.5074828 C57.9309091,22.5227931 57.838,22.5661724 57.7501818,22.6261379 C57.5452727,22.7715862 57.3887273,23.0433448 57.2729091,23.3916552 C57.2105455,24.2987931 57.1672727,25.2161379 57.1621818,26.1564483 C57.1723636,26.2470345 57.1838182,26.3312414 57.2003636,26.4205517 C57.4409091,27.7742414 57.9474545,28.8982759 58.5049091,29.4596552 L58.5049091,29.4596552 Z" id="Shape"></path>
                    <path d="M57.0056364,31.043 C58.4476364,34.9356552 60.7334545,38.7185862 63.5589091,41.4795517 C65.1549091,43.0475862 66.9278182,44.2877241 68.8152727,45.0404828 C70.1147273,45.5533793 71.4701818,45.843 72.8663636,45.843 C74.2574545,45.843 75.6129091,45.5572069 76.9110909,45.0404828 C78.866,44.260931 80.6987273,42.9621034 82.338,41.3175172 C85.0947273,38.5603793 87.3270909,34.8348621 88.7372727,31.0111034 C89.828,30.6895862 90.9696364,28.646931 91.4341818,26.0352414 C91.9356364,23.2015517 91.4621818,20.7314828 90.3714545,20.321931 C90.4109091,19.6291379 90.4363636,18.9286897 90.4325455,18.2142069 C90.4083636,7.94606897 84.4023636,1.16486207 74.9332727,0.530758621 C66.6783636,-0.0267931034 60.4585455,3.26237931 57.6254545,8.72562069 C56.6709091,10.5641379 56.13,13.6772414 55.9187273,16.1753793 C55.6005455,17.4780345 55.4147273,18.8304483 55.4147273,20.230069 L55.4478182,20.230069 C55.4478182,20.2428276 55.4465455,20.2530345 55.444,20.2632414 C55.4223636,20.2645172 55.4058182,20.2657931 55.3829091,20.2708966 C54.1789091,20.4788621 53.6265455,23.0624828 54.156,26.039069 C54.6409091,28.7694138 55.8665455,30.8822414 57.0056364,31.043 L57.0056364,31.043 Z M57.2754545,23.3916552 C57.3912727,23.0433448 57.5478182,22.7715862 57.7527273,22.6261379 C57.8392727,22.5661724 57.9334545,22.5227931 58.0289091,22.5074828 C58.2541818,22.4692069 58.4870909,22.5559655 58.7187273,22.7409655 L58.72,22.7409655 C58.72,22.7231034 58.7212727,22.7039655 58.7225455,22.6873793 C58.7670909,22.2548621 59.1107273,19.9302414 60.5552727,18.0878966 C61.6778182,16.6551034 63.4672727,15.5132069 66.3016364,15.7747586 C66.3016364,15.7747586 71.978,17.871 77.1401818,16.0158966 C77.6963636,16.0056897 78.2385455,16.0018621 78.7374545,16.0171724 C80.8730909,16.0975517 82.338,17.2088276 83.8716364,17.9233103 C83.8194545,17.2164828 83.276,16.4956207 83.3027273,16.0146207 C83.5483636,16.0847931 83.7698182,16.1919655 83.9849091,16.3055172 C85.0883636,17.4856897 86.16,19.4645517 87.0076364,22.6950345 L87.0076364,22.7333103 C87.014,22.7320345 87.014,22.7320345 87.0190909,22.7307586 L87.0190909,22.7333103 L87.0330909,22.7192759 C87.1425455,22.6312414 87.2570909,22.5661724 87.3690909,22.5304483 C87.4301818,22.5087586 87.4887273,22.5176897 87.5485455,22.5113103 C87.5981818,22.5087586 87.6554545,22.4896207 87.7012727,22.4985517 L87.7050909,22.4985517 C87.7585455,22.5074828 87.8158182,22.5291724 87.8667273,22.5483103 C88.3923636,22.7983793 88.6952727,23.7897241 88.6698182,25.0655862 C88.6634545,25.4878966 88.6189091,25.9446552 88.5336364,26.4167241 C88.5132727,26.5417586 88.4814545,26.6502069 88.4509091,26.7701379 C88.1721818,28.0498276 87.6618182,29.0973103 87.1183636,29.563 C86.9961818,29.6688966 86.8650909,29.7441724 86.7403636,29.7837241 C86.6245455,29.8232759 86.5087273,29.8385862 86.3954545,29.8194483 C86.2694545,29.8003103 86.1485455,29.7339655 86.0416364,29.6318966 C84.732,33.7146552 82.2374545,37.7795517 79.0887273,40.2521724 C78.6216364,40.6145172 78.1418182,40.9462414 77.6530909,41.2358621 C76.1576364,42.1162069 74.5489091,42.6354828 72.8714545,42.6354828 C70.6887273,42.6354828 68.6192727,41.7666207 66.7725455,40.3516897 C63.5678182,37.8905517 61.0223636,33.772069 59.6974545,29.6331724 C59.5892727,29.7326897 59.4683636,29.7990345 59.3410909,29.8207241 C59.07,29.8692069 58.7823636,29.7314138 58.5074545,29.4596552 C57.95,28.8995517 57.4434545,27.7742414 57.2041818,26.4205517 C57.1876364,26.3312414 57.1761818,26.2470345 57.166,26.1564483 C57.1685455,25.2161379 57.2118182,24.2987931 57.2754545,23.3916552 L57.2754545,23.3916552 Z" id="Shape" fill="#FFFFFF"></path>
                    <path d="M102.454727,52.0015862 C99.4409091,48.0987241 96.2705455,47.4697241 94.9189091,47.2107241 C94.7534545,47.1801034 94.616,47.1533103 94.5027273,47.1277931 C92.9958182,46.7756552 91.2674545,46.6723103 89.7414545,46.583 C88.5145455,46.5102759 87.3436364,46.4477586 86.3903636,46.2551034 C85.2818182,49.1972414 79.8332727,51.3343103 73.1221818,51.3343103 C66.4085455,51.3343103 60.9638182,49.1959655 59.8565455,46.2551034 C58.8981818,46.4464828 57.726,46.5141034 56.5003636,46.5868276 C54.9743636,46.6710345 53.246,46.7743793 51.7416364,47.1277931 C51.6283636,47.1533103 51.4883636,47.1801034 51.3229091,47.2107241 C50.0489091,47.4569655 47.1521818,48.0157931 44.2923636,51.3585517 C42.5690909,53.3756897 40.8598182,56.4007586 39.5298182,60.9874828 C39.1989091,62.1306552 39.1963636,63.3363448 39.4661818,64.4603793 C39.5909091,64.9707241 39.7538182,65.4772414 39.9981818,65.942931 C42.9445455,71.5375862 59.0203636,73.5317586 73.0789091,73.5317586 L73.1578182,73.5317586 C87.2189091,73.5317586 103.285818,71.5375862 106.239818,65.942931 C106.527455,65.4057931 106.698,64.8176207 106.820182,64.2128621 C107.026364,63.1628276 107.008545,62.0566552 106.705636,60.9951379 C105.511818,56.8536897 104.004909,54.0059655 102.454727,52.0015862 L102.454727,52.0015862 Z" id="Shape" fill="#FFFFFF"></path>
                    <path d="M142.981758,61.3624825 C142.946292,61.0812993 142.893974,60.8065824 142.816968,60.5355884 C141.946769,57.5385874 140.795976,55.640454 139.654,54.4226468 C137.774481,52.420074 135.91397,52.2611615 135.346117,52.1300733 C135.238738,52.1065597 135.131752,52.0824583 135.022413,52.0626677 C134.675392,51.7405317 134.3995,51.2925981 134.186506,50.7537454 C133.651768,49.4075932 133.494619,47.4922166 133.508923,45.59134 C133.540078,42.1667838 134.140458,38.7745588 134.140458,38.7745588 C134.140458,38.7745588 134.140458,38.7745588 134.140458,38.773775 C134.140458,38.2995845 134.129094,37.8445969 134.112634,37.3999944 C134.106168,37.2589129 134.095979,37.1246896 134.089512,36.9873311 C134.072661,36.6863574 134.055418,36.3904782 134.029357,36.1034167 C134.017012,35.9523419 134.001924,35.805774 133.987032,35.6572466 C133.960971,35.3927189 133.929228,35.1336776 133.895721,34.8812986 C133.876715,34.7394334 133.858491,34.5983519 133.837133,34.4607975 C133.798728,34.2023441 133.755424,33.9499651 133.709376,33.7038564 C133.687626,33.5907953 133.668032,33.4740112 133.64589,33.3619298 C133.576525,33.0270573 133.502457,32.6998267 133.422903,32.3863124 C133.418788,32.3745556 133.416436,32.3631907 133.412713,32.3496704 C133.326693,32.0210682 133.235382,31.7102971 133.137409,31.4089315 C133.106449,31.318992 133.076077,31.2341472 133.045706,31.147147 C132.976341,30.9394438 132.901097,30.7356594 132.824678,30.539713 C132.787644,30.4417398 132.748063,30.3443544 132.707894,30.2510839 C132.635786,30.0729685 132.556819,29.9011235 132.479224,29.734569 C132.437488,29.6422782 132.395555,29.5513591 132.352447,29.4627913 C132.266622,29.2948651 132.18119,29.1312499 132.094386,28.9744927 C132.052649,28.9006209 132.012676,28.8249855 131.971527,28.7540529 C131.855135,28.5518362 131.730121,28.3554978 131.608634,28.1691528 C131.597073,28.1507338 131.586296,28.1305513 131.571796,28.1113485 C131.432674,27.9063886 131.291005,27.7116178 131.147572,27.5284078 C131.10564,27.4741307 131.06214,27.4237724 131.018248,27.3730223 C130.9142,27.2450693 130.81074,27.1204473 130.703949,27.0020957 C130.647909,26.9427239 130.594415,26.887271 130.539159,26.8273114 C130.441577,26.7222841 130.34184,26.6227433 130.240536,26.525162 C130.184299,26.470101 130.129434,26.4173914 130.073002,26.3658575 C129.967583,26.2698438 129.862751,26.1793165 129.755569,26.0905527 C129.703447,26.0472486 129.651717,26.0025728 129.600379,25.9624038 C129.465568,25.8560048 129.329581,25.7541127 129.192223,25.6582949 C129.170668,25.6412475 129.146371,25.6230245 129.125797,25.6087204 C128.967864,25.4978147 128.805228,25.3961185 128.644356,25.2995169 C128.597721,25.2722803 128.551478,25.2468073 128.505626,25.2215302 C128.390998,25.1543206 128.275389,25.0910299 128.164092,25.0340095 C128.10374,25.0030499 128.04574,24.9744417 127.987152,24.9454417 C127.883104,24.8956713 127.782976,24.8474684 127.680692,24.8024007 C127.619752,24.775752 127.56234,24.7506709 127.502576,24.7261776 C127.398529,24.6820896 127.297224,24.6427044 127.192197,24.6042989 C127.139292,24.5845083 127.083251,24.5629542 127.033089,24.5435555 C126.912973,24.5002513 126.790311,24.461258 126.673723,24.4250079 C126.641196,24.4157984 126.607101,24.4028659 126.575554,24.3940483 C126.426046,24.3495685 126.281634,24.310967 126.138789,24.2762845 C126.089998,24.2643318 126.046498,24.2559061 126.00143,24.2459128 C125.903261,24.2237709 125.806464,24.201237 125.712605,24.1818383 C125.65774,24.1714531 125.602875,24.1616558 125.551537,24.1522504 C125.468064,24.1367706 125.385179,24.1236422 125.307192,24.1109057 C125.252327,24.10248 125.199618,24.095034 125.149847,24.0887637 C125.07284,24.0783786 124.994854,24.0685813 124.919806,24.0609393 C124.869448,24.0560407 124.822225,24.0491826 124.775981,24.0446758 C124.697211,24.0372298 124.620792,24.0299798 124.545744,24.025669 C124.506359,24.0235136 124.467758,24.0192028 124.433075,24.0160676 C124.327852,24.0096014 124.231642,24.0078379 124.137,24.0031351 C124.093696,24.0023514 124.055878,24.0023514 124.013358,24.0023514 C123.966331,24.0023514 123.91656,24.0015676 123.870513,24.0015676 C123.639688,24.0015676 123.454322,24.0103852 123.324018,24.0217501 C123.305403,24.0217501 123.293842,24.0227298 123.279342,24.0250811 C123.231727,24.0278244 123.194302,24.0315474 123.166869,24.0346825 C123.156876,24.0354663 123.144727,24.0368379 123.137673,24.0376217 C123.111612,24.0395812 123.096328,24.0419325 123.096328,24.0419325 C122.961125,24.033115 122.827686,24.0278244 122.695422,24.0233176 C122.562962,24.0264528 122.429718,24.033115 122.294515,24.0405609 C122.294515,24.0405609 122.27786,24.0386015 122.253367,24.0358582 C122.244745,24.0350744 122.232204,24.0340947 122.223779,24.033115 C122.19811,24.0301758 122.157549,24.0264528 122.112481,24.0233176 C122.100137,24.0221419 122.085049,24.0213582 122.067609,24.0201825 C121.935346,24.0088176 121.752528,24 121.520527,24 C121.474675,24 121.422946,24 121.372979,24.0011757 C121.333006,24.0011757 121.297736,24.0011757 121.256979,24.0019595 C121.162729,24.0039189 121.060641,24.0088176 120.957181,24.014696 C120.926417,24.0168514 120.890951,24.0197906 120.859208,24.0231217 C120.780437,24.0276285 120.699119,24.0338987 120.614079,24.0433042 C120.569207,24.0466353 120.524531,24.0521218 120.481031,24.058588 C120.400497,24.0670137 120.320747,24.076811 120.236686,24.0883719 C120.188483,24.095034 120.14028,24.10248 120.091489,24.1093381 C120.004097,24.1232503 119.917293,24.1369666 119.826962,24.1542099 C119.779151,24.1630275 119.731536,24.1706694 119.682353,24.1800748 C119.57811,24.201237 119.474062,24.2243587 119.365116,24.2480682 C119.328278,24.2566899 119.293204,24.2655074 119.25421,24.2727575 C119.107054,24.3076359 118.957351,24.3470212 118.806864,24.3928726 C118.782959,24.3993389 118.758662,24.4093321 118.734168,24.4154065 C118.608371,24.4545958 118.48081,24.4965283 118.350897,24.5419879 C118.301714,24.5596231 118.251356,24.5788258 118.20139,24.5970489 C118.093815,24.6381976 117.986633,24.680522 117.878078,24.7255897 C117.823213,24.7477317 117.767368,24.772225 117.712503,24.7971102 C117.604929,24.8427657 117.497746,24.8950834 117.389388,24.9474011 C117.335307,24.9730701 117.28005,24.999131 117.225968,25.0289148 C117.107813,25.090442 116.98515,25.1576517 116.864643,25.2276045 C116.825454,25.2519019 116.783325,25.2726722 116.74394,25.2977534 C116.581892,25.3945509 116.419061,25.4980107 116.255446,25.610288 C116.240162,25.6204772 116.225858,25.6324299 116.21077,25.6428151 C116.066749,25.7445113 115.923316,25.8507143 115.780275,25.9649511 C115.732465,26.0029647 115.684458,26.0445053 115.635275,26.0829108 C115.524957,26.1748097 115.416207,26.2694519 115.306869,26.3687967 C115.2522,26.418959 115.197923,26.4706889 115.145801,26.5210471 C115.040382,26.620392 114.939077,26.7248314 114.836597,26.832602 C114.784867,26.8878589 114.73255,26.9425279 114.681212,26.9985686 C114.571678,27.1204473 114.463319,27.2482044 114.356724,27.3789007 C114.317339,27.4280833 114.277954,27.4741307 114.237785,27.5250767 C114.091413,27.7100502 113.949156,27.9044291 113.809446,28.1121323 C113.799257,28.1268283 113.790243,28.1442676 113.781034,28.1581797 C113.65406,28.3480519 113.531986,28.5473294 113.40756,28.7552286 C113.368371,28.8240058 113.331533,28.8982695 113.291755,28.96979 C113.203188,29.130662 113.11462,29.2950611 113.030363,29.4663183 C112.986863,29.5535145 112.946106,29.6418863 112.904369,29.7326095 C112.826187,29.9022992 112.748984,30.0768875 112.672369,30.2561785 C112.633963,30.3510165 112.594382,30.4435033 112.557348,30.5406927 C112.480341,30.7393824 112.406077,30.9451262 112.334557,31.1561605 C112.306929,31.242181 112.273618,31.322911 112.247753,31.410695 C112.1488,31.7130404 112.055137,32.0261628 111.969705,32.3541772 C111.96657,32.3669137 111.963239,32.3812178 111.960299,32.3935624 C111.880549,32.7059011 111.804914,33.0309762 111.738684,33.3670244 C111.716738,33.4779301 111.697143,33.5929507 111.675393,33.7042483 C111.63013,33.950357 111.586433,34.2044996 111.546656,34.4641286 C111.52569,34.6003114 111.508055,34.7417847 111.488852,34.8830621 C111.455149,35.1352452 111.423406,35.3936986 111.398913,35.6601858 C111.382649,35.8087132 111.368933,35.955673 111.355413,36.1077275 C111.331899,36.3934174 111.311521,36.6889047 111.295061,36.9883109 C111.287615,37.1270409 111.277818,37.2612643 111.272919,37.4033255 C111.253912,37.847928 111.243331,38.3038954 111.243331,38.7776939 C111.243331,38.7776939 111.243331,38.7776939 111.243331,38.7784777 C111.243331,38.7784777 111.843515,42.1720744 111.874475,45.5948671 C111.892894,47.4971153 111.733197,49.4103365 111.197872,50.7592319 C110.983114,51.2957333 110.709769,51.7460182 110.361376,52.0661947 C110.250666,52.0869651 110.145443,52.1104786 110.039632,52.1355598 C109.496665,52.2603777 107.785072,52.4122362 106,54.1557677 C106.237291,54.3703291 106.47517,54.5982148 106.713637,54.8521614 C108.507919,56.7653826 109.922848,59.475714 110.922371,62.9173176 C111.035628,63.3160686 111.117925,63.7275562 111.17377,64.1743141 L111.177885,64.203902 L111.180432,64.2338818 C111.282129,65.345682 111.118905,66.4449416 110.713296,67.457397 C114.386116,68.145365 118.769047,68.4095008 122.696989,68.408913 C130.714335,68.4098927 140.636475,67.3129844 142.52148,63.7461711 C142.898677,63.0237165 143.057002,62.187613 142.981758,61.3624825 L142.981758,61.3624825 Z M130.194881,51.5244028 C130.16059,51.8226333 130.026367,52.1106746 129.813961,52.3844118 C128.81385,53.6637462 126.00241,55.5109334 122.689739,55.5109334 C119.376481,55.5109334 116.565433,53.6660975 115.563363,52.3844118 C115.351741,52.1108705 115.218497,51.823809 115.182835,51.5244028 L115.182835,51.5228352 C115.232801,51.5055919 115.34645,51.4660107 115.498309,51.395666 C115.559836,51.3696051 115.629397,51.3349226 115.69837,51.2974968 C116.304236,50.9804554 117.194617,50.3167848 117.194617,49.1503155 L117.195401,49.1503155 C118.150836,50.0957572 119.215413,50.8474078 120.350923,51.2974968 C121.113742,51.6010178 121.910656,51.7677683 122.729125,51.7677683 C123.548377,51.7677683 124.344703,51.6008219 125.107523,51.2974968 C126.233039,50.8519145 127.285076,50.1116288 128.236592,49.1763764 C128.244038,49.1795115 128.249524,49.1820588 128.25697,49.1865656 C128.27872,50.6886911 129.78888,51.3474631 130.19684,51.4999095 C130.19782,51.5057879 130.19684,51.5144095 130.194881,51.5244028 L130.194881,51.5244028 Z M131.940176,40.3842589 C131.789885,41.2315314 131.459323,41.9300805 131.109559,42.2287029 C130.967693,42.3466627 130.823281,42.4032912 130.68749,42.3791898 C130.610287,42.3654735 130.537199,42.3278518 130.474496,42.2682841 C129.69796,44.6817566 128.215429,47.0864115 126.344141,48.5324963 C125.251347,49.3738904 124.026486,49.8896215 122.731868,49.8896215 C121.429608,49.8896215 120.198084,49.3676201 119.100392,48.515253 C117.238901,47.0685804 115.763228,44.6721552 114.991395,42.2682841 C114.926733,42.3264802 114.858347,42.3652776 114.779185,42.3791898 C114.62184,42.4070142 114.450583,42.3268721 114.290299,42.1656081 C113.964636,41.8377897 113.665621,41.1768623 113.52356,40.3842589 C113.336235,39.3406481 113.484567,38.4195038 113.853142,38.155368 C113.903108,38.1200976 113.957582,38.0958002 114.01519,38.0863948 C114.146082,38.063665 114.284028,38.1130435 114.419231,38.2225776 C114.419231,38.2225776 114.419231,38.2116046 114.421191,38.1914221 C114.467042,37.7389817 115.070949,32.6565225 118.875642,33.0090302 L130.510746,38.9977418 L131.455796,38.0879624 C131.48656,38.0932529 131.520066,38.1044219 131.549067,38.1171584 C131.960554,38.3123211 132.139649,39.2810803 131.940176,40.3842589 L131.940176,40.3842589 Z" id="Shape" fill="#FFFFFF" transform="translate(124.500000, 46.204457) rotate(-358.000000) translate(-124.500000, -46.204457) "></path>
                    <path d="M27.658,47.483 C27.598,50.162 23.63,52.324 18.739,52.324 C13.849,52.324 9.879,50.162 9.821,47.483 C6.286,47.806 3.113,49.381 0.75,51.761 C0.917,51.931 1.084,52.101 1.246,52.277 C4.574,55.903 6.406,60.612 6.407,65.537 C6.407,67.117 6.217,68.516 5.841,69.745 C6.793,69.782 7.792,69.791 8.828,69.791 C9.591,69.791 10.374,69.785 11.174,69.785 L26.308,69.785 C27.104,69.785 27.888,69.791 28.652,69.791 C35.653,69.791 41.001,69.432 41.001,62.114 C41,54.454 35.139,48.166 27.658,47.483 L27.658,47.483 Z" id="Shape" fill="#FFFFFF" transform="translate(20.875500, 58.637000) scale(-1, 1) translate(-20.875500, -58.637000) "></path>
                    <path d="M22.742,49.402 C29.511,49.402 34.993,39.226 34.993,32.462 C34.993,25.695 29.511,20.21 22.742,20.21 C15.975,20.21 10.49,25.695 10.49,32.462 C10.49,39.228 15.977,49.402 22.742,49.402 L22.742,49.402 Z M15.423,26.956 C17.253,32.527 29.895,30.019 29.895,30.019 C33.536,29.742 33.271,34.747 33.268,34.802 C32.306,40.512 27.959,47.483 22.743,47.483 C17.33,47.483 12.852,39.97 12.124,34.156 C12.695,29.221 15.423,26.956 15.423,26.956 L15.423,26.956 Z" id="Shape" fill="#FFFFFF" transform="translate(22.741500, 34.806000) scale(-1, 1) translate(-22.741500, -34.806000) "></path>
                </g>
                <g id="Group" transform="translate(191.000000, 115.000000)">
                    <path d="M58.5049091,29.4596552 C58.7798182,29.7314138 59.0674545,29.8692069 59.3385455,29.8207241 C59.4658182,29.7990345 59.5867273,29.7326897 59.6949091,29.6331724 C61.0210909,33.772069 63.5652727,37.8905517 66.77,40.3516897 C68.6167273,41.7666207 70.6874545,42.6354828 72.8689091,42.6354828 C74.5450909,42.6354828 76.1550909,42.1174828 77.6505455,41.2358621 C78.1405455,40.9462414 78.6203636,40.6157931 79.0861818,40.2521724 C82.2349091,37.7795517 84.7294545,33.7146552 86.0390909,29.6318966 C86.1447273,29.7339655 86.2669091,29.8003103 86.3929091,29.8194483 C86.5074545,29.8398621 86.622,29.8232759 86.7378182,29.7837241 C86.8625455,29.7428966 86.9936364,29.6688966 87.1158182,29.563 C87.6605455,29.0973103 88.1709091,28.0498276 88.4483636,26.7701379 C88.4789091,26.6502069 88.5107273,26.5417586 88.5310909,26.4167241 C88.6163636,25.9446552 88.6609091,25.4878966 88.6672727,25.0655862 C88.6927273,23.7897241 88.3885455,22.7983793 87.8641818,22.5483103 C87.8132727,22.5291724 87.7572727,22.5074828 87.7025455,22.4985517 L87.6987273,22.4985517 C87.6529091,22.4908966 87.5956364,22.5087586 87.546,22.5113103 C87.4861818,22.5164138 87.4276364,22.5087586 87.3665455,22.5304483 C87.2558182,22.5674483 87.1412727,22.6325172 87.0305455,22.7192759 L87.0165455,22.7333103 L87.0165455,22.7307586 C87.0114545,22.7320345 87.0114545,22.7320345 87.0050909,22.7333103 L87.0050909,22.6950345 C86.1574545,19.4645517 85.0858182,17.4856897 83.9823636,16.3055172 C83.7672727,16.1919655 83.5458182,16.0847931 83.3001818,16.0146207 C83.2734545,16.4943448 83.8169091,17.2164828 83.8690909,17.9233103 C82.3354545,17.2075517 80.8705455,16.0975517 78.7349091,16.0171724 C78.236,16.0005862 77.6938182,16.0056897 77.1376364,16.0158966 C71.9767273,17.8697241 66.2990909,15.7747586 66.2990909,15.7747586 C63.4647273,15.5132069 61.6752727,16.6538276 60.5527273,18.0878966 C59.1069091,19.9302414 58.7632727,22.2548621 58.72,22.6873793 C58.7187273,22.7039655 58.7174545,22.7218276 58.7174545,22.7409655 L58.7161818,22.7409655 C58.4845455,22.5559655 58.2503636,22.4704828 58.0263636,22.5074828 C57.9309091,22.5227931 57.838,22.5661724 57.7501818,22.6261379 C57.5452727,22.7715862 57.3887273,23.0433448 57.2729091,23.3916552 C57.2105455,24.2987931 57.1672727,25.2161379 57.1621818,26.1564483 C57.1723636,26.2470345 57.1838182,26.3312414 57.2003636,26.4205517 C57.4409091,27.7742414 57.9474545,28.8982759 58.5049091,29.4596552 L58.5049091,29.4596552 Z" id="Shape"></path>
                    <path d="M57.0056364,31.043 C58.4476364,34.9356552 60.7334545,38.7185862 63.5589091,41.4795517 C65.1549091,43.0475862 66.9278182,44.2877241 68.8152727,45.0404828 C70.1147273,45.5533793 71.4701818,45.843 72.8663636,45.843 C74.2574545,45.843 75.6129091,45.5572069 76.9110909,45.0404828 C78.866,44.260931 80.6987273,42.9621034 82.338,41.3175172 C85.0947273,38.5603793 87.3270909,34.8348621 88.7372727,31.0111034 C89.828,30.6895862 90.9696364,28.646931 91.4341818,26.0352414 C91.9356364,23.2015517 91.4621818,20.7314828 90.3714545,20.321931 C90.4109091,19.6291379 90.4363636,18.9286897 90.4325455,18.2142069 C90.4083636,7.94606897 84.4023636,1.16486207 74.9332727,0.530758621 C66.6783636,-0.0267931034 60.4585455,3.26237931 57.6254545,8.72562069 C56.6709091,10.5641379 56.13,13.6772414 55.9187273,16.1753793 C55.6005455,17.4780345 55.4147273,18.8304483 55.4147273,20.230069 L55.4478182,20.230069 C55.4478182,20.2428276 55.4465455,20.2530345 55.444,20.2632414 C55.4223636,20.2645172 55.4058182,20.2657931 55.3829091,20.2708966 C54.1789091,20.4788621 53.6265455,23.0624828 54.156,26.039069 C54.6409091,28.7694138 55.8665455,30.8822414 57.0056364,31.043 L57.0056364,31.043 Z M57.2754545,23.3916552 C57.3912727,23.0433448 57.5478182,22.7715862 57.7527273,22.6261379 C57.8392727,22.5661724 57.9334545,22.5227931 58.0289091,22.5074828 C58.2541818,22.4692069 58.4870909,22.5559655 58.7187273,22.7409655 L58.72,22.7409655 C58.72,22.7231034 58.7212727,22.7039655 58.7225455,22.6873793 C58.7670909,22.2548621 59.1107273,19.9302414 60.5552727,18.0878966 C61.6778182,16.6551034 63.4672727,15.5132069 66.3016364,15.7747586 C66.3016364,15.7747586 71.978,17.871 77.1401818,16.0158966 C77.6963636,16.0056897 78.2385455,16.0018621 78.7374545,16.0171724 C80.8730909,16.0975517 82.338,17.2088276 83.8716364,17.9233103 C83.8194545,17.2164828 83.276,16.4956207 83.3027273,16.0146207 C83.5483636,16.0847931 83.7698182,16.1919655 83.9849091,16.3055172 C85.0883636,17.4856897 86.16,19.4645517 87.0076364,22.6950345 L87.0076364,22.7333103 C87.014,22.7320345 87.014,22.7320345 87.0190909,22.7307586 L87.0190909,22.7333103 L87.0330909,22.7192759 C87.1425455,22.6312414 87.2570909,22.5661724 87.3690909,22.5304483 C87.4301818,22.5087586 87.4887273,22.5176897 87.5485455,22.5113103 C87.5981818,22.5087586 87.6554545,22.4896207 87.7012727,22.4985517 L87.7050909,22.4985517 C87.7585455,22.5074828 87.8158182,22.5291724 87.8667273,22.5483103 C88.3923636,22.7983793 88.6952727,23.7897241 88.6698182,25.0655862 C88.6634545,25.4878966 88.6189091,25.9446552 88.5336364,26.4167241 C88.5132727,26.5417586 88.4814545,26.6502069 88.4509091,26.7701379 C88.1721818,28.0498276 87.6618182,29.0973103 87.1183636,29.563 C86.9961818,29.6688966 86.8650909,29.7441724 86.7403636,29.7837241 C86.6245455,29.8232759 86.5087273,29.8385862 86.3954545,29.8194483 C86.2694545,29.8003103 86.1485455,29.7339655 86.0416364,29.6318966 C84.732,33.7146552 82.2374545,37.7795517 79.0887273,40.2521724 C78.6216364,40.6145172 78.1418182,40.9462414 77.6530909,41.2358621 C76.1576364,42.1162069 74.5489091,42.6354828 72.8714545,42.6354828 C70.6887273,42.6354828 68.6192727,41.7666207 66.7725455,40.3516897 C63.5678182,37.8905517 61.0223636,33.772069 59.6974545,29.6331724 C59.5892727,29.7326897 59.4683636,29.7990345 59.3410909,29.8207241 C59.07,29.8692069 58.7823636,29.7314138 58.5074545,29.4596552 C57.95,28.8995517 57.4434545,27.7742414 57.2041818,26.4205517 C57.1876364,26.3312414 57.1761818,26.2470345 57.166,26.1564483 C57.1685455,25.2161379 57.2118182,24.2987931 57.2754545,23.3916552 L57.2754545,23.3916552 Z" id="Shape" fill="#FFFFFF"></path>
                    <path d="M102.454727,52.0015862 C99.4409091,48.0987241 96.2705455,47.4697241 94.9189091,47.2107241 C94.7534545,47.1801034 94.616,47.1533103 94.5027273,47.1277931 C92.9958182,46.7756552 91.2674545,46.6723103 89.7414545,46.583 C88.5145455,46.5102759 87.3436364,46.4477586 86.3903636,46.2551034 C85.2818182,49.1972414 79.8332727,51.3343103 73.1221818,51.3343103 C66.4085455,51.3343103 60.9638182,49.1959655 59.8565455,46.2551034 C58.8981818,46.4464828 57.726,46.5141034 56.5003636,46.5868276 C54.9743636,46.6710345 53.246,46.7743793 51.7416364,47.1277931 C51.6283636,47.1533103 51.4883636,47.1801034 51.3229091,47.2107241 C50.0489091,47.4569655 47.1521818,48.0157931 44.2923636,51.3585517 C42.5690909,53.3756897 40.8598182,56.4007586 39.5298182,60.9874828 C39.1989091,62.1306552 39.1963636,63.3363448 39.4661818,64.4603793 C39.5909091,64.9707241 39.7538182,65.4772414 39.9981818,65.942931 C42.9445455,71.5375862 59.0203636,73.5317586 73.0789091,73.5317586 L73.1578182,73.5317586 C87.2189091,73.5317586 103.285818,71.5375862 106.239818,65.942931 C106.527455,65.4057931 106.698,64.8176207 106.820182,64.2128621 C107.026364,63.1628276 107.008545,62.0566552 106.705636,60.9951379 C105.511818,56.8536897 104.004909,54.0059655 102.454727,52.0015862 L102.454727,52.0015862 Z" id="Shape" fill="#FFFFFF"></path>
                    <path d="M142.981758,61.3624825 C142.946292,61.0812993 142.893974,60.8065824 142.816968,60.5355884 C141.946769,57.5385874 140.795976,55.640454 139.654,54.4226468 C137.774481,52.420074 135.91397,52.2611615 135.346117,52.1300733 C135.238738,52.1065597 135.131752,52.0824583 135.022413,52.0626677 C134.675392,51.7405317 134.3995,51.2925981 134.186506,50.7537454 C133.651768,49.4075932 133.494619,47.4922166 133.508923,45.59134 C133.540078,42.1667838 134.140458,38.7745588 134.140458,38.7745588 C134.140458,38.7745588 134.140458,38.7745588 134.140458,38.773775 C134.140458,38.2995845 134.129094,37.8445969 134.112634,37.3999944 C134.106168,37.2589129 134.095979,37.1246896 134.089512,36.9873311 C134.072661,36.6863574 134.055418,36.3904782 134.029357,36.1034167 C134.017012,35.9523419 134.001924,35.805774 133.987032,35.6572466 C133.960971,35.3927189 133.929228,35.1336776 133.895721,34.8812986 C133.876715,34.7394334 133.858491,34.5983519 133.837133,34.4607975 C133.798728,34.2023441 133.755424,33.9499651 133.709376,33.7038564 C133.687626,33.5907953 133.668032,33.4740112 133.64589,33.3619298 C133.576525,33.0270573 133.502457,32.6998267 133.422903,32.3863124 C133.418788,32.3745556 133.416436,32.3631907 133.412713,32.3496704 C133.326693,32.0210682 133.235382,31.7102971 133.137409,31.4089315 C133.106449,31.318992 133.076077,31.2341472 133.045706,31.147147 C132.976341,30.9394438 132.901097,30.7356594 132.824678,30.539713 C132.787644,30.4417398 132.748063,30.3443544 132.707894,30.2510839 C132.635786,30.0729685 132.556819,29.9011235 132.479224,29.734569 C132.437488,29.6422782 132.395555,29.5513591 132.352447,29.4627913 C132.266622,29.2948651 132.18119,29.1312499 132.094386,28.9744927 C132.052649,28.9006209 132.012676,28.8249855 131.971527,28.7540529 C131.855135,28.5518362 131.730121,28.3554978 131.608634,28.1691528 C131.597073,28.1507338 131.586296,28.1305513 131.571796,28.1113485 C131.432674,27.9063886 131.291005,27.7116178 131.147572,27.5284078 C131.10564,27.4741307 131.06214,27.4237724 131.018248,27.3730223 C130.9142,27.2450693 130.81074,27.1204473 130.703949,27.0020957 C130.647909,26.9427239 130.594415,26.887271 130.539159,26.8273114 C130.441577,26.7222841 130.34184,26.6227433 130.240536,26.525162 C130.184299,26.470101 130.129434,26.4173914 130.073002,26.3658575 C129.967583,26.2698438 129.862751,26.1793165 129.755569,26.0905527 C129.703447,26.0472486 129.651717,26.0025728 129.600379,25.9624038 C129.465568,25.8560048 129.329581,25.7541127 129.192223,25.6582949 C129.170668,25.6412475 129.146371,25.6230245 129.125797,25.6087204 C128.967864,25.4978147 128.805228,25.3961185 128.644356,25.2995169 C128.597721,25.2722803 128.551478,25.2468073 128.505626,25.2215302 C128.390998,25.1543206 128.275389,25.0910299 128.164092,25.0340095 C128.10374,25.0030499 128.04574,24.9744417 127.987152,24.9454417 C127.883104,24.8956713 127.782976,24.8474684 127.680692,24.8024007 C127.619752,24.775752 127.56234,24.7506709 127.502576,24.7261776 C127.398529,24.6820896 127.297224,24.6427044 127.192197,24.6042989 C127.139292,24.5845083 127.083251,24.5629542 127.033089,24.5435555 C126.912973,24.5002513 126.790311,24.461258 126.673723,24.4250079 C126.641196,24.4157984 126.607101,24.4028659 126.575554,24.3940483 C126.426046,24.3495685 126.281634,24.310967 126.138789,24.2762845 C126.089998,24.2643318 126.046498,24.2559061 126.00143,24.2459128 C125.903261,24.2237709 125.806464,24.201237 125.712605,24.1818383 C125.65774,24.1714531 125.602875,24.1616558 125.551537,24.1522504 C125.468064,24.1367706 125.385179,24.1236422 125.307192,24.1109057 C125.252327,24.10248 125.199618,24.095034 125.149847,24.0887637 C125.07284,24.0783786 124.994854,24.0685813 124.919806,24.0609393 C124.869448,24.0560407 124.822225,24.0491826 124.775981,24.0446758 C124.697211,24.0372298 124.620792,24.0299798 124.545744,24.025669 C124.506359,24.0235136 124.467758,24.0192028 124.433075,24.0160676 C124.327852,24.0096014 124.231642,24.0078379 124.137,24.0031351 C124.093696,24.0023514 124.055878,24.0023514 124.013358,24.0023514 C123.966331,24.0023514 123.91656,24.0015676 123.870513,24.0015676 C123.639688,24.0015676 123.454322,24.0103852 123.324018,24.0217501 C123.305403,24.0217501 123.293842,24.0227298 123.279342,24.0250811 C123.231727,24.0278244 123.194302,24.0315474 123.166869,24.0346825 C123.156876,24.0354663 123.144727,24.0368379 123.137673,24.0376217 C123.111612,24.0395812 123.096328,24.0419325 123.096328,24.0419325 C122.961125,24.033115 122.827686,24.0278244 122.695422,24.0233176 C122.562962,24.0264528 122.429718,24.033115 122.294515,24.0405609 C122.294515,24.0405609 122.27786,24.0386015 122.253367,24.0358582 C122.244745,24.0350744 122.232204,24.0340947 122.223779,24.033115 C122.19811,24.0301758 122.157549,24.0264528 122.112481,24.0233176 C122.100137,24.0221419 122.085049,24.0213582 122.067609,24.0201825 C121.935346,24.0088176 121.752528,24 121.520527,24 C121.474675,24 121.422946,24 121.372979,24.0011757 C121.333006,24.0011757 121.297736,24.0011757 121.256979,24.0019595 C121.162729,24.0039189 121.060641,24.0088176 120.957181,24.014696 C120.926417,24.0168514 120.890951,24.0197906 120.859208,24.0231217 C120.780437,24.0276285 120.699119,24.0338987 120.614079,24.0433042 C120.569207,24.0466353 120.524531,24.0521218 120.481031,24.058588 C120.400497,24.0670137 120.320747,24.076811 120.236686,24.0883719 C120.188483,24.095034 120.14028,24.10248 120.091489,24.1093381 C120.004097,24.1232503 119.917293,24.1369666 119.826962,24.1542099 C119.779151,24.1630275 119.731536,24.1706694 119.682353,24.1800748 C119.57811,24.201237 119.474062,24.2243587 119.365116,24.2480682 C119.328278,24.2566899 119.293204,24.2655074 119.25421,24.2727575 C119.107054,24.3076359 118.957351,24.3470212 118.806864,24.3928726 C118.782959,24.3993389 118.758662,24.4093321 118.734168,24.4154065 C118.608371,24.4545958 118.48081,24.4965283 118.350897,24.5419879 C118.301714,24.5596231 118.251356,24.5788258 118.20139,24.5970489 C118.093815,24.6381976 117.986633,24.680522 117.878078,24.7255897 C117.823213,24.7477317 117.767368,24.772225 117.712503,24.7971102 C117.604929,24.8427657 117.497746,24.8950834 117.389388,24.9474011 C117.335307,24.9730701 117.28005,24.999131 117.225968,25.0289148 C117.107813,25.090442 116.98515,25.1576517 116.864643,25.2276045 C116.825454,25.2519019 116.783325,25.2726722 116.74394,25.2977534 C116.581892,25.3945509 116.419061,25.4980107 116.255446,25.610288 C116.240162,25.6204772 116.225858,25.6324299 116.21077,25.6428151 C116.066749,25.7445113 115.923316,25.8507143 115.780275,25.9649511 C115.732465,26.0029647 115.684458,26.0445053 115.635275,26.0829108 C115.524957,26.1748097 115.416207,26.2694519 115.306869,26.3687967 C115.2522,26.418959 115.197923,26.4706889 115.145801,26.5210471 C115.040382,26.620392 114.939077,26.7248314 114.836597,26.832602 C114.784867,26.8878589 114.73255,26.9425279 114.681212,26.9985686 C114.571678,27.1204473 114.463319,27.2482044 114.356724,27.3789007 C114.317339,27.4280833 114.277954,27.4741307 114.237785,27.5250767 C114.091413,27.7100502 113.949156,27.9044291 113.809446,28.1121323 C113.799257,28.1268283 113.790243,28.1442676 113.781034,28.1581797 C113.65406,28.3480519 113.531986,28.5473294 113.40756,28.7552286 C113.368371,28.8240058 113.331533,28.8982695 113.291755,28.96979 C113.203188,29.130662 113.11462,29.2950611 113.030363,29.4663183 C112.986863,29.5535145 112.946106,29.6418863 112.904369,29.7326095 C112.826187,29.9022992 112.748984,30.0768875 112.672369,30.2561785 C112.633963,30.3510165 112.594382,30.4435033 112.557348,30.5406927 C112.480341,30.7393824 112.406077,30.9451262 112.334557,31.1561605 C112.306929,31.242181 112.273618,31.322911 112.247753,31.410695 C112.1488,31.7130404 112.055137,32.0261628 111.969705,32.3541772 C111.96657,32.3669137 111.963239,32.3812178 111.960299,32.3935624 C111.880549,32.7059011 111.804914,33.0309762 111.738684,33.3670244 C111.716738,33.4779301 111.697143,33.5929507 111.675393,33.7042483 C111.63013,33.950357 111.586433,34.2044996 111.546656,34.4641286 C111.52569,34.6003114 111.508055,34.7417847 111.488852,34.8830621 C111.455149,35.1352452 111.423406,35.3936986 111.398913,35.6601858 C111.382649,35.8087132 111.368933,35.955673 111.355413,36.1077275 C111.331899,36.3934174 111.311521,36.6889047 111.295061,36.9883109 C111.287615,37.1270409 111.277818,37.2612643 111.272919,37.4033255 C111.253912,37.847928 111.243331,38.3038954 111.243331,38.7776939 C111.243331,38.7776939 111.243331,38.7776939 111.243331,38.7784777 C111.243331,38.7784777 111.843515,42.1720744 111.874475,45.5948671 C111.892894,47.4971153 111.733197,49.4103365 111.197872,50.7592319 C110.983114,51.2957333 110.709769,51.7460182 110.361376,52.0661947 C110.250666,52.0869651 110.145443,52.1104786 110.039632,52.1355598 C109.496665,52.2603777 107.785072,52.4122362 106,54.1557677 C106.237291,54.3703291 106.47517,54.5982148 106.713637,54.8521614 C108.507919,56.7653826 109.922848,59.475714 110.922371,62.9173176 C111.035628,63.3160686 111.117925,63.7275562 111.17377,64.1743141 L111.177885,64.203902 L111.180432,64.2338818 C111.282129,65.345682 111.118905,66.4449416 110.713296,67.457397 C114.386116,68.145365 118.769047,68.4095008 122.696989,68.408913 C130.714335,68.4098927 140.636475,67.3129844 142.52148,63.7461711 C142.898677,63.0237165 143.057002,62.187613 142.981758,61.3624825 L142.981758,61.3624825 Z M130.194881,51.5244028 C130.16059,51.8226333 130.026367,52.1106746 129.813961,52.3844118 C128.81385,53.6637462 126.00241,55.5109334 122.689739,55.5109334 C119.376481,55.5109334 116.565433,53.6660975 115.563363,52.3844118 C115.351741,52.1108705 115.218497,51.823809 115.182835,51.5244028 L115.182835,51.5228352 C115.232801,51.5055919 115.34645,51.4660107 115.498309,51.395666 C115.559836,51.3696051 115.629397,51.3349226 115.69837,51.2974968 C116.304236,50.9804554 117.194617,50.3167848 117.194617,49.1503155 L117.195401,49.1503155 C118.150836,50.0957572 119.215413,50.8474078 120.350923,51.2974968 C121.113742,51.6010178 121.910656,51.7677683 122.729125,51.7677683 C123.548377,51.7677683 124.344703,51.6008219 125.107523,51.2974968 C126.233039,50.8519145 127.285076,50.1116288 128.236592,49.1763764 C128.244038,49.1795115 128.249524,49.1820588 128.25697,49.1865656 C128.27872,50.6886911 129.78888,51.3474631 130.19684,51.4999095 C130.19782,51.5057879 130.19684,51.5144095 130.194881,51.5244028 L130.194881,51.5244028 Z M131.940176,40.3842589 C131.789885,41.2315314 131.459323,41.9300805 131.109559,42.2287029 C130.967693,42.3466627 130.823281,42.4032912 130.68749,42.3791898 C130.610287,42.3654735 130.537199,42.3278518 130.474496,42.2682841 C129.69796,44.6817566 128.215429,47.0864115 126.344141,48.5324963 C125.251347,49.3738904 124.026486,49.8896215 122.731868,49.8896215 C121.429608,49.8896215 120.198084,49.3676201 119.100392,48.515253 C117.238901,47.0685804 115.763228,44.6721552 114.991395,42.2682841 C114.926733,42.3264802 114.858347,42.3652776 114.779185,42.3791898 C114.62184,42.4070142 114.450583,42.3268721 114.290299,42.1656081 C113.964636,41.8377897 113.665621,41.1768623 113.52356,40.3842589 C113.336235,39.3406481 113.484567,38.4195038 113.853142,38.155368 C113.903108,38.1200976 113.957582,38.0958002 114.01519,38.0863948 C114.146082,38.063665 114.284028,38.1130435 114.419231,38.2225776 C114.419231,38.2225776 114.419231,38.2116046 114.421191,38.1914221 C114.467042,37.7389817 115.070949,32.6565225 118.875642,33.0090302 L130.510746,38.9977418 L131.455796,38.0879624 C131.48656,38.0932529 131.520066,38.1044219 131.549067,38.1171584 C131.960554,38.3123211 132.139649,39.2810803 131.940176,40.3842589 L131.940176,40.3842589 Z" id="Shape" fill="#FFFFFF" transform="translate(124.500000, 46.204457) rotate(-358.000000) translate(-124.500000, -46.204457) "></path>
                    <path d="M27.658,47.483 C27.598,50.162 23.63,52.324 18.739,52.324 C13.849,52.324 9.879,50.162 9.821,47.483 C6.286,47.806 3.113,49.381 0.75,51.761 C0.917,51.931 1.084,52.101 1.246,52.277 C4.574,55.903 6.406,60.612 6.407,65.537 C6.407,67.117 6.217,68.516 5.841,69.745 C6.793,69.782 7.792,69.791 8.828,69.791 C9.591,69.791 10.374,69.785 11.174,69.785 L26.308,69.785 C27.104,69.785 27.888,69.791 28.652,69.791 C35.653,69.791 41.001,69.432 41.001,62.114 C41,54.454 35.139,48.166 27.658,47.483 L27.658,47.483 Z" id="Shape" fill="#FFFFFF" transform="translate(20.875500, 58.637000) scale(-1, 1) translate(-20.875500, -58.637000) "></path>
                    <path d="M22.742,49.402 C29.511,49.402 34.993,39.226 34.993,32.462 C34.993,25.695 29.511,20.21 22.742,20.21 C15.975,20.21 10.49,25.695 10.49,32.462 C10.49,39.228 15.977,49.402 22.742,49.402 L22.742,49.402 Z M15.423,26.956 C17.253,32.527 29.895,30.019 29.895,30.019 C33.536,29.742 33.271,34.747 33.268,34.802 C32.306,40.512 27.959,47.483 22.743,47.483 C17.33,47.483 12.852,39.97 12.124,34.156 C12.695,29.221 15.423,26.956 15.423,26.956 L15.423,26.956 Z" id="Shape" fill="#FFFFFF" transform="translate(22.741500, 34.806000) scale(-1, 1) translate(-22.741500, -34.806000) "></path>
                </g>
                <path d="M166.5,0.5 L166.5,191.015091" id="Line" stroke="#FFFFFF" stroke-linecap="square"></path>
                <path d="M2.5,98.5 L332.501526,98.5" id="Line" stroke="#FFFFFF" stroke-linecap="square"></path>
            </g>
        </g>
    </g>
</svg>