<?xml version="1.0" encoding="UTF-8" standalone="no"?>
<svg width="67px" height="92px" viewBox="0 0 67 92" version="1.1" xmlns="http://www.w3.org/2000/svg" xmlns:xlink="http://www.w3.org/1999/xlink">
    <!-- Generator: Sketch 3.6.1 (26313) - http://www.bohemiancoding.com/sketch -->
    <title>Group</title>
    <desc>Created with Sketch.</desc>
    <defs></defs>
    <g id="Page-1" stroke="none" stroke-width="1" fill="none" fill-rule="evenodd">
        <g id="Group" transform="translate(-1.000000, 0.000000)" fill="#FFFFFF">
            <path d="M33.7,57.7 C33.825,57.7 33.935,57.593 34,57.431 C34.064,57.595 34.174,57.702 34.3,57.702 C34.499,57.702 34.66,57.434 34.66,57.101 C34.66,56.772 34.498,56.503 34.3,56.503 C34.175,56.503 34.065,56.61 34.001,56.772 C33.936,56.607 33.826,56.501 33.7,56.501 C33.501,56.501 33.341,56.77 33.341,57.102 C33.341,57.432 33.501,57.7 33.7,57.7 L33.7,57.7 Z" id="Shape"></path>
            <path d="M34.372,60.296 L35.039,60.829 C35.052,60.809 35.06,60.787 35.072,60.766 L35.501,60.794 C35.501,60.794 38.984,60.089 43.347,60.721 L43.605,60.45 C43.605,60.45 37.141,59.893 35.355,59.987 C35.385,59.824 35.406,59.654 35.406,59.476 C37.591,59.908 46.253,60.305 46.253,60.305 L45.965,59.908 C40.206,59.982 35.815,58.47 35.815,58.47 L35.239,58.433 L35.267,58.608 C35.136,58.221 34.924,57.906 34.663,57.722 L34.212,58.778 L34.372,60.296 L34.372,60.296 Z" id="Shape"></path>
            <path d="M34.612,61.782 C34.612,61.782 34.556,61.504 34.203,61.416 C34.171,61.419 34.14,61.422 34.108,61.422 C34.076,61.422 34.044,61.416 34.012,61.413 L34.012,61.411 C34.029,61.407 34.045,61.401 34.062,61.398 C34.111,61.401 34.164,61.404 34.204,61.416 C34.405,61.394 34.593,61.301 34.758,61.159 L33.95,60.908 L33.203,61.141 C33.372,61.293 33.565,61.393 33.774,61.415 C33.421,61.503 33.366,61.781 33.366,61.781 L33.077,63.077 C32.536,65.359 33.598,65.588 33.966,65.598 L33.966,65.601 C33.973,65.601 33.981,65.598 33.99,65.598 C33.998,65.598 34.007,65.601 34.013,65.601 L34.013,65.6 C34.38,65.589 35.443,65.361 34.902,63.079 L34.612,61.782 L34.612,61.782 Z" id="Shape"></path>
            <path d="M42.832,47.132 L42.509,46.806 L35.849,57.497 L34.876,57.822 L35.236,58.434 L36.315,58.109 L42.832,47.132 Z" id="Shape"></path>
            <path d="M44.236,44.718 L43.805,44.574 L43.12,45.906 L43.589,46.05 L44.236,44.718 Z" id="Shape"></path>
            <path d="M45.029,43.062 L48.976,29.24 C49.005,29.212 49.03,29.178 49.042,29.139 C49.099,28.97 54.698,12.365 58.897,4.533 C59.068,4.276 60.571,1.993 60.671,0.947 C60.686,0.789 60.57,0.651 60.414,0.634 C60.253,0.62 60.117,0.736 60.102,0.891 C60.028,1.659 58.863,3.552 58.406,4.24 C54.172,12.137 48.556,28.789 48.499,28.956 C48.49,28.984 48.49,29.012 48.488,29.04 L44.593,42.918 L45.029,43.062 L45.029,43.062 Z" id="Shape"></path>
            <path d="M47.224,59.658 L53.308,53.79 L52.912,53.753 L46.973,59.298 L47.224,59.658 Z" id="Shape"></path>
            <path d="M66.999,38.276 C66.882,38.172 66.7,38.181 66.596,38.299 L53.745,52.591 C53.639,52.709 53.647,52.89 53.765,52.994 C53.821,53.045 53.888,53.067 53.956,53.067 C54.035,53.067 54.112,53.036 54.169,52.973 L67.021,38.68 C67.126,38.565 67.116,38.384 66.999,38.276 L66.999,38.276 Z" id="Shape"></path>
            <path d="M44.091,61.264 L48.513,65.637 L48.815,65.617 L44.293,60.996 L44.091,61.264 Z" id="Shape"></path>
            <path d="M49.366,66.337 C49.329,66.295 49.264,66.289 49.222,66.325 C49.18,66.362 49.174,66.427 49.211,66.469 L58.721,77.685 C58.742,77.71 58.771,77.721 58.8,77.721 C58.824,77.721 58.846,77.713 58.866,77.696 C58.908,77.659 58.914,77.597 58.877,77.552 L49.366,66.337 L49.366,66.337 Z" id="Shape"></path>
            <path d="M40.441,76.358 C40.417,76.307 40.356,76.287 40.304,76.313 C40.255,76.334 40.233,76.397 40.258,76.448 L47.565,91.312 C47.582,91.345 47.619,91.368 47.657,91.368 C47.672,91.368 47.686,91.365 47.701,91.357 C47.751,91.331 47.772,91.272 47.747,91.22 L40.441,76.358 L40.441,76.358 Z" id="Shape"></path>
            <path d="M35.152,60.815 C35.152,60.815 34.984,61.367 34.42,61.404 C35.285,61.949 36.55,68.856 36.55,68.856 L37.133,68.813 L35.152,60.815 L35.152,60.815 Z" id="Shape"></path>
            <path d="M37.216,69.341 L36.928,69.702 L40.169,76.254 L40.348,76.109 L37.216,69.341 Z" id="Shape"></path>
            <path d="M32.764,58.434 L32.83,58.322 C32.804,58.375 32.779,58.429 32.756,58.485 L32.764,58.434 L32.188,58.471 C32.188,58.471 27.796,59.984 22.036,59.909 L21.748,60.306 C21.748,60.306 30.352,59.911 32.572,59.483 C32.573,59.658 32.593,59.825 32.622,59.985 C30.802,59.901 24.397,60.451 24.397,60.451 L24.655,60.722 C29.016,60.09 32.499,60.795 32.499,60.795 L32.901,60.767 C32.907,60.779 32.911,60.789 32.917,60.798 L33.543,60.296 L33.706,58.778 L33.27,57.754 C33.167,57.836 33.073,57.935 32.989,58.051 L33.124,57.822 L32.152,57.497 L25.492,46.806 L25.167,47.132 L31.684,58.11 L32.764,58.434 L32.764,58.434 Z" id="Shape"></path>
            <path d="M24.88,45.906 L24.196,44.574 L23.765,44.718 L24.412,46.05 L24.88,45.906 Z" id="Shape"></path>
            <path d="M18.958,29.139 C18.971,29.179 18.996,29.212 19.024,29.24 L22.973,43.062 L23.406,42.918 L19.51,29.04 C19.509,29.012 19.509,28.983 19.499,28.956 C19.442,28.789 13.826,12.137 9.578,4.218 C9.135,3.552 7.97,1.659 7.896,0.891 C7.881,0.736 7.744,0.62 7.584,0.634 C7.427,0.651 7.312,0.789 7.327,0.947 C7.427,1.993 8.931,4.276 9.088,4.51 C13.3,12.365 18.902,28.969 18.958,29.139 L18.958,29.139 Z" id="Shape"></path>
            <path d="M14.692,53.79 L20.777,59.658 L21.028,59.298 L15.089,53.753 L14.692,53.79 Z" id="Shape"></path>
            <path d="M14.044,53.067 C14.112,53.067 14.18,53.045 14.234,52.994 C14.352,52.89 14.361,52.709 14.256,52.591 L1.405,38.299 C1.3,38.181 1.12,38.173 1.002,38.276 C0.885,38.383 0.875,38.565 0.981,38.68 L13.833,52.973 C13.888,53.036 13.967,53.067 14.044,53.067 L14.044,53.067 Z" id="Shape"></path>
            <path d="M23.708,60.996 L19.185,65.617 L19.488,65.637 L23.908,61.264 L23.708,60.996 Z" id="Shape"></path>
            <path d="M18.634,66.337 L9.123,77.552 C9.086,77.597 9.092,77.658 9.134,77.696 C9.154,77.714 9.176,77.721 9.2,77.721 C9.228,77.721 9.258,77.71 9.278,77.685 L18.79,66.469 C18.826,66.427 18.821,66.363 18.778,66.325 C18.735,66.289 18.67,66.295 18.634,66.337 L18.634,66.337 Z" id="Shape"></path>
            <path d="M27.695,76.313 C27.644,76.287 27.584,76.307 27.559,76.358 L20.254,91.22 C20.229,91.272 20.25,91.33 20.3,91.357 C20.314,91.365 20.33,91.368 20.344,91.368 C20.382,91.368 20.418,91.346 20.435,91.312 L27.741,76.448 C27.767,76.397 27.746,76.335 27.695,76.313 L27.695,76.313 Z" id="Shape"></path>
            <path d="M33.58,61.404 C33.016,61.367 32.848,60.815 32.848,60.815 L30.868,68.813 L31.45,68.856 C31.45,68.856 32.716,61.949 33.58,61.404 L33.58,61.404 Z" id="Shape"></path>
            <path d="M27.653,76.109 L27.833,76.254 L31.072,69.702 L30.784,69.341 L27.653,76.109 Z" id="Shape"></path>
        </g>
    </g>
</svg>