<?xml version="1.0" encoding="UTF-8" standalone="no"?>
<svg width="68px" height="74px" viewBox="0 0 68 74" version="1.1" xmlns="http://www.w3.org/2000/svg" xmlns:xlink="http://www.w3.org/1999/xlink">
    <!-- Generator: Sketch 3.6.1 (26313) - http://www.bohemiancoding.com/sketch -->
    <title>Group</title>
    <desc>Created with Sketch.</desc>
    <defs></defs>
    <g id="Page-1" stroke="none" stroke-width="1" fill="none" fill-rule="evenodd">
        <g id="Artboard-1" transform="translate(-328.000000, -200.000000)">
            <g id="Group" transform="translate(328.000000, 200.000000)">
                <path d="M19.5049091,29.4596552 C19.7798182,29.7314138 20.0674545,29.8692069 20.3385455,29.8207241 C20.4658182,29.7990345 20.5867273,29.7326897 20.6949091,29.6331724 C22.0210909,33.772069 24.5652727,37.8905517 27.77,40.3516897 C29.6167273,41.7666207 31.6874545,42.6354828 33.8689091,42.6354828 C35.5450909,42.6354828 37.1550909,42.1174828 38.6505455,41.2358621 C39.1405455,40.9462414 39.6203636,40.6157931 40.0861818,40.2521724 C43.2349091,37.7795517 45.7294545,33.7146552 47.0390909,29.6318966 C47.1447273,29.7339655 47.2669091,29.8003103 47.3929091,29.8194483 C47.5074545,29.8398621 47.622,29.8232759 47.7378182,29.7837241 C47.8625455,29.7428966 47.9936364,29.6688966 48.1158182,29.563 C48.6605455,29.0973103 49.1709091,28.0498276 49.4483636,26.7701379 C49.4789091,26.6502069 49.5107273,26.5417586 49.5310909,26.4167241 C49.6163636,25.9446552 49.6609091,25.4878966 49.6672727,25.0655862 C49.6927273,23.7897241 49.3885455,22.7983793 48.8641818,22.5483103 C48.8132727,22.5291724 48.7572727,22.5074828 48.7025455,22.4985517 L48.6987273,22.4985517 C48.6529091,22.4908966 48.5956364,22.5087586 48.546,22.5113103 C48.4861818,22.5164138 48.4276364,22.5087586 48.3665455,22.5304483 C48.2558182,22.5674483 48.1412727,22.6325172 48.0305455,22.7192759 L48.0165455,22.7333103 L48.0165455,22.7307586 C48.0114545,22.7320345 48.0114545,22.7320345 48.0050909,22.7333103 L48.0050909,22.6950345 C47.1574545,19.4645517 46.0858182,17.4856897 44.9823636,16.3055172 C44.7672727,16.1919655 44.5458182,16.0847931 44.3001818,16.0146207 C44.2734545,16.4943448 44.8169091,17.2164828 44.8690909,17.9233103 C43.3354545,17.2075517 41.8705455,16.0975517 39.7349091,16.0171724 C39.236,16.0005862 38.6938182,16.0056897 38.1376364,16.0158966 C32.9767273,17.8697241 27.2990909,15.7747586 27.2990909,15.7747586 C24.4647273,15.5132069 22.6752727,16.6538276 21.5527273,18.0878966 C20.1069091,19.9302414 19.7632727,22.2548621 19.72,22.6873793 C19.7187273,22.7039655 19.7174545,22.7218276 19.7174545,22.7409655 L19.7161818,22.7409655 C19.4845455,22.5559655 19.2503636,22.4704828 19.0263636,22.5074828 C18.9309091,22.5227931 18.838,22.5661724 18.7501818,22.6261379 C18.5452727,22.7715862 18.3887273,23.0433448 18.2729091,23.3916552 C18.2105455,24.2987931 18.1672727,25.2161379 18.1621818,26.1564483 C18.1723636,26.2470345 18.1838182,26.3312414 18.2003636,26.4205517 C18.4409091,27.7742414 18.9474545,28.8982759 19.5049091,29.4596552 L19.5049091,29.4596552 Z" id="Shape"></path>
                <path d="M18.0056364,31.043 C19.4476364,34.9356552 21.7334545,38.7185862 24.5589091,41.4795517 C26.1549091,43.0475862 27.9278182,44.2877241 29.8152727,45.0404828 C31.1147273,45.5533793 32.4701818,45.843 33.8663636,45.843 C35.2574545,45.843 36.6129091,45.5572069 37.9110909,45.0404828 C39.866,44.260931 41.6987273,42.9621034 43.338,41.3175172 C46.0947273,38.5603793 48.3270909,34.8348621 49.7372727,31.0111034 C50.828,30.6895862 51.9696364,28.646931 52.4341818,26.0352414 C52.9356364,23.2015517 52.4621818,20.7314828 51.3714545,20.321931 C51.4109091,19.6291379 51.4363636,18.9286897 51.4325455,18.2142069 C51.4083636,7.94606897 45.4023636,1.16486207 35.9332727,0.530758621 C27.6783636,-0.0267931034 21.4585455,3.26237931 18.6254545,8.72562069 C17.6709091,10.5641379 17.13,13.6772414 16.9187273,16.1753793 C16.6005455,17.4780345 16.4147273,18.8304483 16.4147273,20.230069 L16.4478182,20.230069 C16.4478182,20.2428276 16.4465455,20.2530345 16.444,20.2632414 C16.4223636,20.2645172 16.4058182,20.2657931 16.3829091,20.2708966 C15.1789091,20.4788621 14.6265455,23.0624828 15.156,26.039069 C15.6409091,28.7694138 16.8665455,30.8822414 18.0056364,31.043 L18.0056364,31.043 Z M18.2754545,23.3916552 C18.3912727,23.0433448 18.5478182,22.7715862 18.7527273,22.6261379 C18.8392727,22.5661724 18.9334545,22.5227931 19.0289091,22.5074828 C19.2541818,22.4692069 19.4870909,22.5559655 19.7187273,22.7409655 L19.72,22.7409655 C19.72,22.7231034 19.7212727,22.7039655 19.7225455,22.6873793 C19.7670909,22.2548621 20.1107273,19.9302414 21.5552727,18.0878966 C22.6778182,16.6551034 24.4672727,15.5132069 27.3016364,15.7747586 C27.3016364,15.7747586 32.978,17.871 38.1401818,16.0158966 C38.6963636,16.0056897 39.2385455,16.0018621 39.7374545,16.0171724 C41.8730909,16.0975517 43.338,17.2088276 44.8716364,17.9233103 C44.8194545,17.2164828 44.276,16.4956207 44.3027273,16.0146207 C44.5483636,16.0847931 44.7698182,16.1919655 44.9849091,16.3055172 C46.0883636,17.4856897 47.16,19.4645517 48.0076364,22.6950345 L48.0076364,22.7333103 C48.014,22.7320345 48.014,22.7320345 48.0190909,22.7307586 L48.0190909,22.7333103 L48.0330909,22.7192759 C48.1425455,22.6312414 48.2570909,22.5661724 48.3690909,22.5304483 C48.4301818,22.5087586 48.4887273,22.5176897 48.5485455,22.5113103 C48.5981818,22.5087586 48.6554545,22.4896207 48.7012727,22.4985517 L48.7050909,22.4985517 C48.7585455,22.5074828 48.8158182,22.5291724 48.8667273,22.5483103 C49.3923636,22.7983793 49.6952727,23.7897241 49.6698182,25.0655862 C49.6634545,25.4878966 49.6189091,25.9446552 49.5336364,26.4167241 C49.5132727,26.5417586 49.4814545,26.6502069 49.4509091,26.7701379 C49.1721818,28.0498276 48.6618182,29.0973103 48.1183636,29.563 C47.9961818,29.6688966 47.8650909,29.7441724 47.7403636,29.7837241 C47.6245455,29.8232759 47.5087273,29.8385862 47.3954545,29.8194483 C47.2694545,29.8003103 47.1485455,29.7339655 47.0416364,29.6318966 C45.732,33.7146552 43.2374545,37.7795517 40.0887273,40.2521724 C39.6216364,40.6145172 39.1418182,40.9462414 38.6530909,41.2358621 C37.1576364,42.1162069 35.5489091,42.6354828 33.8714545,42.6354828 C31.6887273,42.6354828 29.6192727,41.7666207 27.7725455,40.3516897 C24.5678182,37.8905517 22.0223636,33.772069 20.6974545,29.6331724 C20.5892727,29.7326897 20.4683636,29.7990345 20.3410909,29.8207241 C20.07,29.8692069 19.7823636,29.7314138 19.5074545,29.4596552 C18.95,28.8995517 18.4434545,27.7742414 18.2041818,26.4205517 C18.1876364,26.3312414 18.1761818,26.2470345 18.166,26.1564483 C18.1685455,25.2161379 18.2118182,24.2987931 18.2754545,23.3916552 L18.2754545,23.3916552 Z" id="Shape" fill="#FFFFFF"></path>
                <path d="M63.4547273,52.0015862 C60.4409091,48.0987241 57.2705455,47.4697241 55.9189091,47.2107241 C55.7534545,47.1801034 55.616,47.1533103 55.5027273,47.1277931 C53.9958182,46.7756552 52.2674545,46.6723103 50.7414545,46.583 C49.5145455,46.5102759 48.3436364,46.4477586 47.3903636,46.2551034 C46.2818182,49.1972414 40.8332727,51.3343103 34.1221818,51.3343103 C27.4085455,51.3343103 21.9638182,49.1959655 20.8565455,46.2551034 C19.8981818,46.4464828 18.726,46.5141034 17.5003636,46.5868276 C15.9743636,46.6710345 14.246,46.7743793 12.7416364,47.1277931 C12.6283636,47.1533103 12.4883636,47.1801034 12.3229091,47.2107241 C11.0489091,47.4569655 8.15218182,48.0157931 5.29236364,51.3585517 C3.56909091,53.3756897 1.85981818,56.4007586 0.529818182,60.9874828 C0.198909091,62.1306552 0.196363636,63.3363448 0.466181818,64.4603793 C0.590909091,64.9707241 0.753818182,65.4772414 0.998181818,65.942931 C3.94454545,71.5375862 20.0203636,73.5317586 34.0789091,73.5317586 L34.1578182,73.5317586 C48.2189091,73.5317586 64.2858182,71.5375862 67.2398182,65.942931 C67.5274545,65.4057931 67.698,64.8176207 67.8201818,64.2128621 C68.0263636,63.1628276 68.0085455,62.0566552 67.7056364,60.9951379 C66.5118182,56.8536897 65.0049091,54.0059655 63.4547273,52.0015862 L63.4547273,52.0015862 Z" id="Shape" fill="#FFFFFF"></path>
            </g>
        </g>
    </g>
</svg>